<?xml version="1.0" encoding="UTF-8"?>
<svg id="_レイヤー_1" data-name="レイヤー 1" xmlns="http://www.w3.org/2000/svg" viewBox="0 0 340.1575 340.1575">
  <defs>
    <style>
      .cls-1 {
        fill: #240000;
      }
    </style>
  </defs>
  <g>
    <path class="cls-1" d="M170.0824,322.6487c-84.3551,0-152.983-68.6272-152.983-152.9822S85.7273,16.6828,170.0824,16.6828s152.983,68.6287,152.983,152.9837-68.6279,152.9822-152.983,152.9822ZM170.0824,18.2548C86.594,18.2548,18.6715,86.1773,18.6715,169.6665s67.9225,151.4102,151.4109,151.4102,151.411-67.9225,151.411-151.4102S253.5709,18.2548,170.0824,18.2548Z"/>
    <path class="cls-1" d="M170.0824,322.6487c-84.3551,0-152.983-68.6272-152.983-152.9822S85.7273,16.6828,170.0824,16.6828s152.983,68.6287,152.983,152.9837-68.6279,152.9822-152.983,152.9822ZM170.0824,18.2548C86.594,18.2548,18.6715,86.1773,18.6715,169.6665s67.9225,151.4102,151.4109,151.4102,151.411-67.9225,151.411-151.4102S253.5709,18.2548,170.0824,18.2548Z"/>
    <path class="cls-1" d="M170.0824,338.2477C77.1257,338.2477,1.5005,262.6232,1.5005,169.6665S77.1257,1.0838,170.0824,1.0838s168.582,75.626,168.582,168.5827-75.6253,168.5812-168.582,168.5812ZM170.0824,2.6558C77.9931,2.6558,3.0725,77.5772,3.0725,169.6665s74.9206,167.0092,167.0099,167.0092,167.0099-74.9199,167.0099-167.0092S262.1717,2.6558,170.0824,2.6558Z"/>
    <g>
      <path class="cls-1" d="M170.0824,322.6487c-.4345,0-.786-.3516-.786-.786v-43.2798c0-.4345.3516-.786.786-.786s.786.3516.786.786v43.2798c0,.4345-.3516.786-.786.786Z"/>
      <path class="cls-1" d="M322.2794,170.4525h-43.2798c-.4345,0-.786-.3516-.786-.786s.3516-.786.786-.786h43.2798c.4345,0,.786.3516.786.786s-.3516.786-.786.786Z"/>
      <path class="cls-1" d="M277.7016,278.0717c-.2011,0-.4022-.0768-.5557-.2303l-30.6031-30.6038c-.307-.307-.307-.8044,0-1.1115s.8044-.307,1.1115,0l30.603,30.6038c.307.307.307.8044,0,1.1115-.1535.1535-.3546.2303-.5557.2303Z"/>
      <path class="cls-1" d="M170.0824,61.5346c-.4345,0-.786-.3516-.786-.786V17.4688c0-.4345.3516-.786.786-.786s.786.3516.786.786v43.2798c0,.4345-.3516.786-.786.786Z"/>
      <path class="cls-1" d="M62.4632,278.0717c-.2011,0-.4022-.0768-.5557-.2303-.307-.307-.307-.8044,0-1.1115l30.6031-30.6038c.307-.307.8044-.307,1.1115,0,.307.307.307.8044,0,1.1115l-30.6031,30.6038c-.1535.1535-.3546.2303-.5557.2303Z"/>
      <g>
        <g>
          <path class="cls-1" d="M147.3349,115.5345c-.3078,0-.601-.1827-.7261-.4851L111.1131,29.3557c-.1658-.4007.0246-.8612.4252-1.027.3991-.1689.8605.023,1.027.4252l35.4957,85.6937c.1658.4007-.0246.8612-.4252,1.027-.0982.0415-.2004.0599-.3009.0599Z"/>
          <path class="cls-1" d="M192.8415,115.5069c-.1006,0-.2027-.0184-.3009-.0599-.4007-.1658-.5911-.6263-.4252-1.027l35.4957-85.6937c.1658-.4007.6294-.5941,1.027-.4252.4007.1658.5911.6263.4252,1.027l-35.4957,85.6937c-.1251.3024-.4183.4851-.7261.4851Z"/>
        </g>
        <g>
          <path class="cls-1" d="M29.4707,228.6957c-.3078,0-.601-.1827-.7261-.4851-.1658-.4007.0246-.8612.4252-1.027l85.6945-35.4964c.3991-.1673.8605.0246,1.027.4252.1658.4007-.0246.8612-.4252,1.027l-85.6945,35.4964c-.0982.0415-.2004.0599-.3009.0599Z"/>
          <path class="cls-1" d="M115.1375,147.6935c-.1005,0-.2026-.0184-.3009-.0599L29.1422,112.1372c-.4007-.1658-.5911-.6263-.4252-1.027.1658-.4022.6286-.5926,1.027-.4252l85.6945,35.4964c.4007.1658.5911.6264.4253,1.027-.1251.3024-.4183.4851-.7262.4851Z"/>
        </g>
      </g>
      <g>
        <g>
          <path class="cls-1" d="M228.354,311.052c-.3078,0-.601-.1827-.7261-.4851l-35.4964-85.6937c-.1658-.4007.0246-.8612.4252-1.027.4007-.1658.8612.0245,1.027.4252l35.4964,85.6937c.1658.4007-.0246.8612-.4252,1.027-.0983.0415-.2004.0599-.3009.0599Z"/>
          <path class="cls-1" d="M111.8554,311.0796c-.1006,0-.2027-.0184-.3009-.0599-.4007-.1658-.5911-.6264-.4252-1.027l35.4964-85.6937c.1665-.4007.6286-.5926,1.027-.4252.4007.1658.591.6264.4252,1.027l-35.4964,85.6937c-.1251.3024-.4183.4851-.7261.4851Z"/>
        </g>
        <g>
          <path class="cls-1" d="M225.0273,147.6935c-.3078,0-.601-.1827-.7261-.4851-.1658-.4007.0246-.8612.4252-1.027l85.6945-35.4964c.3991-.1673.862.0246,1.027.4252.1658.4007-.0246.8612-.4252,1.027l-85.6945,35.4964c-.0982.0415-.2004.0599-.3009.0599Z"/>
          <path class="cls-1" d="M310.7502,228.6957c-.1006,0-.2027-.0184-.3009-.0599l-85.6945-35.4964c-.4007-.1658-.5911-.6264-.4252-1.027.165-.4007.6286-.5941,1.027-.4252l85.6945,35.4964c.4007.1658.5911.6263.4252,1.027-.1251.3024-.4183.4851-.7261.4851Z"/>
        </g>
      </g>
      <path class="cls-1" d="M93.0663,93.4356c-.2011,0-.4022-.0768-.5557-.2303l-30.6031-30.6023c-.307-.307-.307-.8044,0-1.1115.307-.307.8044-.307,1.1115,0l30.6031,30.6023c.307.307.307.8044,0,1.1115-.1535.1535-.3546.2303-.5557.2303Z"/>
      <path class="cls-1" d="M247.0986,93.4356c-.2011,0-.4022-.0768-.5557-.2303-.307-.307-.307-.8044,0-1.1115l30.6031-30.6023c.307-.307.8044-.307,1.1115,0,.307.3071.307.8044,0,1.1115l-30.603,30.6023c-.1535.1535-.3546.2303-.5557.2303Z"/>
      <path class="cls-1" d="M61.1652,170.4525H17.8855c-.4345,0-.786-.3516-.786-.786s.3516-.786.786-.786h43.2798c.4345,0,.786.3516.786.786s-.3516.786-.786.786Z"/>
    </g>
    <g>
      <g>
        <path class="cls-1" d="M330.6853,219.1699c-.0752,0-.152-.0108-.228-.0338l-14.9304-4.5288c-.4153-.1259-.6501-.5649-.5243-.981.1267-.4145.5634-.6478.9802-.5235l14.9304,4.5288c.4153.1259.6501.5649.5243.981-.1028.3393-.4145.5573-.7522.5573Z"/>
        <path class="cls-1" d="M334.676,203.1918c-.0507,0-.1021-.0046-.1543-.0154l-15.3011-3.0443c-.4252-.0844-.7023-.4989-.6171-.9242.0852-.4268.492-.7031.9242-.6172l15.3012,3.0443c.4252.0844.7023.4989.6171.9242-.0745.3746-.4022.6325-.7699.6325Z"/>
        <path class="cls-1" d="M337.0754,186.8989c-.0253,0-.0514-.0015-.0775-.0031l-15.5245-1.529c-.4322-.043-.7484-.4283-.7054-.8597.043-.4329.4191-.7261.8589-.7062l15.5245,1.529c.4322.043.7484.4283.7054.8597-.0399.4068-.3815.7092-.7814.7092Z"/>
        <path class="cls-1" d="M254.6432,43.8969c-.1497,0-.3017-.043-.436-.132-.3608-.241-.4583-.7292-.2165-1.09l8.6669-12.9707c.2395-.3623.7269-.459,1.09-.218.3608.241.4583.7292.2165,1.09l-8.6669,12.9707c-.1512.2272-.3999.35-.654.35Z"/>
        <path class="cls-1" d="M309.6072,263.6809c-.1504,0-.3017-.043-.436-.132l-12.9707-8.6676c-.3608-.241-.4583-.7292-.2165-1.09.241-.3608.7284-.4559,1.09-.218l12.9707,8.6676c.3608.241.4583.7292.2165,1.09-.1512.2272-.3999.35-.654.35Z"/>
        <path class="cls-1" d="M325.1364,234.6783c-.1006,0-.2027-.0184-.3009-.0599l-14.4146-5.9719c-.4007-.1658-.5911-.6263-.4252-1.027.1658-.4007.6271-.5926,1.027-.4252l14.4146,5.9719c.4007.1658.591.6263.4252,1.027-.1251.3024-.4183.4851-.7261.4851Z"/>
        <path class="cls-1" d="M318.0853,249.5619c-.1251,0-.2518-.0292-.37-.0921l-13.759-7.3551c-.3823-.2057-.5274-.6816-.3224-1.0639.2042-.3838.6809-.5266,1.0639-.3239l13.759,7.3551c.3823.2057.5274.6816.3224,1.0639-.1412.2656-.413.416-.6939.416Z"/>
        <path class="cls-1" d="M254.6432,43.8969c-.1497,0-.3017-.043-.436-.132-.3608-.241-.4583-.7292-.2165-1.09l8.6669-12.9707c.2395-.3623.7269-.459,1.09-.218.3608.241.4583.7292.2165,1.09l-8.6669,12.9707c-.1512.2272-.3999.35-.654.35Z"/>
        <path class="cls-1" d="M241.8367,36.2072c-.1251,0-.2518-.0292-.37-.0921-.3823-.2057-.5274-.6816-.3224-1.0639l7.3543-13.7583c.2042-.3838.6801-.5266,1.0639-.3239.3822.2057.5273.6816.3224,1.0639l-7.3543,13.7583c-.1412.2656-.4129.416-.6939.416Z"/>
        <path class="cls-1" d="M228.3371,29.8131c-.1005,0-.2026-.0184-.3009-.0599-.4007-.1658-.591-.6264-.4252-1.027l5.9711-14.4153c.1658-.4007.6279-.5941,1.027-.4252.4007.1658.5911.6264.4252,1.027l-5.9711,14.4153c-.1251.3024-.4183.4851-.7261.4851Z"/>
        <path class="cls-1" d="M185.0013,18.984c-.0253,0-.0514-.0015-.0775-.0031-.4322-.043-.7484-.4283-.7054-.8597l1.529-15.5238c.0422-.4329.4183-.7307.8589-.7062.4322.043.7484.4283.7054.8597l-1.529,15.5237c-.0399.4068-.3815.7093-.7814.7093Z"/>
        <path class="cls-1" d="M111.8277,29.8131c-.3078,0-.601-.1827-.7261-.4851l-5.9711-14.4153c-.1658-.4007.0246-.8612.4252-1.027.3991-.1673.862.0246,1.027.4252l5.9711,14.4153c.1658.4007-.0246.8612-.4252,1.027-.0982.0415-.2004.0599-.3009.0599Z"/>
        <path class="cls-1" d="M125.893,24.7793c-.3377,0-.6494-.218-.7523-.5573l-4.5288-14.9296c-.1259-.416.109-.8551.5243-.981.416-.1259.8543.109.9802.5235l4.5288,14.9296c.1259.416-.109.8551-.5243.981-.076.023-.1528.0338-.228.0338Z"/>
        <path class="cls-1" d="M98.3281,36.2072c-.2809,0-.5527-.1505-.6939-.416l-7.3543-13.7583c-.2049-.3823-.0599-.8582.3224-1.0639.3838-.2027.8597-.0599,1.0639.3239l7.3543,13.7583c.205.3823.0599.8582-.3224,1.0639-.1182.063-.2449.0921-.37.0921Z"/>
        <path class="cls-1" d="M288.7319,289.102c-.2011,0-.4022-.0768-.5557-.2303l-11.0302-11.0303c-.3071-.307-.3071-.8044,0-1.1115.307-.307.8044-.307,1.1115,0l11.0303,11.0303c.307.307.307.8044,0,1.1115-.1535.1535-.3546.2303-.5557.2303Z"/>
        <path class="cls-1" d="M140.3859,21.1609c-.3677,0-.6954-.2579-.7699-.6325l-3.0435-15.3012c-.0852-.4252.1919-.8397.6172-.9242.4283-.0921.8397.1904.9242.6171l3.0435,15.3011c.0852.4252-.1919.8398-.6171.9242-.0522.0107-.1036.0153-.1543.0153Z"/>
        <path class="cls-1" d="M85.5216,43.8969c-.254,0-.5028-.1228-.654-.35l-8.6669-12.9707c-.2418-.3608-.1443-.849.2165-1.09.3616-.241.849-.1443,1.09.218l8.6669,12.9707c.2418.3608.1443.849-.2165,1.09-.1344.089-.2863.132-.436.132Z"/>
        <path class="cls-1" d="M73.5304,52.8025c-.2272,0-.4529-.0982-.6087-.2871l-9.8965-12.0588c-.2748-.3362-.2264-.8305.109-1.1069.3377-.2748.8313-.2241,1.1068.109l9.8965,12.0588c.2748.3362.2264.8305-.109,1.1069-.1466.1197-.3231.1781-.4982.1781Z"/>
        <path class="cls-1" d="M62.4632,62.8333c-.2011,0-.4022-.0767-.5557-.2303l-11.0303-11.0303c-.307-.307-.307-.8044,0-1.1115.3071-.307.8044-.307,1.1115,0l11.0303,11.0302c.307.3071.307.8044,0,1.1115-.1535.1535-.3546.2303-.5557.2303Z"/>
        <path class="cls-1" d="M296.6381,85.8917c-.2541,0-.5028-.1228-.654-.35-.2418-.3608-.1443-.849.2165-1.09l12.9707-8.6676c.3615-.241.849-.1443,1.09.218.2418.3608.1443.8489-.2165,1.09l-12.9707,8.6676c-.1343.089-.2863.132-.436.132Z"/>
        <path class="cls-1" d="M299.7898,276.9019c-.175,0-.3516-.0584-.4982-.1781l-12.0581-9.8958c-.3354-.2763-.3838-.7707-.109-1.1068.2763-.3347.7707-.3838,1.1069-.109l12.0581,9.8958c.3354.2763.3838.7706.109,1.1068-.1558.1888-.3815.2871-.6087.2871Z"/>
        <path class="cls-1" d="M299.7898,276.9019c-.175,0-.3516-.0584-.4982-.1781l-12.0581-9.8973c-.3354-.2763-.3838-.7707-.109-1.1068.2763-.3331.7707-.3838,1.1069-.109l12.0581,9.8973c.3354.2763.3838.7706.109,1.1068-.1558.1888-.3815.2871-.6087.2871Z"/>
        <path class="cls-1" d="M266.6345,52.8025c-.175,0-.3516-.0584-.4982-.1781-.3354-.2763-.3838-.7707-.109-1.1069l9.8965-12.0588c.2763-.3331.7707-.3838,1.1069-.109.3354.2763.3838.7707.109,1.1069l-9.8965,12.0588c-.1558.1888-.3815.2871-.6087.2871Z"/>
        <path class="cls-1" d="M170.0824,338.2477c-.4345,0-.786-.3516-.786-.786v-15.599c0-.4345.3516-.786.786-.786s.786.3516.786.786v15.599c0,.4345-.3516.786-.786.786Z"/>
        <path class="cls-1" d="M321.5494,155.5336c-.3999,0-.7415-.3024-.7814-.7092-.043-.4314.2733-.8167.7054-.8597l15.5245-1.529c.4406-.0184.8167.2733.8589.7062.043.4314-.2733.8167-.7054.8597l-15.5245,1.529c-.0261.0015-.0522.0031-.0775.0031Z"/>
        <path class="cls-1" d="M319.3733,140.756c-.3677,0-.6954-.2594-.7699-.6325-.0852-.4252.1919-.8397.6171-.9242l15.3011-3.0427c.4306-.0937.839.1919.9242.6171s-.1919.8397-.6171.9242l-15.3012,3.0427c-.0522.0107-.1036.0153-.1543.0153Z"/>
        <path class="cls-1" d="M249.1925,318.4561c-.2809,0-.5527-.1504-.6939-.416l-7.3543-13.7598c-.205-.3823-.0599-.8582.3224-1.0639.383-.2042.8589-.0599,1.0639.3239l7.3543,13.7598c.205.3822.0599.8581-.3224,1.0639-.1182.063-.2449.0921-.37.0921Z"/>
        <path class="cls-1" d="M234.3074,325.5057c-.3078,0-.601-.1827-.7261-.4851l-5.9703-14.4138c-.1658-.4007.0245-.8612.4252-1.027.3984-.1673.8612.0246,1.027.4252l5.9703,14.4138c.1658.4007-.0246.8612-.4252,1.027-.0982.0415-.2003.0599-.3009.0599Z"/>
        <path class="cls-1" d="M202.8209,335.0453c-.3677,0-.6954-.2579-.7699-.6325l-3.0435-15.3012c-.0852-.4252.1919-.8397.6171-.9242.4268-.0906.839.1904.9242.6171l3.0435,15.3012c.0852.4252-.1919.8397-.6171.9242-.0522.0107-.1036.0153-.1543.0153Z"/>
        <path class="cls-1" d="M218.8006,331.0554c-.3377,0-.6494-.218-.7522-.5573l-4.5288-14.9311c-.1259-.416.109-.8551.5243-.981.4168-.1244.8543.109.9802.5235l4.5288,14.9312c.1259.416-.109.8551-.5243.981-.076.023-.1527.0338-.228.0338Z"/>
        <path class="cls-1" d="M315.7549,126.2624c-.3377,0-.6494-.218-.7522-.5573-.1259-.416.109-.8551.5243-.981l14.9304-4.5288c.4168-.1259.8543.109.9802.5235.1259.416-.109.8551-.5243.981l-14.9304,4.5288c-.076.023-.1527.0338-.228.0338Z"/>
        <path class="cls-1" d="M186.5288,337.4448c-.3999,0-.7415-.3024-.7814-.7093l-1.529-15.5253c-.043-.4314.2733-.8167.7054-.8597.4444-.0261.8167.2733.8589.7062l1.529,15.5253c.043.4314-.2733.8167-.7054.8597-.0261.0015-.0522.0031-.0775.0031Z"/>
        <path class="cls-1" d="M296.6381,85.8917c-.2541,0-.5028-.1228-.654-.35-.2418-.3608-.1443-.849.2165-1.09l12.9707-8.6676c.3615-.241.849-.1443,1.09.218.2418.3608.1443.8489-.2165,1.09l-12.9707,8.6676c-.1343.089-.2863.132-.436.132Z"/>
        <path class="cls-1" d="M277.7016,62.8333c-.2011,0-.4022-.0767-.5557-.2303-.3071-.307-.3071-.8044,0-1.1115l11.0302-11.0302c.307-.307.8044-.307,1.1115,0s.307.8044,0,1.1115l-11.0303,11.0303c-.1535.1535-.3546.2303-.5557.2303Z"/>
        <path class="cls-1" d="M287.7332,73.8989c-.2272,0-.4529-.0982-.6087-.2871-.2748-.3362-.2264-.8305.109-1.1068l12.0581-9.8958c.3362-.2748.8305-.2257,1.1068.109.2748.3362.2265.8305-.109,1.1068l-12.0581,9.8958c-.1466.1198-.3232.1781-.4982.1781Z"/>
        <path class="cls-1" d="M276.5318,300.1614c-.2272,0-.4529-.0982-.6087-.2871l-9.8958-12.0588c-.2748-.3362-.2264-.8305.109-1.1069.337-.2763.8305-.2257,1.1069.109l9.8958,12.0588c.2748.3362.2265.8305-.109,1.1069-.1466.1198-.3232.1781-.4982.1781Z"/>
        <path class="cls-1" d="M263.3116,309.9774c-.2541,0-.5028-.1228-.654-.35l-8.6669-12.9707c-.2418-.3608-.1443-.849.2165-1.09.3615-.2426.8489-.1428,1.09.218l8.6669,12.9707c.2418.3608.1443.849-.2165,1.09-.1343.089-.2863.132-.436.132Z"/>
        <path class="cls-1" d="M263.3108,309.9774c-.2541,0-.5028-.1228-.654-.35l-8.6669-12.9707c-.2418-.3608-.1443-.849.2165-1.09.3623-.2426.8482-.1428,1.09.218l8.6669,12.9707c.2418.3608.1443.849-.2165,1.09-.1343.089-.2863.132-.436.132Z"/>
        <path class="cls-1" d="M310.7218,112.197c-.3078,0-.601-.1827-.7261-.4851-.1658-.4007.0246-.8612.4252-1.027l14.4146-5.9703c.3984-.1658.8612.0245,1.027.4252.1658.4007-.0246.8612-.4252,1.027l-14.4146,5.9703c-.0982.0415-.2004.0599-.3009.0599Z"/>
        <path class="cls-1" d="M9.4796,219.1699c-.3377,0-.6494-.218-.7523-.5573-.1259-.416.109-.8551.5243-.981l14.9304-4.5288c.4168-.1259.8543.109.9802.5235.1259.416-.109.8551-.5243.981l-14.9304,4.5288c-.076.023-.1528.0338-.228.0338Z"/>
        <path class="cls-1" d="M5.4889,203.1918c-.3677,0-.6954-.2579-.7699-.6325-.0852-.4252.1919-.8397.6171-.9242l15.3011-3.0443c.4299-.0875.839.1904.9242.6172.0852.4252-.1919.8397-.6172.9242l-15.3011,3.0443c-.0522.0108-.1036.0154-.1543.0154Z"/>
        <path class="cls-1" d="M3.0894,186.8989c-.3999,0-.7415-.3024-.7814-.7092-.043-.4314.2733-.8167.7054-.8597l15.5245-1.529c.4437-.0184.8167.2733.8589.7062.043.4314-.2733.8167-.7054.8597l-15.5245,1.529c-.0261.0015-.0522.0031-.0775.0031Z"/>
        <path class="cls-1" d="M18.6154,155.5336c-.0253,0-.0514-.0015-.0775-.0031l-15.5245-1.529c-.4322-.043-.7484-.4283-.7054-.8597.043-.4329.4229-.7261.8589-.7062l15.5245,1.529c.4322.043.7484.4283.7054.8597-.0399.4068-.3815.7092-.7814.7092Z"/>
        <path class="cls-1" d="M17.8855,170.4525H2.2865c-.4345,0-.786-.3516-.786-.786s.3516-.786.786-.786h15.599c.4345,0,.786.3516.786.786s-.3516.786-.786.786Z"/>
        <path class="cls-1" d="M15.0285,234.6783c-.3078,0-.601-.1827-.7261-.4851-.1658-.4007.0245-.8612.4252-1.027l14.4146-5.9719c.3999-.1673.8612.0245,1.027.4252.1658.4007-.0245.8612-.4252,1.027l-14.4145,5.9719c-.0983.0415-.2004.0599-.3009.0599Z"/>
        <path class="cls-1" d="M30.5576,263.6809c-.2541,0-.5028-.1228-.654-.35-.2418-.3608-.1443-.8489.2165-1.09l12.9707-8.6676c.3608-.241.8489-.1428,1.09.218.2418.3608.1443.849-.2165,1.09l-12.9707,8.6676c-.1343.089-.2863.132-.436.132Z"/>
        <path class="cls-1" d="M22.0795,249.5619c-.2809,0-.5526-.1504-.6939-.416-.2049-.3823-.0599-.8582.3224-1.0639l13.7591-7.3551c.383-.2026.8604-.0599,1.0639.3239.205.3823.0599.8582-.3224,1.0639l-13.7591,7.3551c-.1182.063-.2449.0921-.37.0921Z"/>
        <path class="cls-1" d="M52.4316,73.8989c-.175,0-.3516-.0583-.4982-.1781l-12.0589-9.8958c-.3354-.2763-.3838-.7706-.109-1.1068.2756-.3347.7691-.3838,1.1068-.109l12.0589,9.8958c.3354.2763.3838.7707.109,1.1068-.1558.1888-.3815.2871-.6087.2871Z"/>
        <path class="cls-1" d="M170.0824,18.2548c-.4345,0-.786-.3516-.786-.786V1.8698c0-.4345.3516-.786.786-.786s.786.3516.786.786v15.599c0,.4345-.3516.786-.786.786Z"/>
        <path class="cls-1" d="M43.5268,85.8902c-.1497,0-.3017-.043-.436-.132l-12.9707-8.6661c-.3608-.241-.4582-.7292-.2165-1.09.2403-.3623.7269-.459,1.09-.218l12.9707,8.6661c.3608.241.4582.7292.2165,1.09-.1512.2272-.3999.35-.654.35Z"/>
        <path class="cls-1" d="M40.3743,276.9019c-.2272,0-.4529-.0982-.6087-.2871-.2748-.3362-.2264-.8305.109-1.1068l12.0589-9.8973c.3362-.2748.8305-.2241,1.1068.109.2748.3362.2265.8305-.109,1.1068l-12.0589,9.8973c-.1466.1197-.3231.1781-.4982.1781Z"/>
        <path class="cls-1" d="M51.433,289.102c-.2011,0-.4022-.0768-.5557-.2303-.307-.307-.307-.8044,0-1.1115l11.0303-11.0303c.307-.307.8044-.307,1.1115,0s.307.8044,0,1.1115l-11.0303,11.0303c-.1535.1535-.3546.2303-.5557.2303Z"/>
        <path class="cls-1" d="M105.8566,325.5057c-.1005,0-.2027-.0184-.3009-.0599-.4007-.1658-.5911-.6264-.4252-1.027l5.9711-14.4138c.1666-.4007.6294-.5926,1.027-.4252.4007.1658.591.6264.4252,1.027l-5.9711,14.4138c-.1251.3024-.4183.4851-.7261.4851Z"/>
        <path class="cls-1" d="M90.9723,318.4561c-.1251,0-.2517-.0292-.37-.0921-.3823-.2057-.5273-.6816-.3224-1.0639l7.3543-13.7598c.205-.3838.6809-.5281,1.0639-.3239.3823.2057.5273.6816.3224,1.0639l-7.3543,13.7598c-.1412.2656-.4129.416-.6939.416Z"/>
        <path class="cls-1" d="M137.3432,335.0453c-.0507,0-.1021-.0046-.1543-.0153-.4252-.0844-.7024-.4989-.6172-.9242l3.0443-15.3012c.0844-.4252.4943-.7062.9242-.6171.4252.0844.7023.4989.6171.9242l-3.0443,15.3012c-.0745.3746-.4022.6325-.7699.6325Z"/>
        <path class="cls-1" d="M76.8532,309.9774c-.1497,0-.3017-.043-.436-.132-.3608-.241-.4582-.7292-.2165-1.09l8.6669-12.9707c.2403-.3608.7277-.4606,1.09-.218.3608.241.4582.7292.2165,1.09l-8.6669,12.9707c-.1512.2272-.3999.35-.654.35Z"/>
        <path class="cls-1" d="M63.6323,300.1614c-.175,0-.3516-.0583-.4982-.1781-.3354-.2763-.3838-.7707-.109-1.1069l9.8965-12.0588c.2771-.3347.7699-.3853,1.1068-.109.3354.2763.3838.7707.109,1.1069l-9.8965,12.0588c-.1558.1888-.3815.2871-.6087.2871Z"/>
        <path class="cls-1" d="M121.3642,331.0554c-.0752,0-.152-.0107-.228-.0338-.4153-.1259-.6501-.565-.5243-.981l4.5288-14.9312c.1267-.4145.5634-.6478.9802-.5235.4153.1259.6501.5649.5243.981l-4.5288,14.9311c-.1029.3393-.4145.5573-.7523.5573Z"/>
        <path class="cls-1" d="M153.636,337.4448c-.0253,0-.0514-.0015-.0775-.0031-.4322-.043-.7484-.4283-.7054-.8597l1.5291-15.5253c.043-.4329.4183-.7338.8589-.7062.4322.043.7484.4283.7054.8597l-1.5291,15.5253c-.0399.4068-.3815.7093-.7814.7093Z"/>
        <path class="cls-1" d="M29.4431,112.197c-.1006,0-.2027-.0184-.3009-.0599l-14.4146-5.9703c-.4007-.1658-.5911-.6263-.4252-1.027.1666-.4007.6286-.5926,1.027-.4252l14.4145,5.9703c.4007.1658.5911.6264.4252,1.027-.1251.3024-.4183.4851-.7261.4851Z"/>
        <path class="cls-1" d="M35.8371,98.6967c-.1251,0-.2518-.0292-.37-.0921l-13.7591-7.3535c-.3823-.2057-.5273-.6816-.3224-1.0639.2034-.3853.6809-.5296,1.0639-.3239l13.7591,7.3535c.3823.2057.5273.6816.3224,1.0639-.1412.2656-.4129.416-.6939.416Z"/>
        <path class="cls-1" d="M24.41,126.2624c-.0752,0-.152-.0107-.228-.0338l-14.9304-4.5288c-.4153-.1259-.6502-.5649-.5243-.981.1267-.4145.5634-.6494.9802-.5235l14.9304,4.5288c.4153.1259.6501.5649.5243.981-.1029.3393-.4145.5573-.7523.5573Z"/>
        <path class="cls-1" d="M20.7915,140.756c-.0507,0-.1021-.0046-.1543-.0153l-15.3011-3.0427c-.4252-.0844-.7023-.4989-.6171-.9242.0844-.4252.4905-.7077.9242-.6171l15.3011,3.0427c.4252.0844.7023.4989.6172.9242-.0745.3731-.4022.6325-.7699.6325Z"/>
        <path class="cls-1" d="M214.2718,24.7793c-.0752,0-.152-.0108-.228-.0338-.4153-.1259-.6501-.5649-.5243-.981l4.5288-14.9296c.1259-.4145.5642-.6478.9802-.5235.4153.1259.6501.5649.5243.981l-4.5288,14.9296c-.1028.3393-.4145.5573-.7522.5573Z"/>
        <path class="cls-1" d="M199.7789,21.1609c-.0506,0-.1021-.0046-.1543-.0153-.4252-.0844-.7023-.4989-.6171-.9242l3.0435-15.3011c.0852-.4252.4928-.7077.9242-.6171.4252.0844.7023.4989.6171.9242l-3.0435,15.3012c-.0745.373-.4022.6325-.7699.6325Z"/>
        <path class="cls-1" d="M155.1635,18.984c-.3999,0-.7415-.3024-.7814-.7093l-1.5291-15.5237c-.043-.4314.2733-.8167.7054-.8597.4452-.023.8167.2733.8589.7062l1.5291,15.5238c.043.4314-.2733.8167-.7054.8597-.0261.0015-.0522.0031-.0775.0031Z"/>
      </g>
      <g>
        <path class="cls-1" d="M337.8807,170.4126h-15.599c-.4345,0-.786-.3516-.786-.786s.3516-.786.786-.786h15.599c.4345,0,.786.3516.786.786s-.3516.786-.786.786Z"/>
        <path class="cls-1" d="M304.3339,98.6537c-.2809,0-.5526-.1505-.6939-.416-.2049-.3823-.0599-.8582.3224-1.0639l13.7598-7.355c.383-.2057.8597-.0599,1.0639.3239.205.3823.0599.8582-.3224,1.0639l-13.7598,7.3551c-.1182.0629-.2449.0921-.37.0921Z"/>
      </g>
    </g>
  </g>
  <g>
    <g>
      <g>
        <path class="cls-1" d="M170.0824,170.4525c-.2088,0-.4083-.0829-.5557-.2303-30.3344-30.3351-30.3344-79.6943,0-110.0294.2948-.2947.8167-.2947,1.1115,0,30.3344,30.3352,30.3344,79.6943,0,110.0294-.1474.1474-.3469.2303-.5557.2303ZM170.0824,61.8662c-28.9788,29.5783-28.9788,77.1044,0,106.6827,28.9788-29.5783,28.9788-77.1044,0-106.6827Z"/>
        <path class="cls-1" d="M170.0824,279.3689c-.2011,0-.4022-.0768-.5557-.2303-14.6947-14.6947-22.7874-34.2314-22.7874-55.0147s8.0927-40.3184,22.7874-55.0132c.307-.307.8044-.307,1.1115,0,14.6947,14.6947,22.7874,34.2314,22.7874,55.0132s-8.0927,40.32-22.7874,55.0147c-.1535.1535-.3546.2303-.5557.2303ZM170.0824,170.7841c-14.0461,14.3309-21.7712,33.2428-21.7712,53.3398s7.725,39.0105,21.7712,53.3414c14.0461-14.3309,21.7712-33.2428,21.7712-53.3414s-7.725-39.0089-21.7712-53.3398Z"/>
      </g>
      <g>
        <path class="cls-1" d="M224.5406,192.9721c-19.9259,0-39.8448-7.5807-55.014-22.7498-.1474-.1474-.2303-.347-.2303-.5557s.0829-.4083.2303-.5557c14.6948-14.6948,34.2322-22.7882,55.014-22.7882s40.32,8.0935,55.0147,22.7882c.1474.1474.2303.347.2303.5557s-.0829.4084-.2303.5557c-15.166,15.1645-35.0934,22.7498-55.0147,22.7498ZM171.2,169.6665c29.5776,28.9796,77.1044,28.9796,106.682,0-14.3324-14.0469-33.2428-21.7719-53.3414-21.7719s-39.0089,7.725-53.3406,21.7719Z"/>
        <path class="cls-1" d="M115.6235,192.9736c-19.9228,0-39.8464-7.5838-55.014-22.7514-.1474-.1474-.2303-.347-.2303-.5557s.0829-.4083.2303-.5557c14.6948-14.6948,34.2322-22.7882,55.0147-22.7882s40.3192,8.0935,55.0139,22.7882c.1474.1474.2303.347.2303.5557s-.0829.4084-.2303.5557c-15.1676,15.1676-35.0911,22.7514-55.0147,22.7514ZM62.2829,169.6665c29.5791,28.9796,77.1044,28.9796,106.6819,0-14.3317-14.0469-33.2428-21.7719-53.3406-21.7719s-39.0097,7.725-53.3414,21.7719Z"/>
      </g>
    </g>
    <g>
      <g>
        <path class="cls-1" d="M170.0824,170.4525c-.4345,0-.786-.3516-.786-.786,0-42.9006,34.9016-77.8029,77.8022-77.8029.4345,0,.786.3516.786.786,0,42.9006-34.9015,77.8029-77.8022,77.8029ZM246.3087,93.4402c-41.4069.4237-75.0127,34.0288-75.4364,75.4357,41.4069-.4237,75.0128-34.0288,75.4364-75.4357Z"/>
        <path class="cls-1" d="M93.0663,247.4679c-.4345,0-.786-.3516-.786-.786,0-42.8991,34.9015-77.8014,77.8021-77.8014.4345,0,.786.3516.786.786,0,42.8991-34.9015,77.8014-77.8021,77.8014ZM169.2926,170.4571c-41.4069.4237-75.0127,34.0288-75.4364,75.4341,41.4069-.4237,75.0127-34.0288,75.4364-75.4341Z"/>
      </g>
      <g>
        <path class="cls-1" d="M247.0986,247.4679c-42.9006,0-77.8022-34.9023-77.8022-77.8014,0-.4345.3516-.786.786-.786,42.9006,0,77.8022,34.9023,77.8022,77.8014,0,.4345-.3516.786-.786.786ZM170.8723,170.4571c.4237,41.4053,34.0296,75.0104,75.4364,75.4341-.4237-41.4053-34.0295-75.0104-75.4364-75.4341Z"/>
        <path class="cls-1" d="M170.0824,170.4525c-42.9006,0-77.8021-34.9023-77.8021-77.8029,0-.4345.3516-.786.786-.786,42.9006,0,77.8021,34.9023,77.8021,77.8029,0,.4345-.3516.786-.786.786ZM93.8561,93.4402c.4237,41.4069,34.0296,75.012,75.4364,75.4357-.4237-41.4069-34.0296-75.012-75.4364-75.4357Z"/>
      </g>
    </g>
  </g>
  <path class="cls-1" d="M170.0824,279.3689c-60.4907,0-109.7032-49.2117-109.7032-109.7024s49.2125-109.704,109.7032-109.704,109.7032,49.2133,109.7032,109.704-49.2125,109.7024-109.7032,109.7024ZM170.0824,61.5346c-59.6241,0-108.1312,48.5071-108.1312,108.1319s48.5071,108.1304,108.1312,108.1304,108.1312-48.5071,108.1312-108.1304-48.5071-108.1319-108.1312-108.1319Z"/>
  <g>
    <g>
      <g>
        <g>
          <g>
            <path class="cls-1" d="M143.3452,35.5328l-.1042-2.0242.7479,1.8838c.8666,2.1827,3.028,3.5702,5.3733,3.4495l2.0242-.1042-1.8839.7479c-2.1827.8666-3.5702,3.0279-3.4494,5.3732l.1042,2.0242-.7479-1.8839c-.8666-2.1827-3.028-3.5702-5.3733-3.4495l-2.0242.1042,1.8839-.7479c2.1827-.8666,3.5702-3.0279,3.4494-5.3732Z"/>
            <path class="cls-1" d="M146.1574,47.6688c-.3163,0-.6095-.1919-.7307-.4959l-.7484-1.8837c-.7423-1.8714-2.6022-3.0397-4.6017-2.9552l-2.0241.1044c-.3715.0706-.7254-.241-.8083-.6171-.0821-.3761.1197-.7553.4774-.8981l1.8837-.7477c1.8714-.743,3.0589-2.5929,2.9545-4.6025h0l-.1036-2.0249c-.0192-.3838.2418-.7261.6179-.8075.3776-.0829.7553.1213.8981.4774l.7476,1.8837c.743,1.8714,2.6129,3.0304,4.6017,2.9552l2.0241-.1044c.3799-.0123.7269.241.8083.6171.0821.3761-.1198.7553-.4774.8981l-1.8837.7492c-1.8706.7415-3.0581,2.5914-2.9545,4.6025l.1044,2.0234c.0192.3838-.2418.7261-.6179.8075-.0561.0123-.1121.0184-.1673.0184ZM141.5603,40.8803c1.5359.3101,2.9023,1.1867,3.8234,2.4547.3101-1.5367,1.1875-2.903,2.4548-3.8241-1.536-.3086-2.9023-1.1867-3.8234-2.4548-.3101,1.5352-1.1875,2.9015-2.4547,3.8242Z"/>
          </g>
          <g>
            <line class="cls-1" x1="146.1573" y1="46.8831" x2="143.241" y2="33.5086"/>
            <path class="cls-1" d="M146.1566,47.6688c-.3616,0-.687-.2502-.7668-.6187l-2.9161-13.3745c-.0929-.4237.1758-.8428.6003-.9349.4221-.0921.842.175.9357.6002l2.9161,13.3745c.0921.4237-.1765.8428-.601.9349-.0561.0123-.1129.0184-.1681.0184Z"/>
          </g>
          <g>
            <line class="cls-1" x1="138.0119" y1="41.654" x2="151.3864" y2="38.7376"/>
            <path class="cls-1" d="M138.011,42.44c-.3616,0-.687-.2502-.7668-.6187-.0929-.4237.1758-.8428.6003-.9349l13.3745-2.9169c.4229-.0936.842.175.9349.6003.0929.4237-.1758.8428-.6003.9349l-13.3745,2.9168c-.056.0123-.1128.0184-.1681.0184Z"/>
          </g>
        </g>
        <g>
          <g>
            <path class="cls-1" d="M197.2985,35.5328l.1042-2.0242-.7479,1.8838c-.8666,2.1827-3.028,3.5702-5.3733,3.4495l-2.0242-.1042,1.8839.7479c2.1827.8666,3.5702,3.0279,3.4495,5.3732l-.1042,2.0242.7479-1.8839c.8666-2.1827,3.028-3.5702,5.3733-3.4495l2.0242.1042-1.8839-.7479c-2.1827-.8666-3.5702-3.0279-3.4495-5.3732Z"/>
            <path class="cls-1" d="M194.4864,47.6688c-.0553,0-.1113-.0061-.1673-.0184-.3761-.0814-.6371-.4237-.6179-.8075l.1044-2.0234c.1036-2.0111-1.0838-3.861-2.9544-4.6025l-1.8837-.7492c-.3577-.1428-.5596-.522-.4774-.8981s.4383-.6309.8083-.6171l2.0241.1044c1.9834.0706,3.8587-1.0838,4.6017-2.9552l.7476-1.8837c.142-.3562.5189-.5588.8981-.4774.3761.0813.6371.4237.6179.8075l-.1044,2.0249c-.1036,2.0095,1.0838,3.8594,2.9545,4.6025l1.8844.7477c.3577.1428.5595.522.4782.8981-.0814.3761-.4276.6862-.809.6171l-2.0241-.1044c-1.9904-.0829-3.8594,1.0838-4.6025,2.9552l-.7476,1.8837c-.1213.304-.4137.4959-.7307.4959ZM192.8054,39.5109c1.2665.9211,2.1439,2.2874,2.4548,3.8226.9211-1.2665,2.2874-2.1431,3.8226-2.4532-1.2665-.9211-2.1439-2.289-2.454-3.8226-.9211,1.2665-2.2882,2.1447-3.8234,2.4532Z"/>
          </g>
          <g>
            <line class="cls-1" x1="194.4864" y1="46.8831" x2="197.4027" y2="33.5086"/>
            <path class="cls-1" d="M194.4872,47.6688c-.0553,0-.1121-.0061-.1681-.0184-.4245-.0921-.6931-.5112-.601-.9349l2.9161-13.3745c.0929-.4252.5151-.6908.9357-.6002.4245.0921.6931.5112.6003.9349l-2.9161,13.3745c-.0798.3684-.4053.6187-.7668.6187Z"/>
          </g>
          <g>
            <line class="cls-1" x1="202.6318" y1="41.654" x2="189.2573" y2="38.7376"/>
            <path class="cls-1" d="M202.6328,42.44c-.0553,0-.1121-.0062-.1681-.0184l-13.3745-2.9168c-.4245-.0921-.6931-.5112-.6003-.9349.0921-.4252.5143-.6924.9349-.6003l13.3745,2.9169c.4245.0921.6931.5112.6003.9349-.0798.3685-.4053.6187-.7668.6187Z"/>
          </g>
        </g>
      </g>
      <g>
        <g>
          <g>
            <path class="cls-1" d="M56.3296,93.7256l-1.505-1.3576,1.861.8032c2.1561.9306,4.6656.3834,6.2386-1.3603l1.3576-1.505-.8032,1.861c-.9306,2.1561-.3835,4.6656,1.3603,6.2386l1.505,1.3576-1.861-.8032c-2.1562-.9306-4.6656-.3834-6.2386,1.3603l-1.3576,1.505.8032-1.861c.9306-2.1561.3834-4.6656-1.3603-6.2386Z"/>
            <path class="cls-1" d="M56.8867,102.6114c-.1466,0-.294-.0415-.4245-.1244-.3239-.2088-.4498-.6202-.297-.9733l.8037-1.8606c.7975-1.8484.3293-3.9961-1.166-5.344h0l-1.5045-1.3571c-.2855-.2579-.3431-.6847-.1351-1.0086.2096-.3224.621-.4452.9733-.2963l1.8606.8029c1.8453.7983,3.9945.3285,5.344-1.1652l1.3563-1.506c.2579-.2856.6854-.3439,1.0086-.1351.3239.2072.4498.6202.2971.9733l-.8029,1.8606c-.7983,1.8484-.33,3.9961,1.1652,5.344l1.5053,1.3587c.2855.2579.3423.6847.1351,1.0086-.2096.3239-.6233.4452-.9733.2963l-1.8614-.8044c-1.846-.7983-3.9938-.33-5.3432,1.1652l-1.3571,1.506c-.1543.1704-.3685.2594-.5841.2594ZM57.8807,94.3306c.8666,1.3034,1.2128,2.8908.9687,4.4382,1.3064-.8658,2.8953-1.2067,4.4374-.9687-.8658-1.3034-1.212-2.8908-.9672-4.4382-1.3049.8658-2.89,1.2128-4.439.9687Z"/>
          </g>
          <g>
            <line class="cls-1" x1="66.344" y1="99.763" x2="54.8246" y2="92.3679"/>
            <path class="cls-1" d="M66.3434,100.5496c-.1451,0-.2925-.0399-.4237-.1243l-11.5192-7.395c-.3654-.2349-.4713-.7215-.2372-1.0869.2341-.3654.72-.4728,1.0861-.2364l11.5192,7.395c.3654.2349.4713.7215.2372,1.0869-.1505.2333-.4037.3608-.6624.3608Z"/>
          </g>
          <g>
            <line class="cls-1" x1="56.8868" y1="101.8251" x2="64.2818" y2="90.3058"/>
            <path class="cls-1" d="M56.8859,102.6114c-.1451,0-.2925-.0399-.4237-.1244-.3654-.2349-.4713-.7215-.2372-1.0869l7.395-11.52c.2341-.3654.7207-.4728,1.0861-.2364.3654.2349.4713.7215.2372,1.0869l-7.3949,11.52c-.1505.2333-.4038.3608-.6624.3608Z"/>
          </g>
        </g>
        <g>
          <g>
            <path class="cls-1" d="M94.4804,55.5748l-1.3576-1.505.8032,1.861c.9306,2.1561.3834,4.6656-1.3603,6.2386l-1.505,1.3576,1.861-.8032c2.1562-.9306,4.6656-.3834,6.2386,1.3603l1.3577,1.505-.8032-1.861c-.9306-2.1561-.3834-4.6656,1.3603-6.2386l1.505-1.3576-1.861.8032c-2.1561.9306-4.6656.3834-6.2386-1.3603Z"/>
            <path class="cls-1" d="M100.518,66.375c-.2157,0-.4299-.089-.5834-.2594l-1.3579-1.5045c-1.3494-1.4953-3.4948-1.9635-5.344-1.1652l-1.8606.8029c-.3539.1489-.7645.0261-.9733-.2963-.2073-.3239-.1504-.7507.1351-1.0086l1.5053-1.3586c1.4945-1.3479,1.9627-3.4941,1.1652-5.3424l-.8029-1.8606c-.1527-.3531-.0268-.7645.2971-.9733.3224-.2073.75-.152,1.0079.1351l1.3571,1.5045c1.3494,1.4953,3.4979,1.9635,5.344,1.1652l1.8606-.8029c.3531-.1489.7638-.0261.9733.2963.208.3239.1504.7507-.1351,1.0086l-1.5053,1.3571c-1.4937,1.3494-1.962,3.4956-1.1652,5.344l.8037,1.8606c.1528.3531.0269.7645-.297.9733-.1305.0829-.2779.1244-.4245.1244ZM95.0927,61.4885c1.2243,0,2.4317.3593,3.4633,1.0439-.2441-1.5475.1013-3.1333.968-4.4382-1.5498.2426-3.1333-.1013-4.439-.9687.2441,1.5474-.1013,3.1348-.9687,4.4397.3247-.0522.6509-.0768.9764-.0768Z"/>
          </g>
          <g>
            <line class="cls-1" x1="100.5178" y1="65.5892" x2="93.1227" y2="54.0698"/>
            <path class="cls-1" d="M100.5188,66.375c-.2587,0-.512-.1274-.6624-.3608l-7.395-11.5185c-.2341-.3654-.1282-.852.2372-1.0869.3639-.2364.8505-.129,1.0861.2364l7.395,11.5185c.2341.3654.1282.852-.2372,1.0869-.1313.0844-.2787.1244-.4237.1244Z"/>
          </g>
          <g>
            <line class="cls-1" x1="102.5799" y1="56.1319" x2="91.0606" y2="63.527"/>
            <path class="cls-1" d="M91.0613,64.3133c-.2587,0-.512-.1274-.6624-.3608-.2341-.3654-.1282-.852.2372-1.0869l11.5192-7.395c.3646-.2349.8505-.1274,1.0861.2364.2341.3654.1282.852-.2372,1.0869l-11.5192,7.395c-.1313.0844-.2786.1244-.4237.1244Z"/>
          </g>
        </g>
      </g>
    </g>
    <g>
      <g>
        <g>
          <g>
            <path class="cls-1" d="M35.9489,196.4033l-2.0242.1042,1.8839-.7479c2.1827-.8666,3.5702-3.028,3.4494-5.3733l-.1042-2.0242.7479,1.8839c.8666,2.1827,3.028,3.5702,5.3733,3.4495l2.0242-.1042-1.8838.7479c-2.1827.8666-3.5702,3.028-3.4495,5.3733l.1042,2.0242-.7479-1.8839c-.8666-2.1827-3.028-3.5702-5.3733-3.4495Z"/>
            <path class="cls-1" d="M42.0699,202.5224c-.317,0-.6095-.1919-.7307-.4959l-.7476-1.8837c-.743-1.8698-2.6098-3.0289-4.6017-2.9552h0l-2.0241.1044c-.3708.0461-.7254-.241-.8083-.6171-.0821-.3761.1198-.7553.4774-.8981l1.8837-.7476c1.8706-.743,3.0581-2.5929,2.9544-4.6025l-.1044-2.0249c-.0192-.3838.2418-.7261.6179-.8075.3761-.0829.7553.1198.8981.4774l.7476,1.8837c.7423,1.8714,2.6021,3.0166,4.6017,2.9552l2.0249-.1044c.3807-.0368.7269.2425.8083.6171.0821.3761-.1198.7553-.4774.8981l-1.8844.7492c-1.8706.7415-3.0581,2.5914-2.9544,4.6025l.1044,2.0234c.0192.3838-.2418.7261-.6179.8075-.056.0123-.1121.0184-.1673.0184ZM37.4736,195.7338c1.5352.3101,2.9015,1.1867,3.8226,2.4532.3109-1.5352,1.1882-2.9015,2.4548-3.8226-1.5352-.3086-2.9023-1.1867-3.8234-2.4532-.3101,1.5337-1.1875,2.9015-2.454,3.8226Z"/>
          </g>
          <g>
            <line class="cls-1" x1="47.2992" y1="193.5912" x2="33.9247" y2="196.5076"/>
            <path class="cls-1" d="M33.9242,197.2936c-.3615,0-.687-.2502-.7668-.6187-.0929-.4237.1758-.8428.6003-.9349l13.3745-2.9169c.4191-.0952.8428.175.9349.6003.0929.4237-.1758.8428-.6003.9349l-13.3745,2.9168c-.056.0123-.1128.0184-.1681.0184Z"/>
          </g>
          <g>
            <line class="cls-1" x1="42.0701" y1="201.7367" x2="39.1538" y2="188.3621"/>
            <path class="cls-1" d="M42.0691,202.5224c-.3615,0-.687-.2502-.7676-.6187l-2.9161-13.3745c-.0921-.4237.1765-.8428.601-.9349.4199-.0936.8428.175.9349.6003l2.9161,13.3745c.0929.4237-.1758.8428-.6003.9349-.056.0123-.1128.0184-.1681.0184Z"/>
          </g>
        </g>
        <g>
          <g>
            <path class="cls-1" d="M35.9489,142.4501l-2.0242-.1042,1.8839.7479c2.1827.8666,3.5702,3.028,3.4494,5.3733l-.1042,2.0242.7479-1.8839c.8666-2.1827,3.028-3.5702,5.3733-3.4495l2.0242.1042-1.8838-.7479c-2.1827-.8666-3.5702-3.028-3.4495-5.3733l.1042-2.0242-.7479,1.8839c-.8666,2.1827-3.028,3.5702-5.3733,3.4495Z"/>
            <path class="cls-1" d="M39.1538,151.2766c-.0553,0-.1113-.0061-.1673-.0184-.3761-.0813-.6371-.4237-.6179-.8075l.1044-2.0234c.1036-2.0111-1.0838-3.861-2.9544-4.6025l-1.8837-.7477c-.3577-.1428-.5596-.522-.4774-.8981.0821-.3761.4352-.6417.8083-.6172l2.0241.1044c2.008.0645,3.8594-1.0854,4.6017-2.9552l.7476-1.8852c.1412-.3562.522-.5588.8981-.4774.3761.0814.6371.4237.6179.8075l-.1044,2.0249c-.1036,2.0111,1.0838,3.861,2.9544,4.6025l1.8844.7476c.3577.1428.5595.522.4782.8981-.0814.3761-.4306.677-.809.6171l-2.0249-.1044c-2.0187-.0676-3.8587,1.0854-4.6017,2.9552l-.7476,1.8837c-.1213.304-.4137.4959-.7308.4959ZM37.4736,143.1202c1.2665.9211,2.1439,2.2874,2.454,3.8226.9211-1.2665,2.2874-2.1431,3.8226-2.4548-1.2665-.9211-2.1439-2.2874-2.454-3.8226-.9211,1.2665-2.2874,2.1431-3.8226,2.4547Z"/>
          </g>
          <g>
            <line class="cls-1" x1="47.2992" y1="145.2622" x2="33.9247" y2="142.3458"/>
            <path class="cls-1" d="M47.3003,146.0478c-.0553,0-.1121-.0061-.1681-.0184l-13.3745-2.9153c-.4245-.0921-.6931-.5112-.601-.9349.0929-.4237.5143-.6924.9357-.6003l13.3745,2.9153c.4245.0921.6931.5112.601.9349-.0806.3684-.4061.6187-.7676.6187Z"/>
          </g>
          <g>
            <line class="cls-1" x1="42.0701" y1="137.1168" x2="39.1538" y2="150.4913"/>
            <path class="cls-1" d="M39.1546,151.2766c-.0553,0-.1121-.0061-.1681-.0184-.4245-.0921-.6931-.5112-.601-.9349l2.9161-13.3745c.0929-.4252.5143-.6954.9357-.6003.4245.0921.6931.5112.6003.9349l-2.9161,13.3745c-.0798.3684-.4053.6187-.7668.6187Z"/>
          </g>
        </g>
      </g>
      <g>
        <g>
          <g>
            <path class="cls-1" d="M94.1417,283.4189l-1.3576,1.505.8032-1.861c.9306-2.1561.3834-4.6656-1.3603-6.2386l-1.505-1.3576,1.861.8032c2.1561.9306,4.6656.3834,6.2386-1.3603l1.3576-1.505-.8032,1.861c-.9306,2.1562-.3835,4.6656,1.3603,6.2386l1.505,1.3577-1.861-.8032c-2.1562-.9306-4.6656-.3834-6.2386,1.3603Z"/>
            <path class="cls-1" d="M92.7838,285.7092c-.1466,0-.294-.0415-.4245-.1244-.3239-.2088-.4498-.6202-.297-.9733l.8037-1.8606c.7975-1.8468.3285-3.9945-1.166-5.344l-1.5045-1.3571c-.2855-.2579-.3431-.6847-.1351-1.0086.2096-.3209.621-.4437.9733-.2963l1.8606.8029c1.8468.7983,3.9945.3285,5.344-1.1652l1.3571-1.5045c.2571-.2871.6847-.3408,1.0079-.1351.3239.2088.4498.6202.2971.9733l-.8029,1.8606c-.7967,1.8484-.3285,3.9961,1.1652,5.344l1.5053,1.3571c.2855.2579.3431.6847.1351,1.0086-.2088.3239-.6179.4468-.9733.2963l-1.8606-.8029c-1.8476-.7983-3.9968-.3301-5.344,1.1652h0l-1.3579,1.5045c-.1535.1704-.3677.2594-.5834.2594ZM93.7778,277.4285c.8666,1.3049,1.2128,2.8923.9687,4.4382,1.3057-.8643,2.8984-1.2066,4.4382-.9672-.8658-1.3049-1.212-2.8923-.9672-4.4397-1.3049.8674-2.8915,1.2159-4.4398.9687Z"/>
          </g>
          <g>
            <line class="cls-1" x1="100.1791" y1="273.4045" x2="92.784" y2="284.9239"/>
            <path class="cls-1" d="M92.783,285.7092c-.1451,0-.2925-.0399-.4237-.1244-.3654-.2349-.4713-.7215-.2372-1.0869l7.395-11.5185c.2333-.3654.7192-.4713,1.0861-.2364.3654.2349.4713.7215.2372,1.0869l-7.395,11.5185c-.1504.2333-.4037.3608-.6624.3608Z"/>
          </g>
          <g>
            <line class="cls-1" x1="102.2412" y1="282.8618" x2="90.7219" y2="275.4667"/>
            <path class="cls-1" d="M102.2405,283.6475c-.1451,0-.2925-.0399-.4237-.1244l-11.5192-7.395c-.3654-.2349-.4713-.7215-.2372-1.0869.2349-.3654.7208-.4728,1.0861-.2364l11.5192,7.395c.3654.2349.4713.7215.2372,1.0869-.1505.2334-.4037.3608-.6624.3608Z"/>
          </g>
        </g>
        <g>
          <g>
            <path class="cls-1" d="M55.991,245.2682l-1.505,1.3576,1.861-.8032c2.1562-.9306,4.6656-.3835,6.2386,1.3603l1.3576,1.505-.8032-1.861c-.9306-2.1561-.3834-4.6656,1.3603-6.2386l1.505-1.3576-1.861.8032c-2.1561.9306-4.6656.3834-6.2386-1.3603l-1.3576-1.505.8032,1.861c.9306,2.1561.3835,4.6656-1.3603,6.2386Z"/>
            <path class="cls-1" d="M63.9431,249.4744c-.2157,0-.4299-.089-.5841-.2594l-1.3579-1.506c-1.3479-1.4937-3.4956-1.962-5.3424-1.1652l-1.8614.8029c-.3539.1505-.7645.0261-.9733-.2978-.208-.3224-.1505-.7492.1351-1.0071l1.5052-1.3571c1.4945-1.3494,1.9627-3.4956,1.1652-5.344l-.8029-1.8606c-.1528-.3531-.0269-.766.2971-.9733.3216-.2088.7492-.152,1.0086.1351l1.3579,1.506c1.3486,1.4953,3.4956,1.9635,5.3424,1.1652l1.8614-.8044c.3477-.1489.7645-.0276.9733.2963.2073.3239.1505.7507-.1351,1.0086l-1.5053,1.3587c-1.4953,1.3479-1.9635,3.4956-1.1652,5.344l.8029,1.8606c.1527.3531.0268.7661-.2971.9733-.1305.0844-.2779.1243-.4245.1243ZM58.5171,244.5879c1.2251,0,2.4325.3592,3.4641,1.0439-.2449-1.5475.1013-3.1333.9679-4.4382-1.5467.2426-3.1333-.1013-4.439-.9687.2441,1.5475-.1021,3.1333-.9679,4.4382.3239-.0507.6501-.0752.9749-.0752Z"/>
          </g>
          <g>
            <line class="cls-1" x1="66.0053" y1="239.2307" x2="54.4859" y2="246.6258"/>
            <path class="cls-1" d="M54.4864,247.4111c-.2587,0-.512-.1274-.6624-.3608-.2341-.3654-.1282-.852.2372-1.0869l11.52-7.3949c.3638-.2364.8513-.1274,1.0861.2364.2341.3654.1282.852-.2372,1.0869l-11.52,7.395c-.1313.0844-.2787.1244-.4237.1244Z"/>
          </g>
          <g>
            <line class="cls-1" x1="56.5481" y1="237.1686" x2="63.9431" y2="248.688"/>
            <path class="cls-1" d="M63.9439,249.4744c-.2587,0-.512-.1274-.6624-.3608l-7.395-11.52c-.2341-.3654-.1282-.852.2372-1.0869.3638-.2364.8505-.129,1.0861.2364l7.3949,11.52c.2341.3654.1282.852-.2372,1.0869-.1313.0844-.2786.1243-.4237.1243Z"/>
          </g>
        </g>
      </g>
    </g>
  </g>
  <g>
    <g>
      <g>
        <g>
          <g>
            <path class="cls-1" d="M196.8195,303.7996l.1042,2.0242-.7479-1.8838c-.8666-2.1827-3.0279-3.5702-5.3732-3.4495l-2.0242.1042,1.8838-.7479c2.1827-.8666,3.5702-3.0279,3.4495-5.3732l-.1042-2.0242.7479,1.8839c.8666,2.1827,3.028,3.5702,5.3733,3.4495l2.0242-.1042-1.8839.7479c-2.1827.8666-3.5702,3.0279-3.4495,5.3732Z"/>
            <path class="cls-1" d="M196.9235,306.6092c-.317,0-.6095-.1919-.7307-.4959l-.7476-1.8837c-.743-1.8683-2.5806-3.0212-4.6025-2.9552l-2.0234.1044c-.3754.066-.7254-.241-.8083-.6171-.0821-.3761.1198-.7553.4774-.8981l1.8837-.7476c1.8706-.7415,3.0581-2.5914,2.9544-4.6025l-.1044-2.0249c-.0192-.3838.2418-.7261.6179-.8075.3761-.086.7561.1198.8981.4774l.7476,1.8852c.743,1.8698,2.6052,3.0212,4.6025,2.9552l2.0241-.1044c.3976-.0184.7277.241.809.6172.0813.3761-.1205.7553-.4782.8981l-1.8844.7477c-1.8706.7415-3.0581,2.5914-2.9544,4.6025l.1044,2.0234c.0192.3838-.2418.7261-.6179.8075-.056.0123-.1121.0184-.1673.0184ZM192.3272,299.8206c1.5352.3116,2.9015,1.1882,3.8226,2.4548.3101-1.5352,1.1875-2.9015,2.454-3.8226-1.5352-.3116-2.9015-1.1882-3.8226-2.4547-.3101,1.5352-1.1875,2.9015-2.454,3.8226Z"/>
          </g>
          <g>
            <line class="cls-1" x1="194.0074" y1="292.4493" x2="196.9237" y2="305.8238"/>
            <path class="cls-1" d="M196.9227,306.6092c-.3615,0-.687-.2502-.7676-.6187l-2.9161-13.3745c-.0921-.4237.1765-.8428.601-.9349.4191-.0952.8428.175.9349.6003l2.9161,13.3745c.0929.4237-.1758.8428-.6003.9349-.056.0123-.1128.0184-.1681.0184Z"/>
          </g>
          <g>
            <line class="cls-1" x1="202.1528" y1="297.6784" x2="188.7783" y2="300.5948"/>
            <path class="cls-1" d="M188.7778,301.3803c-.3615,0-.687-.2502-.7676-.6187-.0921-.4237.1765-.8428.601-.9349l13.3745-2.9153c.4183-.0921.8428.175.9357.6003.0921.4237-.1766.8428-.601.9349l-13.3745,2.9153c-.056.0123-.1128.0184-.1681.0184Z"/>
          </g>
        </g>
        <g>
          <g>
            <path class="cls-1" d="M142.8662,303.7996l-.1042,2.0242.7479-1.8838c.8666-2.1827,3.028-3.5702,5.3733-3.4495l2.0242.1042-1.8839-.7479c-2.1827-.8666-3.5702-3.0279-3.4495-5.3732l.1042-2.0242-.7479,1.8839c-.8666,2.1827-3.028,3.5702-5.3733,3.4495l-2.0242-.1042,1.8839.7479c2.1827.8666,3.5702,3.0279,3.4495,5.3732Z"/>
            <path class="cls-1" d="M142.7623,306.6092c-.0553,0-.1113-.0061-.1673-.0184-.3761-.0814-.6371-.4237-.6179-.8075l.1036-2.0234h0c.1044-2.0111-1.0831-3.861-2.9545-4.6025l-1.8837-.7477c-.3577-.1428-.5596-.522-.4774-.8981.0814-.3761.4268-.6386.8083-.6172l2.0241.1044c2.0234.0706,3.8594-1.0854,4.6017-2.9552l.7484-1.8852c.1428-.3577.522-.5619.8981-.4774.3761.0814.6371.4237.6179.8075l-.1044,2.0249c-.1036,2.0111,1.0838,3.861,2.9545,4.6025l1.8837.7476c.3577.1428.5596.522.4774.8981-.0814.3761-.4176.6801-.8083.6171l-2.0241-.1044c-2.0042-.0614-3.8594,1.0854-4.6017,2.9552l-.7476,1.8837c-.1213.304-.4137.4959-.7307.4959ZM141.0813,298.4527c1.2673.9211,2.1447,2.2874,2.4548,3.8226.9211-1.2665,2.2874-2.1431,3.8226-2.4548-1.2673-.9211-2.1439-2.2874-2.454-3.8226-.9211,1.2665-2.2882,2.1431-3.8234,2.4547Z"/>
          </g>
          <g>
            <line class="cls-1" x1="145.6783" y1="292.4493" x2="142.762" y2="305.8238"/>
            <path class="cls-1" d="M142.7631,306.6092c-.0553,0-.1121-.0061-.1681-.0184-.4245-.0921-.6931-.5112-.6002-.9349l2.9161-13.3745c.0921-.4252.5151-.6939.9349-.6003.4245.0921.6931.5112.601.9349l-2.9161,13.3745c-.0806.3684-.406.6187-.7676.6187Z"/>
          </g>
          <g>
            <line class="cls-1" x1="137.5329" y1="297.6784" x2="150.9074" y2="300.5948"/>
            <path class="cls-1" d="M150.908,301.3803c-.0553,0-.1121-.0061-.1681-.0184l-13.3745-2.9153c-.4245-.0921-.6931-.5112-.601-.9349.0929-.4252.5105-.6908.9357-.6003l13.3745,2.9153c.4245.0921.6931.5112.601.9349-.0806.3684-.406.6187-.7676.6187Z"/>
          </g>
        </g>
      </g>
      <g>
        <g>
          <g>
            <path class="cls-1" d="M283.835,245.6069l1.505,1.3576-1.861-.8032c-2.1562-.9306-4.6656-.3834-6.2386,1.3603l-1.3577,1.505.8032-1.861c.9306-2.1561.3834-4.6656-1.3603-6.2386l-1.505-1.3576,1.861.8032c2.1561.9306,4.6656.3834,6.2386-1.3603l1.3576-1.505-.8032,1.861c-.9306,2.1561-.3834,4.6656,1.3603,6.2386Z"/>
            <path class="cls-1" d="M275.8832,249.8121c-.1466,0-.294-.0415-.4245-.1244-.3239-.2088-.4498-.6202-.2971-.9733l.8029-1.8606c.7975-1.8468.3293-3.9945-1.1652-5.344l-1.5052-1.3571c-.2856-.2579-.3431-.6847-.1351-1.0086.2096-.3224.6218-.4452.9733-.2963l1.8606.8029c1.8484.7967,3.9961.3285,5.344-1.1652l1.3579-1.5045c.2571-.2871.6847-.3423,1.0078-.1351.3239.2088.4498.6202.2971.9733l-.8037,1.8606c-.7975,1.8468-.3293,3.9945,1.1652,5.344l1.5053,1.3571c.2856.2579.3431.6847.1351,1.0086-.2088.3239-.6179.4468-.9733.2963l-1.8606-.8029c-1.8461-.7983-3.9953-.3301-5.344,1.1652l-1.3571,1.5045c-.1535.1704-.3677.2594-.5834.2594ZM276.8764,241.5313c.8666,1.3049,1.2128,2.8923.9679,4.4398,1.3049-.8658,2.8907-1.2067,4.4397-.9687-.8666-1.3049-1.2128-2.8923-.9687-4.4382-1.3041.8658-2.8931,1.2082-4.439.9672Z"/>
          </g>
          <g>
            <line class="cls-1" x1="273.8207" y1="239.5694" x2="285.34" y2="246.9645"/>
            <path class="cls-1" d="M285.3391,247.7504c-.1451,0-.2925-.0399-.4237-.1244l-11.5192-7.395c-.3654-.2349-.4713-.7215-.2372-1.0869.2341-.3654.7208-.4728,1.0862-.2364l11.5192,7.395c.3654.2349.4713.7215.2372,1.0869-.1504.2334-.4037.3608-.6624.3608Z"/>
          </g>
          <g>
            <line class="cls-1" x1="283.2779" y1="237.5073" x2="275.8828" y2="249.0267"/>
            <path class="cls-1" d="M275.8824,249.8121c-.1451,0-.2924-.0399-.4237-.1244-.3654-.2349-.4713-.7215-.2372-1.0869l7.395-11.5185c.2341-.3654.72-.4728,1.0861-.2364.3654.2349.4713.7215.2372,1.0869l-7.3949,11.5185c-.1505.2333-.4038.3608-.6624.3608Z"/>
          </g>
        </g>
        <g>
          <g>
            <path class="cls-1" d="M245.6843,283.7576l1.3576,1.505-.8032-1.861c-.9306-2.1561-.3834-4.6656,1.3603-6.2386l1.505-1.3576-1.861.8032c-2.1561.9306-4.6656.3834-6.2386-1.3603l-1.3576-1.505.8032,1.861c.9306,2.1561.3834,4.6656-1.3603,6.2386l-1.505,1.3576,1.861-.8032c2.1561-.9306,4.6656-.3834,6.2386,1.3603Z"/>
            <path class="cls-1" d="M247.0417,286.0485c-.2157,0-.4299-.089-.5834-.2594l-1.3571-1.5045c-1.3479-1.4937-3.4956-1.962-5.344-1.1652l-1.8606.8029c-.3531.1504-.7653.0261-.9733-.2963-.2073-.3239-.1505-.7507.1351-1.0086l1.5045-1.3587c1.4953-1.3479,1.9635-3.4941,1.1652-5.3424l-.8029-1.8622c-.1528-.3531-.0269-.7661.2971-.9733.3224-.2088.7484-.152,1.0086.1351l1.3579,1.506c1.3464,1.4953,3.4971,1.965,5.3424,1.1652l1.8614-.8029c.3546-.1505.7637-.0276.9733.2978.208.3224.1505.7492-.1351,1.0071l-1.5053,1.3571c-1.4945,1.3494-1.9627,3.4956-1.1652,5.344l.8029,1.8606c.1528.3531.0269.7645-.2971.9733-.1305.0829-.2779.1244-.4245.1244ZM241.6164,281.162c1.2251,0,2.4317.3592,3.4634,1.0439-.2441-1.5459.1013-3.1333.9679-4.4382-1.5459.2441-3.1341-.1029-4.439-.9687.2449,1.5475-.1013,3.1349-.9679,4.4398.3247-.0522.6509-.0768.9756-.0768Z"/>
          </g>
          <g>
            <line class="cls-1" x1="239.6469" y1="273.7432" x2="247.0419" y2="285.2626"/>
            <path class="cls-1" d="M247.0425,286.0485c-.2587,0-.512-.1274-.6624-.3608l-7.395-11.52c-.2341-.3654-.1282-.852.2372-1.0869.3638-.2364.8505-.129,1.0861.2364l7.395,11.52c.2341.3654.1282.852-.2372,1.0869-.1313.0844-.2786.1244-.4237.1244Z"/>
          </g>
          <g>
            <line class="cls-1" x1="237.5847" y1="283.2005" x2="249.1041" y2="275.8054"/>
            <path class="cls-1" d="M237.5858,283.9867c-.2587,0-.512-.1274-.6624-.3608-.2341-.3654-.1282-.852.2372-1.0869l11.5192-7.395c.3639-.2349.8513-.129,1.0861.2364.2341.3654.1282.852-.2372,1.0869l-11.5192,7.395c-.1313.0844-.2787.1243-.4237.1243Z"/>
          </g>
        </g>
      </g>
    </g>
    <g>
      <g>
        <g>
          <g>
            <path class="cls-1" d="M304.2158,142.9291l2.0242-.1042-1.8839.7479c-2.1827.8666-3.5702,3.028-3.4495,5.3733l.1042,2.0242-.7479-1.8839c-.8666-2.1827-3.028-3.5702-5.3733-3.4495l-2.0242.1042,1.8839-.7479c2.1827-.8666,3.5702-3.028,3.4495-5.3733l-.1042-2.0242.7479,1.8839c.8666,2.1827,3.028,3.5702,5.3733,3.4495Z"/>
            <path class="cls-1" d="M301.011,151.7556c-.3163,0-.6095-.1919-.7307-.4959l-.7484-1.8837c-.743-1.8698-2.6044-3.0366-4.6025-2.9552l-2.0234.1044c-.3761.0491-.7261-.241-.8083-.6171s.1198-.7553.4774-.8981l1.8837-.7476c1.8714-.7415,3.0589-2.5914,2.9545-4.6025l-.1036-2.0249c-.0192-.3838.2418-.7261.6179-.8075.3777-.086.7561.1198.8981.4774l.7476,1.8852c.7438,1.8698,2.619,3.0443,4.6017,2.9552l2.0241-.1044c.3969-.0353.7269.2425.8083.6171.0821.3761-.1198.7553-.4774.8981l-1.8837.7476c-1.8706.7415-3.0581,2.5914-2.9545,4.6025l.1044,2.0234c.0192.3838-.2418.7261-.6179.8075-.056.0123-.1121.0184-.1673.0184ZM296.4139,144.967c1.536.3116,2.9023,1.1882,3.8234,2.4548.3101-1.5352,1.1875-2.9015,2.454-3.8226-1.5352-.3117-2.9015-1.1882-3.8226-2.4548-.3101,1.5352-1.1875,2.9015-2.4548,3.8226Z"/>
          </g>
          <g>
            <line class="cls-1" x1="292.8655" y1="145.7412" x2="306.24" y2="142.8248"/>
            <path class="cls-1" d="M292.8646,146.5267c-.3616,0-.687-.2502-.7676-.6187-.0921-.4237.1765-.8428.601-.9349l13.3745-2.9153c.4222-.0921.842.175.9357.6003.0921.4237-.1765.8428-.601.9349l-13.3745,2.9153c-.056.0123-.1128.0184-.1681.0184Z"/>
          </g>
          <g>
            <line class="cls-1" x1="298.0946" y1="137.5958" x2="301.0109" y2="150.9703"/>
            <path class="cls-1" d="M301.0103,151.7556c-.3616,0-.687-.2502-.7668-.6187l-2.9161-13.3745c-.0929-.4237.1758-.8428.6002-.9349.4222-.0952.8421.175.9357.6003l2.9161,13.3745c.0921.4237-.1765.8428-.601.9349-.056.0123-.1128.0184-.1681.0184Z"/>
          </g>
        </g>
        <g>
          <g>
            <path class="cls-1" d="M304.2158,196.8823l2.0242.1042-1.8839-.7479c-2.1827-.8666-3.5702-3.028-3.4495-5.3733l.1042-2.0242-.7479,1.8839c-.8666,2.1827-3.028,3.5702-5.3733,3.4495l-2.0242-.1042,1.8839.7479c2.1827.8666,3.5702,3.028,3.4495,5.3733l-.1042,2.0242.7479-1.8839c.8666-2.1827,3.028-3.5702,5.3733-3.4495Z"/>
            <path class="cls-1" d="M298.0949,203.0014c-.0553,0-.1113-.0061-.1673-.0184-.3761-.0814-.6371-.4237-.6179-.8075l.1036-2.0234c.1044-2.0111-1.0831-3.861-2.9545-4.6025l-1.8837-.7492c-.3577-.1428-.5596-.522-.4774-.8981s.4299-.6709.8083-.6171l2.0241.1044c1.9842.066,3.8587-1.0854,4.6017-2.9552l.7484-1.8837c.142-.3577.522-.5588.8981-.4774.3761.0813.6371.4237.6179.8075l-.1044,2.0249c-.1036,2.0095,1.0838,3.8594,2.9545,4.6025l1.8837.7476c.3577.1428.5596.522.4774.8981-.0814.3761-.4145.6463-.8083.6171l-2.0241-.1044h0c-2.008-.0675-3.8594,1.0854-4.6017,2.9552l-.7476,1.8837c-.1213.304-.4137.4959-.7307.4959ZM296.4131,194.8435c1.2673.9211,2.1447,2.2874,2.4548,3.8241.9219-1.2681,2.2882-2.1446,3.8234-2.4548-1.2673-.9226-2.1439-2.2889-2.454-3.8241-.9211,1.2681-2.2882,2.1447-3.8242,2.4548Z"/>
          </g>
          <g>
            <line class="cls-1" x1="292.8655" y1="194.0702" x2="306.24" y2="196.9866"/>
            <path class="cls-1" d="M306.2406,197.7726c-.0553,0-.1121-.0062-.1681-.0184l-13.3745-2.9168c-.4245-.0921-.6931-.5112-.6003-.9349.0921-.4252.5112-.6924.9349-.6003l13.3745,2.9169c.4245.0921.6931.5112.6003.9349-.0798.3685-.4053.6187-.7668.6187Z"/>
          </g>
          <g>
            <line class="cls-1" x1="298.0946" y1="202.2157" x2="301.0109" y2="188.8411"/>
            <path class="cls-1" d="M298.0957,203.0014c-.0553,0-.1121-.0061-.1681-.0184-.4245-.0921-.6931-.5112-.6002-.9349l2.9161-13.3745c.0921-.4252.5105-.6908.9349-.6002.4245.0921.6931.5112.601.9349l-2.9161,13.3745c-.0806.3684-.406.6187-.7676.6187Z"/>
          </g>
        </g>
      </g>
      <g>
        <g>
          <g>
            <path class="cls-1" d="M246.023,55.9135l1.3576-1.505-.8032,1.861c-.9306,2.1561-.3835,4.6656,1.3603,6.2386l1.505,1.3576-1.861-.8032c-2.1562-.9306-4.6656-.3834-6.2386,1.3603l-1.3577,1.505.8032-1.861c.9306-2.1562.3834-4.6656-1.3603-6.2386l-1.505-1.3576,1.861.8032c2.1561.9306,4.6656.3834,6.2386-1.3603Z"/>
            <path class="cls-1" d="M239.9853,66.7143c-.1466,0-.294-.0415-.4245-.1244-.3239-.2088-.4498-.6202-.2971-.9733l.8037-1.8606c.7975-1.8484.3293-3.9961-1.1652-5.344l-1.5052-1.3586c-.2856-.2579-.3431-.6847-.1343-1.0086.208-.3239.6233-.4452.9725-.2963l1.8606.8044c1.8476.7968,3.9938.3285,5.344-1.1652l1.3563-1.506c.2587-.2856.6862-.3439,1.0086-.1351.3239.2072.4498.6202.2971.9733l-.8029,1.8606c-.7967,1.8484-.3285,3.9961,1.1652,5.344l1.5053,1.3571c.2856.2579.3431.6847.1351,1.0086-.2088.3239-.6187.4467-.9733.2963l-1.8606-.8029c-1.8491-.7983-3.9953-.3285-5.344,1.1652l-1.3571,1.506c-.1543.1704-.3685.2594-.5841.2594ZM240.9801,58.4335c.8658,1.3034,1.212,2.8908.9679,4.4382,1.3041-.8658,2.8877-1.2143,4.439-.9687-.8658-1.3049-1.212-2.8908-.9679-4.4382-1.3057.8658-2.8884,1.2113-4.439.9687Z"/>
          </g>
          <g>
            <line class="cls-1" x1="239.9856" y1="65.9279" x2="247.3806" y2="54.4085"/>
            <path class="cls-1" d="M239.9845,66.7143c-.1451,0-.2924-.0399-.4237-.1244-.3654-.2349-.4713-.7215-.2372-1.0869l7.395-11.52c.2341-.3654.7208-.4713,1.0861-.2364.3654.2349.4713.7215.2372,1.0869l-7.3949,11.52c-.1505.2333-.4038.3608-.6624.3608Z"/>
          </g>
          <g>
            <line class="cls-1" x1="237.9234" y1="56.4707" x2="249.4428" y2="63.8657"/>
            <path class="cls-1" d="M249.442,64.651c-.1451,0-.2925-.0399-.4237-.1243l-11.5192-7.395c-.3654-.2349-.4713-.7215-.2372-1.0869.2341-.3654.72-.4713,1.0861-.2364l11.5192,7.395c.3654.2349.4713.7215.2372,1.0869-.1504.2333-.4037.3608-.6624.3608Z"/>
          </g>
        </g>
        <g>
          <g>
            <path class="cls-1" d="M284.1737,94.0642l1.505-1.3576-1.861.8032c-2.1561.9306-4.6656.3835-6.2386-1.3603l-1.3576-1.505.8032,1.861c.9306,2.1561.3835,4.6656-1.3603,6.2386l-1.505,1.3576,1.861-.8032c2.1562-.9306,4.6656-.3834,6.2386,1.3603l1.3576,1.505-.8032-1.861c-.9306-2.1561-.3834-4.6656,1.3603-6.2386Z"/>
            <path class="cls-1" d="M283.6167,102.9491c-.2157,0-.4299-.089-.5834-.2594l-1.3579-1.5045c-1.3479-1.4937-3.4964-1.9635-5.3432-1.1652l-1.8614.8029c-.3546.1504-.7653.0261-.9733-.2978-.208-.3224-.1504-.7492.1351-1.0071l1.5053-1.3571c1.4945-1.3494,1.9627-3.4956,1.1652-5.344l-.8029-1.8606c-.1528-.3531-.0269-.7645.297-.9733.3209-.2057.7492-.152,1.0079.1351l1.3571,1.5045c1.3487,1.4953,3.4948,1.9635,5.344,1.1652l1.8606-.8029c.3531-.1505.7653-.0261.9733.2963.208.3239.1504.7507-.1351,1.0086l-1.5045,1.3571c-1.4953,1.3494-1.9635,3.4971-1.1652,5.344l.8029,1.8606c.1527.3531.0268.7645-.2971.9733-.1305.0829-.2779.1244-.4245.1244ZM278.1913,98.0626c1.2251,0,2.4317.3608,3.4634,1.0455-.2449-1.5475.1013-3.1348.9679-4.4397-1.5498.2517-3.1333-.1013-4.439-.9672.2441,1.5459-.1013,3.1333-.9679,4.4382.3239-.0507.6509-.0768.9756-.0768Z"/>
          </g>
          <g>
            <line class="cls-1" x1="274.1594" y1="100.1017" x2="285.6787" y2="92.7066"/>
            <path class="cls-1" d="M274.16,100.8874c-.2587,0-.512-.1274-.6624-.3608-.2341-.3654-.1282-.852.2372-1.0869l11.5192-7.395c.3646-.2364.8505-.129,1.0861.2364.2341.3654.1282.852-.2372,1.0869l-11.5192,7.3949c-.1313.0844-.2786.1244-.4237.1244Z"/>
          </g>
          <g>
            <line class="cls-1" x1="283.6166" y1="102.1638" x2="276.2215" y2="90.6444"/>
            <path class="cls-1" d="M283.6174,102.9491c-.2587,0-.512-.1274-.6624-.3608l-7.395-11.5184c-.2341-.3654-.1282-.852.2372-1.0869.3639-.2364.8513-.1274,1.0861.2364l7.395,11.5185c.2341.3654.1282.852-.2372,1.0869-.1313.0844-.2787.1244-.4237.1244Z"/>
          </g>
        </g>
      </g>
    </g>
  </g>
</svg>