<?xml version="1.0" encoding="UTF-8"?>
<svg id="_レイヤー_1" xmlns="http://www.w3.org/2000/svg" version="1.1" viewBox="0 0 10.97 10.97">
  <!-- Generator: Adobe Illustrator 30.2.1, SVG Export Plug-In . SVG Version: 2.1.1 Build 1)  -->
  <path d="M10.97,0H0v10.97C0,4.91,4.91,0,10.97,0Z"/>
  <path d="M10.83,7.7c-1.34-.36-2.39-1.41-2.75-2.75-.02-.08-.1-.14-.19-.14s-.17.06-.19.14c-.36,1.34-1.41,2.39-2.75,2.75-.08.02-.14.1-.14.19s.06.16.14.19c1.34.36,2.39,1.41,2.75,2.75.02.08.1.14.19.14s.17-.06.19-.14c.36-1.34,1.41-2.39,2.75-2.75.08-.02.14-.1.14-.19s-.06-.16-.14-.19Z"/>
</svg>