<?xml version="1.0" encoding="UTF-8"?>
<svg id="_レイヤー_1" data-name="レイヤー_1" xmlns="http://www.w3.org/2000/svg" version="1.1" viewBox="0 0 240.94 340.16">
  <!-- Generator: Adobe Illustrator 30.2.1, SVG Export Plug-In . SVG Version: 2.1.1 Build 1)  -->
  <defs>
    <style>
      .st0 {
        fill: #240000;
      }
    </style>
  </defs>
  <path class="st0" d="M229.09,64.12c0-14.57,8.8-19.91,8.8-36.1,0-13.79-11.18-24.97-24.97-24.97h0c-.59,0-1.16.03-1.74.07-12.89.68-17.74,8.73-30.01,8.73s-12.81-7.85-27.95-8.71c-.63-.05-1.27-.08-1.92-.08-.11,0-.22,0-.33,0-.18,0-.35,0-.53,0-14.23,0-18.94,8.8-31.75,8.8-10.96,0-12.58-6.43-24-8.29-1.62-.33-3.3-.5-5.01-.5-.22,0-.43.01-.65.02-.35,0-.7-.02-1.06-.02-14.23,0-18.94,8.8-31.75,8.8-8.83,0-11.59-4.17-18.29-6.77-3.03-1.3-6.36-2.03-9.86-2.03-.33,0-.65.01-.98.02-.52-.02-1.04-.02-1.59-.02v.13C12.88,4.47,3.06,15.1,3.06,28.02c0,16.18,8.8,21.53,8.8,36.1s-8.8,14.6-8.8,34.93c0,16.18,8.8,21.53,8.8,36.1s-8.8,14.6-8.8,34.93c0,16.18,8.8,21.53,8.8,36.1s-8.8,14.6-8.8,34.93c0,16.18,8.8,21.53,8.8,36.1s-8.8,14.6-8.8,34.93c0,13.79,11.18,24.97,24.97,24.97,4.2,0,8.16-1.04,11.63-2.87,5.61-2.58,8.61-6.09,16.69-6.09,12.23,0,17.09,8,29.89,8.72,1.12.15,2.25.24,3.41.24,2.57,0,5.04-.39,7.37-1.11,9.49-2.27,11.59-7.85,21.81-7.85,11.59,0,16.57,7.18,27.95,8.55,1.46.27,2.96.41,4.5.41,1.76,0,3.48-.19,5.14-.53,12.25-1.66,13.65-8.43,24.9-8.43,10.46,0,15.52,5.85,24.76,8.01,2.17.62,4.46.95,6.83.95,13.79,0,24.97-11.18,24.97-24.97,0-20.33-8.8-20.36-8.8-34.93s8.8-19.91,8.8-36.1c0-20.33-8.8-20.36-8.8-34.93s8.8-19.91,8.8-36.1c0-20.33-8.8-20.36-8.8-34.93s8.8-19.91,8.8-36.1c0-20.33-8.8-20.36-8.8-34.93Z"/>
</svg>