<?xml version="1.0" encoding="UTF-8"?>
<svg id="_レイヤー_1" data-name=" レイヤー 1" xmlns="http://www.w3.org/2000/svg" viewBox="0 0 340.2 340.2">
  <defs>
    <style>
      .cls-1 {
        fill: #231815;
      }
    </style>
  </defs>
  <path class="cls-1" d="M326.2886,143.7021c9.0993-14.7988,14.1989-32.1974,13.8989-50.8959C339.2875,42.2103,297.9909.8137,247.395.0137c-18.6985-.3-36.0971,4.7996-50.8959,13.8989-16.1987,9.9992-36.597,9.9992-52.7957,0C128.9045,4.8134,111.5059-.2862,92.8075.0137,42.2115.8137.8149,42.2103.015,92.8062c-.3,18.6985,4.7996,36.0971,13.8989,50.8959,9.9992,16.1987,9.9992,36.597,0,52.7957S-.285,228.6953.015,247.3937c.7999,50.5959,42.1966,92.7925,92.7925,92.7925,17.7541,0,36.0971-4.7996,50.8959-13.8989,16.1987-9.9992,36.597-9.9992,52.7957,0,14.7988,9.0993,32.1974,14.1989,50.8959,13.8989,50.5959-.7999,91.8926-42.1966,92.7925-92.7925.3-18.6985-4.7996-36.0971-13.8989-50.8959-9.9992-16.1987-9.9992-36.597,0-52.7957h0Z"/>
</svg>