<?xml version="1.0" encoding="UTF-8"?>
<svg id="_レイヤー_1" data-name="レイヤー 1" xmlns="http://www.w3.org/2000/svg" viewBox="0 0 917 3000">
  <path d="M917.5,2988.05v-24.08s0-47.05,0-47.05v-4.4s0-639.88,0-639.88v-507.24s0-1246.16,0-1246.16l-.78-82.39c-.23-24.41-3.18-47.58-9.63-70.95l-14.32-51.87-13.98-38.19c-12.4-28.36-27.12-54.82-44.96-80.14-11.99-17.01-23.89-33.08-38.46-47.75l-23.97-24.15-8.96-8.18c-29.99-27.37-72.32-55.11-109.32-72l-15.94-7.28c-27.78-11.46-55.86-20.36-85.43-26.63-25.03-5.31-49.57-7.84-75-9.17l-37.93.05c-22.91,1.35-44.98,3.34-67.6,7.86-30.11,6.01-58.76,14.43-87.18,26.11-45.2,18.58-94.93,48.7-130.6,81.76l-16.17,14.98c-2.3,2.13-4.35,4.24-6.48,6.54l-14.04,15.12c-33.63,36.19-63.64,85.91-82.52,131.68-15.33,37.16-27.04,81.16-30.71,120.91L-.04,443.83l-.46,23.45v2527.4c0,3.57,2.06,5.82,5.63,5.82l902.87.02c3.22,0,4.88.16,7.33-.94,1.47-.66,2.16-2.92,2.16-5.5v-2.03s.01-2.01.01-2.01v-2ZM910.48,471.05l.03,136c-1.33.88-2.94.94-4.17.95h-22.06c-1.24.01-2.83-.22-4.15-1.08l-.16-96.84.78-12.54,1.05-12.82,1.19-21.83,27.24-.02.25,8.17ZM824.03,2899.61l-150.93.08c-.77,0-1.5-1.15-1.23-2.15l-.02-328.33c0-3.18.32-4.07,1-5.94,14.74-1.05,25.29-6.23,36.22-15.85,9.97-11.29,14.84-21.59,16.16-37.16l95.79-.09c.98,0,1.78,0,2.18.32.66.54.84,1.07.84,2.85v386.26ZM824.03,2905.02v52.8h-152.19v-52.8h152.19ZM671.61,2177.49l7.43-8.8,10.57-11.47,12.05-13.02,12.03-13.03,12.03-13.04,11.04-12.02,12.02-13.04,13.06-13.99c10.56,2.43,20.53,4.52,31.2,4.01l4.97-.24-10.61-17.13-5.65-7.62c.99-2.19,2.5-3.58,4.02-5.23l10.09-10.95,10.61-11.45,8.73-9.29,8.81-9.21v491.57c.01,1.05-1.42,1.32-2.06,1.32l-90.99-.05-6.04-1c-1.24-13.67-7.11-26.59-17.16-35.8-17.31-15.86-34.15-14.18-35.52-15.03-.67-.41-.45-.87-.42-2.29l-.21-273.22ZM680.52,2028.68l.77-.64c6.66,8.64,14.61,16.1,23.7,22.89,11.69,8.69,23.66,15.78,37.15,22.35l-14.67,15.57-12.58,13.49-14.49,15.57-11.14,11.93-12.18,12.9c-.34-2.08,1.18-3.08,1.53-4.53l9.84-41.04c4.74-19.78-.62-49.18-7.94-68.49ZM680.07,2027.84l.25-.99c.7.85.07.95-.25.99ZM699.24,2042.7l-13.5-13.62c-5.82-5.87-9.87-12.68-14.02-20.07,16.55-.68,37.55,3.85,52.73,10.5,21.99,9.64,48.42,28.08,60.92,48.27l7.68,12.4c-10.79-.06-20.98-.84-31.19-3.83l-14.89-4.37c-17.37-7.41-33.24-17.18-47.73-29.29ZM691.82,2007.18c12.41-3.03,23.36-4.89,34.33-9.95l41.04-25.55,7.43,7.65,9.53,10.52,10.52,11.53,6.78,7.62-5.02,5.99-12.37,13.15-11.2,11.85c-1.37,1.45-2.35,2.91-4.36,4.22-10.81-9.15-22.22-17.02-35.04-23.67-13.15-6.82-26.56-10.19-41.64-13.36ZM771.6,2046.99l9.77-10.52,12.65-13.43,11.5-11.73c3.95-2.1,9.62-1.15,14.07-.68l-12.4,13.59-10.13,10.91-10.38,11.13-7.72,8.2-7.36-7.48ZM810.25,2004.71c-2.49-.04-4.6-.7-7.12.09l-8.68-9.21-9.59-10.46-4.61-5.39-9.59-10.87,8.34-8.32c2.09.93,2.95,2.52,4.38,4.04l5.32,5.68,8.98,10.07,9.04,10.02,6.57,7.43c1.99,2.25,4,3.82,5.72,7.05l-8.76-.14ZM780.18,1955.11c-7.43,8.61-15.74,15.59-24.96,22.19-21.12,15.12-41.22,24.05-67.4,26.99-4.86.69-9.05,1.46-15.13.75,2.6-6.28,6.24-11.4,10.58-16.51l4.13-4.85,12.44-12.69c10.29-10.5,22.67-18,36.38-23.76,12.63-5.44,25.7-8.22,39.32-9.89l18.6-2.27-13.95,20.03ZM688.48,1914.91l-9.8-39.6c.41-.33.5-.52.78-.66l7.86,8.45,9.58,10.57,9.02,10.01,10.54,11.53,7.62,8.41,5.61,6.4,10.81,12.33c-13.18,5.02-24.85,11.77-35.6,20.68l-5.49,4.55c-5.21,4.32-9.8,8.75-14.01,14.09-1.02,1.3-2.14,2.75-3.87,3.33,7.73-20.65,12.03-49.56,6.95-70.1ZM745.44,1941l-9.15-9.55-9.08-9.96-9.54-10.52-10.49-11.56-8.57-9.48-10.03-11.02-10.56-11.5-5.3-5.98-.05-19.87c2.46,1.65,3.54,3.79,5.4,5.79l6.75,7.25,7.08,7.97,9.47,10.57,9.02,10.03,7.56,8.48,9.5,10.55,9.06,10.01,6.6,7.41,5.4,6.12,9.96,11.56-13.04,3.7ZM678.58,1873.12l-.45,1.74c-.9-1.05-.07-1.06.45-1.74ZM677.28,1880.2l8.52,35.65c4.47,18.72,2.35,37.63-3.05,56l-6.62,18.98-7.14,13.27c-6.07-10.22-9.97-21.38-13.32-33.27-5.28-18.72-5.79-37.75-2.05-56.97l8.18-32.93c1.43-5.75,4.28-10.54,7.94-15.72,3.35,4.93,6.22,9.47,7.54,14.99ZM649.79,2098.16l9.3,38.71,1.63,4.45-.67,1.05-8-8.48-9.08-9.98-9.53-10.52-10.49-11.56-8.57-9.48-10.52-11.52-7.61-8.45,8.99-4.51c12.65-6.35,24.15-14.07,35.15-22.91l16.31-16.21-7.78,31.46c-1.65,12.78-2.14,25.37.88,37.95ZM665.58,2154.62l-.32,15.87-9.17-9.59-8.09-8.95-8.03-9.01-9.02-10.03-9.01-10.03-9.03-10.02-7.56-8.48-9.5-10.55-9.07-9.97-4.95-6.06,10.66-3.85,11.09,12.15,9.55,10.51,8.56,9.49,10.02,11.03,10.02,11.02,11.04,12.03,4.61,5.39,8.2,9.05ZM660.78,2143.91l.49-1.79c1.38,1.5-.27,1.25-.49,1.79ZM651.62,2030.05l-12.72,12.4c-8.9,8.68-19.67,14.46-30.54,20.59-19.9,11.23-42.23,17.74-64.08,15.97l12.51-18.45,15.04-15,20.96-15.25c16.62-12.1,36.17-18.13,56.73-20.53l16.52-.84c-3.78,8.13-8.28,15.13-14.41,21.11ZM666.42,1646.65l.24,190.6-8.38,9.1-12.54,13.51-12.04,13.03-11.04,12.01-12.03,13.03-12.02,13.04-11.07,11.99-13.14,14.36-29.14-4.45c-1.23-.19-2.22.63-1.99,1.96,3.85,7.58,7.97,14.46,13.29,21.24l-8.96,10.13-6.61,7.42-10.64,11.42-10.19,10.86c-2.61,2.79-4.66,6.01-7.8,8.03l-.02-479.88,103.04.03c1.21,0,2.03.79,2.67,1.63l47.75,68.34c1.12,1.6.15,2.8.14,4.3l-.18,41.94.68,6.36ZM665.35,2004.92c-21.42.59-45.17-6.09-62.79-16-10.69-6.01-20.32-12.58-29.71-20.43l-14.03-14-7.69-11.38-3.97-6.93,26.04,3.89c38.53,5.76,71.89,31.95,92.15,64.84ZM658.01,1989.4l.22-1.53c.66.44.47,1.32-.22,1.53ZM647.02,2006.86c-30.89,5.14-53.18,17.12-76.9,36.37l-6.1-6.3-9.3-10.22-9.07-9.99-8.37-9.02,6.31-7.39,11.59-12.46,10.24-10.8c1.99-2.1,3.4-4.47,6.07-6.12,12.58,10.65,25.99,19.28,41.02,26.01,11.23,5.03,22.45,7.53,34.5,9.93ZM657,1988.02l-3.75-4.64-16.15-15.92c-11.34-11.18-25-18.43-40.29-24.21l12.58-13.49,14.51-15.54,12.56-13.52,13.06-13.99,10.91-11.26-8.71,33.46c-6.41,24.64-3.18,54.06,6.1,78.02l-.83,1.09ZM649.27,1881.42l-12.58,13.49-14.51,15.55-12.56,13.51-14.85,16.22c-.75.82-1.93,1.74-3.29,1.37l-12.69-3.41,9.53-10.44,11.05-11.99,12.04-13.02,12.03-13.03,11.03-12.02,12.01-13.05,10.13-10.9,9.93-10.28.03,18.25c0,1.6-1.65,3.2-2.66,4.27l-14.63,15.47ZM529.15,1991.86l12.01-13.03,9.61-10.43,8.53-8.93,8.88,8.84-12.71,13.8-12.15,12.95-9.16,9.54c-5.61,1.31-11.19.4-17.2.41l12.18-13.14ZM535.23,2011.04l10.14,10.98,8.64,9.41,8.09,8.94,4.76,5.62-7.24,7.16-9.29-10.04-7.64-8.39-8.05-9.01-7.58-8.44c-1.83-2.04-3.45-3.72-4.9-6.11l13.08-.13ZM669.01,1591.87l-46.59-66.58c-1.18-1.69-2.48-2.84-1.89-5.12l49.27-68.21,49.41,70.67-50.19,69.24ZM671.92,1448.37l-.13-300.68c8.8-1.22,16.94-2.83,24.12-7.28,4.53-2.81,9-5.53,12.57-9.47,9.23-10.18,14.2-20.78,15.45-34.62,2.34-.87,4.43-1,6.99-1l91.52.06c1.37,2.54,1.35,4.08,1.58,7.1l.04,415.62-103.24.02-48.89-69.74ZM822.59,1089.98l-94.65.05c-1.34,0-3.03-.27-3.97-1.1-1.97-27.52-23.35-49.78-52.08-51.61l-.13-107.1c22.2.32,42.64,5.37,62.4,14.38,19.18,9.02,35.75,21.52,49.91,37.23,22.23,26.16,34.3,51.74,37.49,86.09l1.06,11.42c.35,3.77,1.03,7-.03,10.65ZM720.25,1092.38c0,28.35-23,51.33-51.37,51.33s-51.37-22.98-51.37-51.33,23-51.33,51.37-51.33,51.37,22.98,51.37,51.33ZM623.59,1061.13c-5.54,7.86-8.75,16.62-9.55,26.26-.12,1.44-1.05,2.64-2.7,2.64l-97.83.03c-1.33-3.75-.48-7.65.14-11.49l3.92-24.14c4.55-28,18.38-52.88,37.26-73.89l10.06-10.14c8.5-8.56,18.45-15.15,29.18-20.93,22.66-12.27,45.28-18.62,71.73-19.34v107.14c-17.21,1.3-33.05,9.8-42.21,23.86ZM512.81,1095.37l92.61-.06c2.96,0,5.27.09,8.46.99,2.11,27.92,24.42,49.88,52.84,51.15-.79,3.36-1.12,6.39-.91,9.83l.67,11.31.08,281.2-49.23,68.33-105.01-.11.02-414.52.48-8.12ZM666.53,2905v53.15s-154.22.02-154.22.02v-53.15s154.22-.02,154.22-.02ZM513.64,2899.69c-.55,0-1.11-.63-1.3-1.19v-130.99s0-255.18,0-255.18c0-1.51.78-2.15,2.06-2.15l98.8.06c2.76,0,1.36,11.88,8.16,24.08,9,16.14,24.56,27.08,43.72,28.7,1.49,2.19,1.45,3.81,1.46,6.42v330.18s-152.88.07-152.88.07ZM608.34,2504.87l-96.03-.08.02-492.33c1.21-1.99,3.51-1.71,4.81-.32l6.78,7.26,9,10.05,9.02,10.03,9.09,9.97,4.65,5.4c.43.5.86,1.42.46,1.99l-10.84,15.29c-2.93,4.13-5.96,9.48-5.95,9.61.12,1.9,5.29.68,7.98.62,10.04-.2,19.26-.99,29.31-3.72l9.88,10.47,7.1,7.94,9.47,10.57,9.03,10.02,8.78,9.77,7.81,8.73,9.49,10.55,9.02,10.02,9.06,10,7.11,7.89c1.58,1.75,2.3,3.24,2.3,5.93l.11,194.04.55,6.45.18,71.95c-28.57,2.63-48.77,22.97-51.6,50.95l-6.59.93ZM662.15,2136.85l-6.23-22.97c-6.21-22.89-7.53-49.2-.28-71.65l3.93-12.16,9.38-18.72c6.06,9.74,9.61,19.87,12.9,30.66,5.93,19.44,6.84,39.26,3.1,59.31l-8.38,33.81c-1.42,5.75-4.43,10.55-7.56,15.41l-6.86-13.67ZM673.95,2151.59l14.13-14.93,12.58-13.49,14.48-15.58,10.67-11.39,12.6-13.44,7.57-7.99,11.18,3.72-8.63,9.35-12.55,13.51-11.04,12.01-12.03,13.03-12.02,13.04-12,13.07-9.37,10.14-7.68,8-.26-13.35c-.04-2.26.89-4.11,2.39-5.69ZM822.74,2002.5l-6.3-6.84-9-10.06-7.55-8.49-9.52-10.54-8.26-8.99,7.79-10.74,7.59-11.59c1.05-1.6-2-3.64-5.39-3.15l-28.85,4.14-7.97-8.75-8.28-9.27-9.72-10.81-8.04-9-9.01-10.03-9.02-10.02-9.03-10.02-8.04-9-9.05-10.01-7.11-7.96c-1.82-2.04-4.17-4.12-5.37-6.76l-.04-71.06-.63-5.37-.2-162.75,6.15-9.17,44.89-62.15,101.28-.05-.02,127.34v347.31s.21,3.46.21,3.46c-.12.85-.86,1-1.49.32ZM811.62,1011.36c-8.71-16.46-19.57-31.19-33.07-43.9l-21.36-16.85c-6.87-5.42-14.64-8.77-22.69-12.43-17.9-8.14-36.49-12.6-56.25-13.8-77.77-4.73-147.49,47.49-165.39,123.25l-4.81,27.42-1.38,14.9h-46.16s.78-13.76.78-13.76l2.2-22.73c1.75-18.12,5.68-35.43,12.88-52.15l12.76-25.43c6.6-13.15,16.3-24,26.03-35.04l12.09-12.09c12.6-10.98,25.41-20.85,40.24-28.85,26.13-14.1,61.71-25.31,91.13-25.33h17.09c29.76-.04,65.42,11.22,91.86,25.61,13.71,7.46,25.73,16.44,37.51,26.62,12.4,10.72,22.49,22.91,32,36.16l12.96,21.16,4.63,9.47c7.93,16.06,13.59,32.76,15.31,50.68l4.38,45.77h-45.29s-.99-15.87-.99-15.87l-.91-10.09c-1.69-18.73-6.77-36.09-15.56-52.7ZM459.01,2504.89v-493.69s47.37,0,47.37,0v493.69s-47.37,0-47.37,0ZM506.38,2899.73h-47.38s0-389.55,0-389.55h47.38s0,389.55,0,389.55ZM459,2006.09v-482.16s47.37,0,47.37,0v482.16s-47.37,0-47.37,0ZM506.37,1518.07h-47.38s0-422.75,0-422.75h47.38s0,422.75,0,422.75ZM875.76,1095.2l1,422.94-46.77.11-1-422.94,46.77-.11ZM457.63,851.03c-214.33,0-388.71-176.09-388.71-392.52S243.29,65.98,457.63,65.98s388.71,176.09,388.71,392.52-174.38,392.52-388.71,392.52ZM355.19,76.79l-6.04-22.29c16.9-5.01,33.8-7.81,50.79-10.15l3.05,22.59c-16.15,2.27-32.1,5.56-47.8,9.85ZM352.16,77.64c-15.63,4.41-31.02,9.82-46.11,16.23l-8.99-21.78c16.57-6.82,32.43-12.11,49.11-16.87l6,22.41ZM303.24,95.09c-14.57,6.32-28.67,13.48-42.26,21.46l-12.19-20.78c14.85-8.73,29.78-16.16,45.51-22.56l8.94,21.88ZM258.21,118.19c-14.04,8.4-27.55,17.67-40.46,27.8-2.06-1.44-3.52-3.69-5.21-5.92l-10.31-13.58c14.44-10.95,28.89-20.36,43.94-29.28l12.03,20.98ZM214.87,148.27c-4.64,3.71-9.21,7.53-13.69,11.46l-.19.16c-7.33,6.26-14.79,13.35-22.12,20.49l-17.71-17.63,14.57-14.07,10.09-8.98c4.66-4.15,9.15-8.01,14.04-11.3l15.02,19.87ZM173.97,179.62c1.06,1.05,1.86,2.09,2.3,3.47-6.51,6.84-13.6,13.98-19.33,20.94l-12.18,14.8-20.05-15.22c11.01-14.04,21.97-26.51,34.39-38.77l14.88,14.78ZM142.91,221.47c-9.79,13.05-18.18,25.97-26.39,39.73l-21.72-12.61c8.88-15.02,17.93-28.72,28.16-42.52l19.95,15.4ZM115.45,263.18c-5.21,8.87-9.46,17.03-13.93,25.73l-3.28,7.27-4.42,9.88-23.07-8.97c6.14-15.87,13.9-30.56,22.71-46.29l22,12.38ZM72.6,303.96c6.32,2.52,12.09,4.62,18.93,8.28-5.68,15.08-10.7,29.15-14.63,44.04l-7.79-1.73-16.69-4.56c4.61-16.63,9.88-31.68,15.81-47.28,1.62-.42,3.09.24,4.37,1.24ZM75.88,359.44c-4.06,15.18-6.84,30.13-9.08,47.36l-25.01-2.62c2.12-17.23,5.13-33.97,9.77-51.17l24.31,6.43ZM67.11,429.64c-.68,9.56-1.02,19.19-1.02,28.87,0,11.39.48,22.72,1.42,33.95-1.82-21.03-1.98-41.86-.39-62.82ZM66.23,410.4c-1.71,16.04-3.11,30.78-3.1,46.77l-23.28.12c-1.06,0-1.83-.35-2.08-1.43.53-16.48,1.48-32.25,3.6-48.85l24.87,3.38ZM63.11,460.73c.12,16.14,1.27,31.1,3.44,48.59l-24.83,3.87c-2.48-17.77-3.43-34.57-3.97-52.49l25.36.04ZM66.97,512.95c2.33,16.16,4.98,31.4,9.47,47.24l-24.31,6.65c-4.69-16.71-7.74-33.27-10.03-50.69l24.88-3.19ZM67.65,494.25c.04.47.09.93.13,1.4-.04-.47-.09-.93-.13-1.4ZM72.6,530.81c1.12,6.1,2.37,12.16,3.77,18.2-.43-1.7-.85-3.41-1.26-5.12-.91-4.38-1.74-8.74-2.51-13.08ZM77.18,563.2c4.53,15.24,9.3,29.83,15.64,45.33l-23.12,9.83c-6.55-15.79-11.86-31.56-16.74-48.48l24.21-6.68ZM93.94,611.69l6.33,14.4,15.47,29.19-21.82,12.58-4.83-8.63-5.94-11.07-12.41-27,23.19-9.47ZM116.92,657.27c7.65,13,15.58,24.96,24.36,36.95,1.08.87,2.12,2.61,1.86,3.9l-13.93,10.83c-2,1.56-3.5,3.33-5.83,3.52-10.2-13.98-19.43-27.64-28.21-42.65l21.76-12.55ZM145.56,700.26l4.85,5.92,6.9,8.12,8.08,8.96,12.33,12.93-17.63,17.87-13.52-13.99-7.54-8.47-13.4-16.27,19.94-15.07ZM179.79,738.48l14.25,13.29,7.55,6.47,8.03,6.99,6.33,5.15-15.06,19.76-23.63-19.56-15.14-14.46,17.67-17.65ZM206.6,787.78l6.94-9.09,5.3-6.21c6.35,4.71,12.78,9.19,19.36,13.55,6.83,4.67,13.8,9.11,20.91,13.33l-12.45,21.56c-15.3-8.98-29.21-18.22-43.25-28.53.58-1.9,2-3.06,3.19-4.61ZM261.14,800.56c13.92,8.16,28.35,15.46,43.29,21.88l-9.13,22.38-23-9.95-15.74-8.28-7.98-4.28,12.57-21.75ZM307.44,823.72c14.91,6.26,30.1,11.55,45.53,15.87l-6.07,23.29-48.72-16.52,9.26-22.64ZM355.95,840.42c15.48,4.2,31.19,7.41,47.11,9.65l-2.97,23.5c-17.4-2.32-33.63-5.25-50.39-9.87l6.25-23.27ZM847.19,410.43l24.97-3.41,3.44,49.9-25.33.2-3.08-46.69ZM849.72,406.96c-2.38.33-3.13-.7-3.34-2.33-1.99-15.31-4.77-29.85-8.78-44.97l24.36-6.33c4.69,17.1,7.45,33.34,9.72,50.56l-21.96,3.08ZM836.78,356.52l-4.38-12.9c-2.68-8.93-5.69-17.77-9.01-26.52l-2.23-6.55,23.26-9.7,16.67,49.15-24.31,6.52ZM820.05,307.61c-5.38-12.86-11.03-25-17.98-37.31-1.13-2.11-2.3-4.2-3.47-6.28l21.51-12.68c8.99,15,16.4,30,23.11,46.69l-23.17,9.58ZM797.4,261.84c-8.06-14.18-16.98-27.81-26.73-40.88l19.55-15.17c10.41,13.8,19.31,27.44,28.76,43.25l-21.58,12.8ZM768.62,218.26c-9.72-12.79-20.24-25.02-31.55-36.65l17-17.05c12.39,12.4,23.66,24.74,34.37,38.77l-19.82,14.94ZM736.06,178.48c-.39.39-.81.67-1.24.81-.11-.11-.22-.23-.33-.34-11.38-11.49-23.36-22.19-35.88-32.1l14.55-18.95c13.81,10.61,26.37,22,38.81,34.6l-15.91,15.97ZM696.2,144.98c-12.86-10-26.29-19.16-40.26-27.45l11.67-20.16c15.14,9.07,28.92,18.21,43.13,28.66l-14.54,18.95ZM653.4,116.02c-13.94-8.13-28.4-15.42-43.36-21.8-.15-.06-.31-.13-.46-.19.06-.19.12-.38.2-.57l8.72-20.43,17.53,7.55,13.32,6.77,8.52,4.52,7.19,4.02-11.66,20.15ZM606.74,92.83c-15.12-6.29-30.52-11.6-46.18-15.9l5.91-21.94c16.74,4.75,32.47,9.99,49.07,16.72l-8.8,21.12ZM557.83,76.19c-15.89-4.24-32.03-7.45-48.37-9.63l2.84-22.25c16.96,2,33.87,5.07,51.27,9.86l-5.73,22.02ZM556.75,841.1l6.15,22.59c-16.96,5.2-33.41,7.45-50.68,10.09l-3.07-23.3c16.08-2.13,31.96-5.26,47.6-9.38ZM559.85,840.27c15.47-4.22,30.7-9.41,45.64-15.57l9.21,21.82-48.8,16.5-6.05-22.75ZM608.35,823.5c.56-.24,1.13-.47,1.69-.71,14.73-6.29,28.98-13.44,42.72-21.43l12.03,20.61-12.72,7.18-34.69,16.27-9.04-21.93ZM655.5,799.74c13.51-7.99,26.52-16.8,38.99-26.39l15.16,19.23-41.92,27.84-12.23-20.68ZM697.13,771.3c12.61-9.87,24.66-20.54,36.11-32.01l17.55,17.45c-1.08,1.82-2.81,2.84-4.44,4.25l-34.19,29.73-15.03-19.42ZM735.69,736.83c6.02-6.13,11.82-12.42,17.39-18.88l2.09-2.3,12.52-14.95,19.72,15.11-28.41,32.65-5.78,5.97-17.54-17.6ZM769.36,698.09l1.66-2.5c8.37-11.25,16.11-22.94,23.23-35.02l2.65-3.99,21.78,12.52-29.29,44.35-20.02-15.37ZM798.13,654.52c8.19-14.23,15.15-27.55,21.11-42.61l23.26,9.47c-6.04,15.67-13.5,29.71-22.42,45.55l-21.95-12.41ZM820.55,609.03l15.65-45.81,24.35,6.31-16.82,49.07-23.18-9.57ZM837.15,560.25c4.09-15.45,7.17-30.88,9.2-47.08l25.06,3.1-8.09,43.26-2.19,7.09-23.96-6.37ZM846.86,510c2.01-16.58,3.4-32.37,3.43-49.26l25.28-.04-3.67,52.52-25.03-3.23ZM878.21,2004.87h-48.24v-480.81h48.24v480.81ZM879.54,2010.18v494.71s-49.56,0-49.56,0v-494.71s49.56,0,49.56,0ZM880.63,2899.72h-50.65v-389.54h50.65v389.54ZM880.73,2905l.02,52.26-50.77.02-.02-52.26,50.77-.02ZM893.85,343.17l6.93,27.15c4.83,18.94,7.62,37.84,8.34,57.44l1.07,29.02-27.32.08c-.83-30.53-3.73-59.94-10.18-89.75-5.05-23.33-12.47-45.05-20.88-67.26l11.43-5.28,13.22-5.3c7.08,17.9,12.7,35.46,17.4,53.9ZM783.06,145.25c28.21,29.64,52.95,62.81,72.36,98.96l18.82,39.39-24.78,10.43-14.36-30.64c-14.1-26.34-29.91-51.12-48.79-74.26l-19.94-22.28-5.83-6.58,18.44-18.39c2.02.1,2.9,2.14,4.07,3.37ZM633.43,42.46l9.49,4.26,33.33,16.81c29.05,14.65,68.45,44.43,92.1,67.19l6.93,6.67-18.99,19-10.06-9.49-10.47-9.6-9.77-8.44c-27.2-21.64-56.37-40.09-87.71-55.23l-15.22-6.73,5.19-13.18,5.19-11.26ZM460.09,7.07l26.08,1.17,10.03.74,11.96,1.18,6.08.71,33.94,5.34c27.45,5.79,53.83,13.83,79.34,23.96l-10.17,24.38c-45-17.97-94.62-29.41-142.79-30.98l-14.5-.47.04-26.03ZM470.18,40.72l18.04.91,10.16,1.03c3.68.37,7.04.26,10.98,1.59l-2.94,21.91c-15.97-2-32.13-3.01-48.45-3.02v-22.97s12.21.55,12.21.55ZM455.48,63.16c-16.65.09-33.14,1.22-49.43,3.38l-3.16-22.54c17.62-2.4,34.4-3.38,52.73-3.82l-.14,22.98ZM454.03,7.19l.04,25.94c-55.66.99-105.77,10.66-157,31.1l-2.68-5.87-7.03-17.56c54.78-21.81,107.52-32.54,166.67-33.61ZM152.66,126.54c16.9-14.95,33.71-28.92,52.56-41.64,24.2-16.33,49.36-29.75,76.33-41.67l5.47,12.44c1.5,3.41,3.18,6.52,4.12,10.84l-22.17,10.12-13.11,6.91c-33.9,17.87-70.5,44.27-97.66,72.13l-17.62-17.55,12.08-11.58ZM126.52,152.71l9.4-9.87c2.19,1.11,3.54,2.24,4.97,3.68l11.01,11.11c.59.6,1.79,2.49,1.03,3.25-31.51,31.61-53.7,63.63-74.72,102.71-5.62,10.45-13.39,29.65-14.84,29.94-.94.19-1.75-.31-2.73-.73l-18.69-7.98c18.64-45.75,51.08-96.96,84.56-132.13ZM7.07,443.01l2.05-22.05c1.65-17.67,3.54-34.53,7.03-52.1,5.39-27.1,13.3-52.85,23.47-78.39l8.96,3.44,13.23,5.59c-8.25,21.73-15.52,42.77-20.53,65.43-6.66,30.12-9.93,59.81-10.55,91.72l-23.92.26.26-13.9ZM6.66,462.94l24.15-.04c.16,13.64.98,26.56,2.44,39.99.74,6.82,1.53,13.15,1.44,20.19l.24,83.43c-1.17,1.59-2.69,1.42-4.04,1.42l-21.01.04c-.93,0-3.23-.28-3.23-1.89v-143.15ZM6.65,613.3h29.54v476.75H6.65v-476.75ZM6.65,1095.31h30.72v422.84H6.65v-422.84ZM6.65,1524.05h32.26v480.9H6.65v-480.9ZM6.65,2010.18h33.6v494.7H6.65v-494.7ZM40.89,2993.33H6.64s0-28.18,0-28.18h34.24s0,28.18,0,28.18ZM41.54,2959.87H6.65v-449.7h34.89v449.7ZM41.83,937.73l-.68-228.28-.34-122.21v-31.49c-.63-1.92,2.02-1.88.98.19,7.66,29.47,16.84,57.41,29.79,84.86,15.11,32.03,34.27,61.26,56.15,88.83l9.02,10.23,12.57,13.48,13.03,13.04,12.94,12.13c18.46,17.29,57.43,44.27,79.82,55.45l25.51,12.74c27.06,11.69,54.25,21.35,83.27,27.78,29.57,6.55,58.82,9.54,89.16,10.3v101.07s-.02,47.27-.02,47.27c.93,1.26-.76,2.05-.74,1.32-6.57-35.62-23.94-67.39-46.88-94.09l-20.04-20.06c-25.72-22.08-52.78-36.7-85.8-45.36-14.96-3.93-29.69-6.42-45.05-6.5l-14.13-.08c-15.64-.08-30.73,2.62-45.96,6.57l-31.16,10.84-22.75,11.42c-12.07,6.06-22.19,14.76-32.44,23.62l-18.53,18.53c-9.57,9.57-17.26,20.48-23.65,32.43l-8.75,16.36c-7.19,13.45-11.12,27.57-14.99,42.13l-.33-92.52ZM94.08,2013.14c-.29-1.13.81-1.42,1.38-.62l7.72,8.43,7.09,7.96,9.49,10.56,8.57,9.48,8.62,9.48-12.28,17.27-6.04,9.98c11.68.29,25.19-.55,38.62-4.06l6.65,6.95,9,10.04,7.56,8.48,9.49,10.56,8.77,9.78,9.27,10.27,7.57,8.48,9.49,10.55,9.04,10.01,8.15,9c1.05,1.16,3.21,2.7,3.21,4.93l.22,238.97.62,4.29-.06,27.76c0,1.02-1.6,1.66-2.53,1.75-26.64,2.75-46.57,23.86-49.11,50.39-5.46,1.32-10.06,1.05-15.39,1.05l-85.08-.08-.02-327.13v-2.47s-.01-162.06-.01-162.06ZM401.08,1517.93l-100.08-.09-49.36-70.73-.08-299.62c28.93-1.45,50.47-22.5,53.18-51.07,2.39-.85,4.42-1.1,7-1.1h88.87c1.04,1.71,1.12,3.04.42,5.27l.04,417.34ZM268.04,2060.55l-7.87-28.78.9-.75c.83,1.63,2.13,3.29,3.7,4.83l13.2,12.89c13.23,10.97,27.43,19.61,43.25,27.22l-13.46,14.37-13.53,14.52-14.02,15.05-11.61,12.46-10.88,11.26,9.65-38.47c3.69-14.71,3.19-29.69.66-44.6ZM267.89,2138.66l12.58-13.49,14.49-15.58,10.67-11.39,12.6-13.44,6.83-7.34,8.55,2.94c.99.34,1.89.69,2.12,1.6l-7.34,7.9-12.58,13.51-11.05,12-12.03,13.03-12.01,13.06-11.87,13.16-9.5,10.03-7.73,7.98-.27-13.34c-.05-2.31.86-4.16,2.41-5.71l14.14-14.92ZM312.43,2068.42c-25.42-14.08-46.62-30.31-61.14-56.62,36.47.76,63.53,12.44,91.25,34.52,10.06,8.01,18.35,17.2,24.84,28.27l4.68,8.73c-21.12-.77-41.68-4.6-59.63-14.89ZM271.11,2010.35c14.15-3.06,26.67-5.81,39.15-11.83l37.24-24.12,5.92,5.94,8.54,9.51,10.03,11.02,9.28,10.1-9.71,10.84-9.11,9.91-11.19,11.9c-.89.95-1.88,2.83-3.75,3.15-23.16-19.41-46.47-31.44-76.42-36.44ZM350.82,2049.66l10.37-11.19,13.07-13.98,10.84-11.46,14.04.14-12.12,13.05-10.59,11.45-8.99,9.54-9.12,9.85-7.5-7.4ZM386.83,2007.03c-3.02.04-5.38-1.53-7.35-3.63l-6.3-6.72-10.03-11.05-6.6-7.42-5.71-6.72,8.62-8.57,7.98,8.42,9.01,10.03,7.57,8.48,9.53,10.52,5.49,6.49-12.22.17ZM344.75,1972.94l-22.38,15.81c-16.78,10.23-35,16.56-54.59,18.62-4.91.77-9.12,1.49-15.32.75,2.55-6.13,5.96-11.12,10.21-15.99l5.6-6.41c14.46-17.83,43.99-37.7,65.84-41.39l29.27-4.93,10.33-.77-10.17,15.06c-5.05,7.48-11.43,14.02-18.81,19.24ZM268.22,1918.05l-9.18-37.84-1.71-3.84.94-.67,6.88,7.39,10.03,11.12,8.56,9.48,10.02,11.03,10.03,11.02,10.53,11.53,6.97,7.93c-19.87,6.89-37.3,19.95-51.84,34.64-2.81,2.84-4.41,6.13-8.05,8.33l6.03-21.31c4.53-15.99,3.71-32.37.79-48.8ZM256.54,1875.41l.58-.94c1.36.65.2,1.99-.58.94ZM325.46,1943.91l-10.86-11.93-9.08-9.98-10.01-11.04-10.5-11.54-8.57-9.48-10.52-11.53-7.63-8.49c-1.87-2.08-4.83-4.46-5.73-7.14l.05-19.36,9.55,10.71,9.02,10.01,7.56,8.48,9.49,10.56,9.02,10.03,9.04,10.02,7.56,8.48,9.51,10.55,9.62,10.38,6.18,7.55-13.67,3.74ZM256.76,1882.65l8.9,37.2c3.34,19.45,2.06,38.48-3.95,57.72l-7.53,20.1-5.54,9.63c-14.7-26.54-22.34-62.7-15.07-91.33l8.52-33.54,7.36-14.27c3.09,5.06,6.05,9.19,7.32,14.5ZM229.65,2102.15l10.9,43.29-9.25-10.01-10.02-11.02-10.25-11.3-8.81-9.73-10.51-11.54-10.08-10.97-4.58-5.49,10.11-5.4c11.61-6.2,22.38-13.16,32.54-21.51l16.73-16.68-6.11,22.21c-4.33,15.72-3.55,31.94-.65,48.16ZM245.44,2156.57l.07,15.85c-1.8.1-2.21-1.02-3.33-2.27l-7.37-8.15-8.01-9.03-9.01-10.04-9.01-10.03-9.03-10.02-7.56-8.48-9.49-10.55-9.54-10.52-5.11-5.89c-1.93-2.22-3.9-3.97-5.8-6.9l10.29-3.73,9.35,9.82,9.08,9.96,8.55,9.5,10.49,11.56,9.55,10.5,10.5,11.54,9.11,9.97,6.29,6.9ZM233.23,2030.87c-13.73,17.42-38.91,33.1-59.93,42.71-12.9,5.9-32.05,9.15-45.78,9.09-1.16,0-2.24.63-3.44-.79l12.97-18.85c9.05-10.81,19.76-18.9,31.35-26.87,18.91-13,39.87-21.17,62.81-23.46l14.68-.59-6.05,10.36-6.62,8.4ZM228.07,1942.89l.69,11c.78,12.57,4.56,24.25,8.74,36.1l-.67.98-5.76-6.57-12.12-11.94-6.57-5.5c-10.93-9.15-22.81-15.95-36.69-20.79l13.53-14.41,13.52-14.52,14.02-15.05,12.11-12.94,12.37-12.87-2.2,6.02-6.99,27.04c-2.84,10.99-4.69,22.05-3.97,33.46ZM229.09,1883.43l-12.58,13.49-14.5,15.57-12.07,13-11.18,11.86-6.93,7.48-14.19-3.67,10.5-11.42,11.05-11.99,12.04-13.03,12.03-13.03,11.03-12.02,12.01-13.05,10.13-10.9,9.9-10.25.03,18.22c0,1.61-1.62,3.2-2.64,4.28l-14.63,15.47ZM182.29,1951.86c18.66,8.47,33.56,19.97,47.23,35.03l15.3,20.94c-5.82,1.31-10.92-.02-16.43-.76-29.21-3.53-55.44-17.85-77.4-36.86-9.67-8.37-18.08-18.53-23.86-30.97l19.88,3c12.23,1.84,24.05,4.51,35.28,9.61ZM237.67,1992.73l.37-1.81c.53.8.3.67-.37,1.81ZM226,2010.17c-29.81,4.96-52.81,17.02-75.53,35.86l-8.6-9.11-9.31-10.21-9.09-9.98-6.38-7.01,6.34-7.41,11.59-12.46,10.24-10.8,5.24-5.38c11.76,9.63,23.86,17.9,37.55,24.57,12.09,5.89,24.24,8.69,37.97,11.94ZM144.25,1967.91c.8.86,3.43,2.24,2.65,3.65l-11.11,12.04-12.56,13.49-7.19,7.59-17.19.26,9.64-10.57,12.84-14.17,10.66-11.39,6.74-6.8,5.52,5.91ZM113.23,2011.09l9.5,10.35,8.59,9.5,10.55,11.5,5.32,6.17-7.99,7.25-9.66-11.12-7.55-8.5-10-11.06-5.6-6.4c-2.29-2.62-4.6-4.61-6.47-7.69h13.32ZM248.82,1590.81l-49.46-70.49,50.23-69.4,49.25,70.7-50.02,69.19ZM308.76,1090.03c-1.37,0-2.98-.28-4.04-1.13-1.41-20.41-13.56-38.07-32.18-46.74-6.7-3.12-13.52-4.18-20.96-5.1l.03-108.97c25.69.72,47.87,7.19,70.07,18.76,10.34,6.02,20.3,12.02,28.69,20.45l11.53,11.58c11.86,11.92,32.16,44.51,34.14,61.18l3.53,29.68.93,20.24-91.74.06ZM301.04,1092.38c0,28.35-23,51.33-51.37,51.33s-51.37-22.98-51.37-51.33,23-51.33,51.37-51.33,51.37,22.98,51.37,51.33ZM245.59,1035.97c0,1.26-1.58,1.76-2.39,1.83-24.84,2.05-46.37,23.95-48.23,48.81-.17,2.23-1.39,3.44-4.41,3.44l-96.21-.06c-1.19,0-1.14-2.1-1.09-2.69l1.14-12.8,2.97-26.05c2.7-23.69,19.81-51.21,35.71-69.53l12.11-12.06c18.97-18.9,57.08-35.62,84.43-37.73l15.99-1.23v108.08ZM94.22,1095.33h94.97s5.49.96,5.49.96c2.02,27.21,23.22,48.77,50.93,51.1l.03,127.04c0,1.88-.08,2.88.64,5.21l.03,166.96c0,2.44-1.26,4.01-2.54,5.69l-47.53,65.85-102.22-.04v-416.51c-.77-2.59-.88-4.23.19-6.27ZM197.35,1524.09l48.23,69.05.08,83.99c.54,1.83.73,3.23.63,5.38l.14,156.76-8.33,9.08-12.55,13.51-12.04,13.03-11.04,12.02-12.03,13.03-12.02,13.03-12.01,13.05-11.14,12.4c-.7.78-2.21,1.85-3.05,1.73l-28.77-4.31c-.67,2.59.37,4.32,1.53,6.25l3.77,6.23,7.12,10.38-6.99,7.99-8.12,8.91-12.55,13.5-14.09,15.11-.1-480.11,103.32-.02ZM242.13,2140.57l-9.78-39.32c-5.36-21.57-.18-49.14,7.8-70.33l8.52-16.5c7.39,12.57,11.88,25.53,15.18,39.5,3.94,16.72,3.97,33.44.84,50.39l-8.36,33.77c-1.42,5.73-4.19,10.57-7.57,15.33-2.78-4.23-5.46-8.1-6.64-12.84ZM251.64,2450.67l-.25-271.17,7.47-8.81,10.34-11.19,12.28-13.28,12.04-13.03,12.5-13.55,10.55-11.51,11.55-12.51,12.57-13.5c10.87,2.45,21.12,3.82,32.16,4.17l4.97-.4-7.23-11.48c-3.09-4.9-5.82-9.72-9.64-13.83l5.65-6.67,8.63-9.41,12.52-13.55,10.93-12.15c.87-.96,1.7-2.05,3.06-1.39l.03,485.3c0,1.07-.46,2.15-1.18,2.15l-90.64-.02-5.28-.98c-1.66-20.39-14.08-37.75-32.76-46.14-9.67-4.35-21.27-4.64-21.22-5.18.03-.36.43-.89.98-1.84ZM305.03,2510.23l96.74.03v389.37s-150.1.04-150.1.04l-.02-335c0-2.28,11.25-1.31,22.46-7l13.18-8.9c4.67-4.5,8.26-9.73,11.6-15.35,3.55-7.26,5.23-14.75,6.14-23.18ZM401.79,2905.01v53.91h-150.15v-53.91h150.15ZM400.3,2001.96l-6.49-6.85-7.56-8.48-9.01-10.04-9.54-10.52-5.26-6.2,14.91-22.08c.7-1.04-2.55-2.83-3.67-2.67l-30.08,4.22-10.94-12.37-7.1-7.95-9.49-10.56-9.01-10.03-9.03-10.02-8.04-9-9.02-10.03-9.02-10.03-9.05-10-7.66-8.47c-.88-.98-2.77-2.66-2.78-4.27l-.15-40.96-.61-4.28-.19-195.96c0-2.11.91-3.06,1.9-4.43l48.92-67.71,75.26.09,7.26.6,16.2.16.05,439.52.72,8.34-.17,29.23c1,1.44-.72,2.34-1.36.75ZM397.68,1024.16c-6.48-15.79-15.07-30.08-25.98-43.03l-5.52-6.55-11.56-11.57c-10.42-10.42-22.98-18.17-36.36-24.59l-26.83-10.37c-10.34-4-21.37-4.75-32.95-5.64-16.5-1.28-32.08.25-47.86,3.86-24.2,5.54-54.19,20.61-71.3,37.74l-10.08,10.09c-13.35,13.36-33.56,47.02-36.12,64.99l-4.4,30.84-.94,10.01c-.32,3.42-.5,6.31,0,10l-44.88.12.21-14.97,4.06-36.8c1.74-15.72,7.3-29.82,13.88-44.26,9.53-20.9,22.49-39.29,37.94-56.16l8.64-8.57c31.99-31.75,87.48-54.83,132.81-54.83h13.1c15.63,0,30.63,2.63,45.71,6.62,16.47,4.36,31.54,10.65,46.51,18.71,15.21,8.18,28.36,18.52,41.16,29.9l9.58,9.67c16.33,16.49,28.48,35.97,37.73,57.43,6.91,15.08,11.84,30.21,13.4,46.69l4.4,46.55h-45.07s-1.45-23.53-1.45-23.53l-1.33-13.5c-1.36-9.93-2.68-19.53-6.5-28.84ZM42.47,1095.29l45.9.03-.26,422.86-45.9-.03.26-422.86ZM43.59,1524.06h44.51s.05,481.01.05,481.01h-44.51s-.05-481.01-.05-481.01ZM44.9,2010.68h43.23s.05,494.21.05,494.21h-43.23s-.05-494.21-.05-494.21ZM46.46,2510.17h41.72s.03,389.55.03,389.55h-41.72s-.03-389.55-.03-389.55ZM88.24,2959.36l-40.64.04-.05-54.39,40.64-.04.05,54.39ZM246.34,2993.31H46.8v-28.48h199.54v28.48ZM94.13,2905.02l152.2-.02v54.26s-152.19.02-152.19.02v-54.26ZM245.08,2899.69l-150.93-.07-.03-389.34,97.11-.12c2.18,0,3.35.65,3.58,2.72,1.22,14.29,7.55,27.08,18.34,36.54,5.58,4.88,11.69,9.51,18.92,11.06l13.25,2.84.99,5.27.04,328.96c.24.99-.48,2.15-1.25,2.15ZM198.29,2508.17c0-28.35,23-51.34,51.38-51.34s51.38,22.98,51.38,51.34-23,51.34-51.38,51.34-51.38-22.98-51.38-51.34ZM453.07,2993.31h-201.44v-28.98h201.44v28.98ZM407.1,2958.37v-53.36h45.96v53.36h-45.96ZM407.08,2899.72v-389.55s45.98,0,45.98,0v389.55s-45.98,0-45.98,0ZM407.07,2504.89l-.03-492.84h46.02s.03,492.84.03,492.84h-46.02ZM407.02,2006.94v-483.25h46.04v483.25h-46.04ZM407.02,1518.08l-.69-422.75,46.72-.08.69,422.75-46.72.08ZM439.97,877.15l-36.97-3.29,3.27-23.35c16.2,2.14,32.61,3.26,49.17,3.35l.16,23.2c-5,1.43-10.31.57-15.62.1ZM457.97,853.86c16.17-.01,32.18-1.01,48.01-2.97l3.17,23.28-18.01,1.89-17.47,1.08-15.7.52v-23.79ZM477.56,884.2l51.61-5.74,12.02-2.04c31.68-6.7,61.8-16.54,91.5-29.72,36.26-16.1,85.47-47.56,113.17-75.22l23.09-23.06c28.06-28.03,59.26-76.92,75.73-113.64,12.83-28.61,21.9-57.74,29.27-87.97l.39,122.58.67,227.31.32,119.21-.11,18.33c.24,1.04-1.37.85-.72-.17-2.57-12.94-5.67-25.28-11.47-36.93l-10.69-21.48c-6.78-13.63-16.48-25.08-26.36-36.61l-17.12-17.06c-11.56-9.9-23.38-18.78-36.79-26.28-28.52-15.95-65.76-27.19-98.36-27.28l-13.07-.03c-14.64-.04-28.57,2.37-42.89,5.7-30.29,7.03-65.85,24.36-89.15,45.43l-8.22,7.43-6.04,6-7.67,8.4c-22.97,25.18-41.21,62.55-47.42,95.89l-.29-152.36,18.6-.66ZM458.98,2905.02h47.39v53.22h-47.39v-53.22ZM666.55,2993.34l-207.56-.03v-29.61s207.56.03,207.56.03v29.61ZM618.56,2508.18c0-28.35,23-51.33,51.37-51.33s51.37,22.98,51.37,51.33-23,51.33-51.37,51.33-51.37-22.98-51.37-51.33ZM671.78,2993.34v-30.28s209.39-.02,209.39-.02v30.28s-209.39.02-209.39.02ZM910.52,2993.33h-23.42v-30.48h23.42v30.48ZM910.52,2956.95h-24.85v-446.8h24.85v446.8ZM910.52,2504.89h-26.4v-494.72h26.4v494.72ZM910.52,2004.87h-27.64v-480.8h27.64v480.8ZM910.52,1518.15h-28.89v-422.83h28.89v422.83ZM910.52,1090.03h-30.41v-476.72h30.41v476.72Z"/>
</svg>