<?xml version="1.0" encoding="UTF-8"?>
<svg id="_レイヤー_1" data-name="レイヤー 1" xmlns="http://www.w3.org/2000/svg" viewBox="0 0 917 3000">
  <path d="M811.62,1011.36c-8.71-16.46-19.57-31.19-33.07-43.9l-21.36-16.85c-6.87-5.42-14.64-8.77-22.69-12.43-17.9-8.14-36.49-12.6-56.25-13.8-77.77-4.73-147.49,47.49-165.39,123.25l-4.81,27.42-1.38,14.9h-46.16s.78-13.76.78-13.76l2.2-22.73c1.75-18.12,5.68-35.43,12.88-52.15l12.76-25.43c6.6-13.15,16.3-24,26.03-35.04l12.09-12.09c12.6-10.98,25.41-20.85,40.24-28.85,26.13-14.1,61.72-25.31,91.13-25.33h17.09c29.76-.04,65.42,11.22,91.86,25.61,13.71,7.46,25.73,16.44,37.51,26.62,12.4,10.72,22.49,22.91,32,36.16l12.96,21.16,4.63,9.47c7.93,16.06,13.59,32.76,15.31,50.68l4.38,45.77h-45.29s-.99-15.87-.99-15.87l-.91-10.09c-1.69-18.73-6.77-36.09-15.56-52.7ZM397.68,1024.16c-6.48-15.79-15.07-30.08-25.98-43.03l-5.52-6.55-11.56-11.57c-10.42-10.42-22.98-18.17-36.36-24.59l-26.83-10.37c-10.34-4-21.37-4.75-32.95-5.64-16.5-1.28-32.08.25-47.86,3.86-24.2,5.54-54.19,20.61-71.3,37.74l-10.08,10.09c-13.35,13.36-33.56,47.02-36.12,64.99l-4.4,30.84-.94,10.01c-.32,3.42-.5,6.31,0,10l-44.88.12.21-14.97,4.06-36.8c1.74-15.72,7.3-29.82,13.88-44.26,9.53-20.9,22.49-39.29,37.94-56.16l8.64-8.57c31.99-31.75,87.48-54.83,132.81-54.83h13.1c15.63,0,30.63,2.63,45.71,6.62,16.47,4.36,31.54,10.65,46.51,18.71,15.21,8.18,28.36,18.52,41.16,29.9l9.58,9.67c16.33,16.49,28.48,35.97,37.73,57.43,6.91,15.08,11.84,30.21,13.4,46.69l4.4,46.55h-45.07s-1.45-23.53-1.45-23.53l-1.33-13.5c-1.36-9.93-2.68-19.53-6.5-28.84ZM506.37,1518.07h-47.38s0-422.75,0-422.75h47.38s0,422.75,0,422.75ZM6.65,1095.31h30.72v422.84H6.65v-422.84ZM248.82,1590.81l-49.46-70.49,50.23-69.4,49.25,70.7-50.02,69.19ZM407.02,1518.08l-.69-422.75,46.72-.08.69,422.75-46.72.08ZM910.52,1518.15h-28.89v-422.83h28.89v422.83ZM669.01,1591.87l-46.59-66.58c-1.18-1.69-2.48-2.84-1.89-5.12l49.27-68.21,49.41,70.67-50.19,69.24ZM878.21,2004.87h-48.24v-480.81h48.24v480.81ZM312.43,2068.42c-25.42-14.08-46.62-30.31-61.14-56.62,36.47.76,63.53,12.44,91.25,34.52,10.06,8.01,18.35,17.2,24.84,28.27l4.68,8.73c-21.12-.77-41.68-4.6-59.63-14.89ZM344.75,1972.94l-22.38,15.81c-16.78,10.23-35,16.56-54.59,18.62-4.91.77-9.12,1.49-15.32.75,2.55-6.13,5.96-11.12,10.21-15.99l5.6-6.41c14.46-17.83,43.99-37.7,65.84-41.39l29.27-4.93,10.33-.77-10.17,15.06c-5.05,7.48-11.43,14.02-18.81,19.24ZM256.76,1882.65l8.9,37.2c3.34,19.45,2.06,38.48-3.95,57.72l-7.53,20.1-5.54,9.63c-14.7-26.54-22.34-62.7-15.07-91.33l8.52-33.54,7.36-14.27c3.09,5.06,6.05,9.19,7.32,14.5ZM233.23,2030.87c-13.73,17.42-38.91,33.1-59.93,42.71-12.9,5.9-32.05,9.15-45.78,9.09-1.16,0-2.24.63-3.44-.79l12.97-18.85c9.05-10.81,19.76-18.9,31.35-26.87,18.91-13,39.87-21.17,62.81-23.46l14.68-.59-6.05,10.36-6.62,8.4ZM182.29,1951.86c18.66,8.47,33.56,19.97,47.23,35.03l15.3,20.94c-5.82,1.31-10.92-.02-16.43-.76-29.21-3.53-55.44-17.85-77.4-36.86-9.67-8.37-18.08-18.53-23.86-30.97l19.88,3c12.23,1.84,24.05,4.51,35.28,9.61ZM242.13,2140.57l-9.78-39.32c-5.36-21.57-.18-49.14,7.8-70.33l8.52-16.5c7.39,12.57,11.88,25.53,15.18,39.5,3.94,16.72,3.97,33.44.84,50.39l-8.36,33.77c-1.42,5.73-4.19,10.57-7.57,15.33-2.78-4.23-5.46-8.1-6.64-12.84ZM43.59,1524.06h44.51s.05,481.01.05,481.01h-44.51s-.05-481.01-.05-481.01ZM699.24,2042.7l-13.5-13.62c-5.82-5.87-9.87-12.68-14.02-20.07,16.55-.68,37.55,3.85,52.73,10.5,21.99,9.64,48.42,28.08,60.92,48.27l7.68,12.4c-10.79-.06-20.98-.84-31.19-3.83l-14.89-4.37c-17.37-7.41-33.24-17.18-47.73-29.29ZM780.18,1955.11c-7.43,8.61-15.74,15.59-24.96,22.19-21.12,15.12-41.22,24.05-67.4,26.99-4.86.69-9.05,1.46-15.13.75,2.6-6.28,6.24-11.4,10.58-16.51l4.13-4.85,12.44-12.69c10.29-10.5,22.67-18,36.38-23.76,12.63-5.44,25.7-8.22,39.32-9.89l18.6-2.27-13.95,20.03ZM677.28,1880.2l8.52,35.65c4.47,18.72,2.35,37.63-3.05,56l-6.62,18.98-7.14,13.27c-6.07-10.22-9.97-21.38-13.32-33.27-5.28-18.72-5.79-37.75-2.05-56.97l8.18-32.93c1.43-5.75,4.28-10.54,7.94-15.72,3.35,4.93,6.22,9.47,7.54,14.99ZM651.62,2030.05l-12.72,12.4c-8.9,8.68-19.67,14.46-30.54,20.59-19.9,11.23-42.23,17.74-64.08,15.97l12.51-18.45,15.04-15,20.96-15.25c16.62-12.1,36.17-18.13,56.73-20.53l16.52-.84c-3.78,8.13-8.28,15.13-14.41,21.11ZM665.35,2004.92c-21.42.59-45.17-6.09-62.79-16-10.69-6.01-20.32-12.58-29.71-20.43l-14.03-14-7.69-11.38-3.97-6.93,26.04,3.89c38.53,5.76,71.89,31.95,92.15,64.84ZM662.15,2136.85l-6.23-22.97c-6.21-22.89-7.53-49.2-.28-71.65l3.93-12.16,9.38-18.72c6.06,9.74,9.61,19.87,12.9,30.66,5.93,19.44,6.84,39.26,3.1,59.31l-8.38,33.81c-1.42,5.75-4.43,10.55-7.56,15.41l-6.86-13.67ZM459,2504.89v-493.69s47.37,0,47.37,0v493.69s-47.37,0-47.37,0ZM407.07,2504.89l-.03-492.84h46.02s.03,492.84.03,492.84h-46.02ZM6.65,2010.18h33.6v494.7H6.65v-494.7ZM910.52,2504.89h-26.4v-494.72h26.4v494.72ZM40.89,2993.33H6.64s0-28.18,0-28.18h34.24s0,28.18,0,28.18ZM910.52,2993.33h-23.42v-30.48h23.42v30.48ZM910.48,471.05l.03,136c-1.33.88-2.94.94-4.17.95h-22.06c-1.24.01-2.83-.22-4.15-1.08l-.16-96.84.78-12.54,1.05-12.82,1.19-21.83,27.24-.02.25,8.17ZM893.85,343.17l6.93,27.15c4.83,18.94,7.62,37.84,8.34,57.44l1.07,29.02-27.32.08c-.83-30.53-3.73-59.94-10.18-89.75-5.05-23.33-12.47-45.05-20.88-67.26l11.43-5.28,13.22-5.3c7.08,17.9,12.7,35.46,17.4,53.9ZM783.06,145.25c28.21,29.64,52.95,62.81,72.36,98.96l18.82,39.39-24.78,10.43-14.36-30.64c-14.1-26.34-29.91-51.12-48.79-74.26l-19.94-22.28-5.83-6.58,18.44-18.39c2.02.1,2.9,2.14,4.07,3.37ZM633.43,42.46l9.49,4.26,33.33,16.81c29.05,14.65,68.45,44.43,92.1,67.19l6.93,6.67-18.99,19-10.06-9.49-10.47-9.6-9.77-8.44c-27.2-21.64-56.37-40.09-87.71-55.23l-15.22-6.73,5.19-13.18,5.19-11.26ZM460.09,7.07l26.08,1.17,10.03.74,11.96,1.18,6.08.71,33.94,5.34c27.45,5.79,53.83,13.83,79.34,23.96l-10.17,24.38c-45-17.97-94.62-29.41-142.79-30.98l-14.5-.47.04-26.03ZM454.03,7.19l.04,25.94c-55.66.99-105.77,10.66-157,31.1l-2.68-5.87-7.03-17.56c54.78-21.81,107.52-32.54,166.67-33.61ZM152.66,126.54c16.9-14.95,33.71-28.92,52.56-41.64,24.2-16.33,49.36-29.75,76.33-41.67l5.47,12.44c1.5,3.41,3.18,6.52,4.12,10.84l-22.17,10.12-13.11,6.91c-33.9,17.87-70.5,44.27-97.66,72.13l-17.62-17.55,12.08-11.58ZM126.52,152.71l9.4-9.87c2.19,1.11,3.54,2.24,4.97,3.68l11.01,11.11c.59.6,1.79,2.49,1.03,3.25-31.51,31.61-53.7,63.63-74.72,102.71-5.62,10.45-13.39,29.65-14.84,29.94-.94.19-1.75-.31-2.73-.73l-18.69-7.98c18.64-45.75,51.08-96.96,84.56-132.13ZM7.07,443.01l2.05-22.05c1.65-17.67,3.54-34.53,7.03-52.1,5.39-27.1,13.3-52.85,23.47-78.39l8.96,3.44,13.23,5.59c-8.25,21.73-15.52,42.77-20.53,65.43-6.66,30.12-9.93,59.81-10.55,91.72l-23.92.26.26-13.9ZM6.66,462.94l24.15-.04c.16,13.64.98,26.56,2.44,39.99.74,6.82,1.53,13.15,1.44,20.19l.24,83.43c-1.17,1.59-2.69,1.42-4.04,1.42l-21.01.04c-.93,0-3.23-.28-3.23-1.89v-143.15ZM303.81,96.49c-14.36,5.87-27.75,12.53-42.33,20.92l-12.7-21.64c14.85-8.73,29.78-16.16,45.51-22.56l9.51,23.29ZM297.05,72.09c16.57-6.82,32.43-12.11,49.11-16.87l6.51,24.32c-16.08,4.55-30.71,9.56-46.02,15.78l-9.59-23.23ZM214.92,148.34l-7.44,6.01-6.49,5.54c-7.33,6.26-14.79,13.35-22.12,20.49l-17.71-17.63,14.57-14.07,10.09-8.98c4.66-4.15,9.15-8.01,14.04-11.3l15.07,19.94ZM173.97,179.62c1.06,1.05,1.86,2.09,2.3,3.47-6.51,6.84-13.6,13.98-19.33,20.94l-12.18,14.8-20.05-15.22c11.01-14.04,21.97-26.51,34.39-38.77l14.88,14.78ZM115.45,263.18c-5.21,8.87-9.46,17.03-13.93,25.73l-3.28,7.27-4.42,9.88-23.07-8.97c6.14-15.87,13.9-30.56,22.71-46.29l22,12.38ZM72.6,303.96c6.32,2.52,12.09,4.62,18.93,8.28-5.68,15.08-10.7,29.15-14.63,44.04l-7.79-1.73-16.69-4.56c4.61-16.63,9.88-31.68,15.81-47.28,1.62-.43,3.09.24,4.37,1.24ZM66.24,410.4c-1.71,16.04-3.11,30.78-3.1,46.77l-23.28.12c-1.06,0-1.83-.35-2.08-1.43.53-16.48,1.48-32.25,3.6-48.85l24.87,3.38ZM63.11,460.73c.12,16.14,1.27,31.1,3.44,48.59l-24.83,3.87c-2.48-17.77-3.43-34.57-3.97-52.49l25.36.04ZM77.18,563.2c4.53,15.24,9.3,29.83,15.64,45.33l-23.12,9.83c-6.55-15.79-11.86-31.56-16.74-48.48l24.21-6.68ZM93.94,611.69l6.33,14.4,15.47,29.19-21.82,12.58-4.83-8.63-5.94-11.07-12.41-27,23.19-9.47ZM145.56,700.26l4.85,5.92,6.9,8.12,8.08,8.96,12.33,12.93-17.63,17.87-13.52-13.99-7.54-8.47-13.4-16.27,19.94-15.07ZM179.79,738.48l14.25,13.29,7.55,6.47,8.03,6.99,6.33,5.15-15.06,19.76-23.63-19.56-15.14-14.46,17.67-17.65ZM261.27,800.35l25.75,13.74,17.65,7.76-9.37,22.97-23-9.95-15.74-8.28-7.98-4.28,12.69-21.97ZM307.71,823.05l45.52,15.5-6.34,24.33-48.72-16.52,9.53-23.31ZM439.97,877.15l-36.97-3.29,3.44-24.6,23.53,2.15,25.45,1.04.17,24.61c-5,1.43-10.31.57-15.62.1ZM455.46,65.22c-16.94.46-32.67,1.64-49.1,3.61l-3.48-24.83c17.62-2.4,34.4-3.38,52.73-3.82l-.16,25.05ZM872.16,407.02l3.44,49.9-25.33.2-3.08-46.69,24.97-3.41ZM836.78,356.52l-15.62-45.97,23.26-9.7,16.67,49.15-24.31,6.52ZM820.05,307.61c-6.28-15.01-12.91-29.05-21.58-43.51l21.64-12.76c8.99,15,16.4,30,23.11,46.69l-23.17,9.58ZM768.34,218.46l-4.89-6.12-5.72-6.82-7.62-8.41-13.73-14.81,17.69-17.74c12.39,12.4,23.66,24.74,34.37,38.77l-20.1,15.14ZM736.06,178.48c-1.09,1.09-2.41,1.32-3.49.14l-14.16-13.42-6.62-5.94-14-11.33,15.37-20.02c13.81,10.61,26.37,22,38.81,34.6l-15.91,15.97ZM652.44,117.68l-11.81-6.56-17.36-8.73-11.84-5.11c-.72-.31-1.41-.72-1.7-1.03-.52-.57-.4-1.74.05-2.8l8.72-20.43,17.53,7.55,13.32,6.77,8.52,4.52,7.19,4.02-12.62,21.81ZM605.92,94.8c-15.01-5.59-28.7-10.75-43.48-14.73-1.42-.38-2.38-1.23-1.95-2.84l5.99-22.24c16.74,4.75,32.47,9.99,49.07,16.72l-9.62,23.08ZM559.45,838.75l45.48-15.4,9.78,23.17-48.8,16.5-6.46-24.27ZM607.87,822.34l14.26-6.24,30.06-15.72,12.6,21.6-12.72,7.18-34.69,16.27-9.52-23.09ZM696.73,770.78l13.39-10.99,6.49-5.51,16.31-15.32,17.88,17.77c-1.08,1.82-2.81,2.84-4.44,4.25l-34.19,29.73-15.43-19.94ZM735.42,736.56l12.59-13.03,7.16-7.88,12.52-14.95,19.72,15.11-28.41,32.65-5.78,5.97-17.8-17.87ZM798.13,654.52c8.19-14.23,15.15-27.55,21.11-42.61l23.26,9.47c-6.04,15.67-13.5,29.71-22.42,45.55l-21.95-12.41ZM837.15,560.25c4.09-15.45,7.17-30.88,9.19-47.08l25.06,3.1-8.09,43.26-2.19,7.09-23.96-6.37ZM846.86,510c2.01-16.58,3.4-32.37,3.43-49.26l25.28-.04-3.67,52.52-25.03-3.23ZM470.18,40.72l18.04.91,10.16,1.03c3.68.37,7.04.26,10.98,1.59l-3.22,23.99-12.01-.83c-12.18-.84-23.75-2.06-36.16-2.05v-25.19s12.21.55,12.21.55ZM457.97,852.51l47.78-3.32,3.4,24.97-18.01,1.89-17.47,1.08-15.7.52v-25.14ZM824.03,2905.02v52.8h-152.19v-52.8h152.19ZM666.53,2905v53.15s-154.22.02-154.22.02v-53.15s154.22-.02,154.22-.02ZM880.63,2899.72h-50.65v-389.54h50.65v389.54ZM401.79,2905.01v53.91h-150.15v-53.91h150.15ZM46.46,2510.17h41.72s.03,389.55.03,389.55h-41.72s-.03-389.55-.03-389.55ZM94.13,2905.02l152.2-.02v54.26s-152.19.02-152.19.02v-54.26Z"/>
</svg>