<?xml version="1.0" encoding="UTF-8"?>
<svg id="_レイヤー_1" data-name="レイヤー_1" xmlns="http://www.w3.org/2000/svg" version="1.1" viewBox="0 0 1005.508 66.082">
  <!-- Generator: Adobe Illustrator 30.3.0, SVG Export Plug-In . SVG Version: 2.1.3 Build 182)  -->
  <path d="M43.905,13.081c.01.064.01.132.024.197,1.775,10.428,18.642,12.564,46.72,12.564h384.951c.746,0,1.35-.604,1.35-1.352s-.604-1.351-1.35-1.351H106.425c-32.232,0-44.215-3.181-44.215-11.747,0-5.094-4.144-9.237-9.24-9.237-4.913,0-8.902,3.866-9.182,8.71-.071.16-.108.339-.108.526,0,.142.02.273.061.402.013.452.101.864.165,1.287Z" fill="#71717a"/>
  <path d="M475.599,40.239H90.648c-29.714,0-46.915,2.366-46.915,14.449,0,5.094,4.144,9.238,9.237,9.238s9.24-4.144,9.24-9.238c0-8.565,11.983-11.747,44.215-11.747h369.174c.746,0,1.35-.604,1.35-1.35s-.604-1.352-1.35-1.352Z" fill="#71717a"/>
  <path d="M529.909,25.843h384.951c28.078,0,44.944-2.136,46.72-12.564.013-.066.013-.133.024-.197.064-.424.152-.835.165-1.287.04-.128.061-.26.061-.402,0-.187-.037-.366-.108-.526-.28-4.844-4.269-8.71-9.183-8.71-5.096,0-9.24,4.142-9.24,9.237,0,8.567-11.984,11.747-44.215,11.747h-369.174c-.746,0-1.35.606-1.35,1.351s.604,1.352,1.35,1.352Z" fill="#71717a"/>
  <path d="M914.86,40.239h-384.951c-.746,0-1.35.604-1.35,1.352s.604,1.35,1.35,1.35h369.174c32.232,0,44.215,3.182,44.215,11.747,0,5.094,4.144,9.238,9.24,9.238s9.237-4.144,9.237-9.238c0-12.083-17.201-14.449-46.915-14.449Z" fill="#71717a"/>
  <path d="M993.518,23.799c-3.466,0-7.968,1.768-12.729,3.64-5.319,2.092-10.819,4.252-15.382,4.252h-448.362c-6.864-1.483-11.504-5.508-12.904-8.641-.219-.488-.702-.8-1.235-.8-.052,0-.1.017-.151.023-.051-.006-.099-.023-.151-.023-.533,0-1.016.312-1.235.8-1.4,3.134-6.04,7.158-12.904,8.641H40.102c-4.563,0-10.063-2.16-15.382-4.252-4.762-1.871-9.263-3.64-12.729-3.64-5.092,0-9.237,4.146-9.237,9.242s4.144,9.24,9.237,9.24c3.466,0,7.968-1.767,12.729-3.638,5.319-2.092,10.819-4.252,15.382-4.252h448.362c6.868,1.483,11.504,5.511,12.904,8.644.242.535.831.755,1.386.7.556.056,1.144-.164,1.386-.7,1.4-3.133,6.036-7.161,12.904-8.644h448.362c4.563,0,10.063,2.16,15.382,4.252,4.762,1.871,9.263,3.638,12.729,3.638,5.092,0,9.237-4.146,9.237-9.24s-4.144-9.242-9.237-9.242Z" fill="#71717a"/>
</svg>