<?xml version="1.0" encoding="UTF-8"?>
<svg id="_レイヤー_1" xmlns="http://www.w3.org/2000/svg" version="1.1" viewBox="0 0 1000 129.175">
  <!-- Generator: Adobe Illustrator 30.3.0, SVG Export Plug-In . SVG Version: 2.1.3 Build 182)  -->
  <path d="M87.778,19.353l.077-.02c1.813-.506,3.509-1.17,5.21-1.788.863-.281,1.711-.582,2.544-.909.868-.363,1.568-.501,2.687-1.19.96-.593,1.716-1.17,2.329-1.568.623-.424.925-.541,1.655-.766l2.534-.7c1.119-.347,1.992-.741,2.753-1.011l4.873-1.905,2.426-.981c.679-.271,1.221-.312,2.12-.444,1.609-.051,4.546-.828,5.92-1.589,1.589-.705,2.043-.705,4.209-.593.94.041,2.258.02,3.433-.337,1.108-.327,1.931-.72,2.62-.945.342-.117.639-.194.894-.235l1.277-.056,2.656-.097c1.762-.169,3.126.077,5.231.189,1.967,0,3.622-.128,5.45-.189l10.691,1.037,2.682.22c.843.041,1.788.225,3.009.138,2.222-.225,3.407-.633,4.567-.077.705.255,1.532.695,2.605,1.042,1.134.383,2.401.388,3.325.337,1.997-.199,3.065-.087,5.037.322,3.54.659,7.111,1.195,10.63,1.967,1.757.439,3.555.572,5.348.746.873.066,1.778.215,2.917.276l2.728.01c.848.031,1.292.097,2.002.368.715.261,1.558.684,2.62,1.022,2.467.822,4.807-.01,5.92.107,1.267.174,3.387.695,5.037,1.027l5.328.894,5.292.72c1.154.184,2.983,1.328,5.21,1.629,3.581.414,7.116,1.119,10.62,1.962,1.88.378,3.218.935,5.547,1.165l2.672.174c.664.041,1.481.286,2.401.506,1.747.383,3.438.971,5.537,1.154,1.956.128,3.167.368,5.062.889,3.453,1.093,7.126,1.083,10.625,1.992l2.559.531c.521.117,1.211.444,2.064.848.756.373,2.12.935,3.08,1.037l2.677.414c3.571.531,7.07,1.456,10.625,2.099l10.569,2.391c1.859.501,4.02.526,5.45.766,1.359.163,2.82,1.011,5.037,1.563,2.191.47,4.035.342,5.45.639l5.364,1.165c2.069.306,3.892.209,5.185.547,1.359.301,3.182,1.389,5.639,1.486,2.294.031,3.632-.327,4.853.158l2.529.909c.495.158,1.068.317,1.66.388l1.364.097c1.813.148,3.637.194,5.44.49,1.757.189,3.617.639,5.706.48,2.013-.133,3.121-.179,4.888.235.873.184,1.854.414,2.988.48l2.728-.041c3.617-.266,7.213.807,10.834.7,2.018.026,3.09.184,5.067.608.93.179,2.181.327,3.295.271l2.835-.204c1.216-.051,3.331.046,5.072.056l1.343.026,1.078.082,2.769.271c.991.097,2.559.026,3.571-.199,1.057-.215,1.88-.439,2.452-.521.889-.204,2.503.179,4.878.138,2.207-.225,3.724-.715,5.599-1.287,1.395-.613,3.356-.822,5.302-1.946.143-.082.266-.204.342-.368.215-.429.041-.95-.388-1.165l-.087-.041c-1.665-.828-3.315-1.706-5.522-1.967-1.721-.266-3.79-.271-5.19-.322-1.231-.072-3.208-.572-5.925-.276-1.221.163-2.145.419-2.861.541-.756.148-1.006.184-1.813.163l-2.631-.163c-.506-.031-1.052-.046-1.624-.015l-1.364.107c-1.864.179-3.366.199-5.747.506-2.135.358-3.034.628-4.648.49-1.594-.194-4.127-.25-5.726-.036-3.606.557-7.187-.235-10.799.23l-2.682.143c-.669-.01-1.466-.143-2.365-.306-1.757-.465-4.301-.45-5.885-.286-1.538.153-3.244-.25-5.067-.444-1.767-.286-3.565-.322-5.348-.46l-1.338-.087c-.306-.036-.608-.112-.971-.23l-2.569-.914c-2.258-.782-4.613-.24-5.9-.317-1.211.026-2.631-.807-4.745-1.42-2.222-.557-4.066-.429-5.563-.71l-5.2-1.221c-2.13-.419-3.949-.337-5.292-.684-1.303-.291-3.044-1.303-5.282-1.691-2.13-.358-3.622-.327-5.261-.797l-10.533-2.518c-3.545-.684-7.034-1.655-10.599-2.227l-2.672-.45c-.843-.117-1.149-.312-2.018-.71-.776-.368-1.706-.873-2.942-1.2l-2.738-.603c-3.499-.955-7.172-.986-10.63-2.125-1.578-.495-3.938-.848-5.599-.909-1.517-.077-3.285-.628-5.067-.996-.838-.184-1.762-.455-2.907-.531l-2.738-.133c-1.277-.061-3.397-.695-5.052-1.011-3.535-.792-7.095-1.44-10.702-1.803-1.41-.077-2.728-1.006-5.123-1.527l-5.455-.664-5.369-.812c-1.895-.327-3.279-.751-5.599-.991-2.467.046-3.775.593-4.822.148-.664-.194-1.451-.567-2.431-.925-.976-.393-2.345-.598-3.3-.587l-2.687.02-2.477-.209c-1.803-.158-3.611-.266-5.374-.684-3.54-.736-7.126-1.236-10.691-1.854-.965-.133-1.629-.332-2.835-.409-1.098-.046-2.059.072-2.891.117-.868.041-1.446.046-2.038-.148-.654-.194-1.441-.582-2.431-.95-.965-.404-2.437-.582-3.453-.439l-2.672.363c-.582.072-1.44-.056-2.396-.107l-2.718-.194-5.435-.434c-1.584-.066-3.315-.644-5.415-.71-1.783,0-3.739.061-5.379.01-1.492-.148-3.714-.45-5.573-.434l-2.758-.102c-.48-.01-.873-.051-1.43-.036-.644.041-1.231.158-1.757.296-1.042.271-1.89.593-2.534.715-.577.123-1.093.087-1.946,0-.817-.077-1.813-.245-3.065-.184-1.318.072-2.442.45-3.351.766-1.931.736-2.539.822-4.551.914-.889.046-2.171.163-3.187.531l-2.626.971-5.236,1.997c-.93.352-1.711.7-2.319.884-.72.235-1.635.434-2.661.828-.986.332-2.309,1.057-3.116,1.742-.833.684-1.415,1.323-1.946,1.757-1.027.802-2.958,1.956-4.311,3.019-1.44,1.16-2.799,2.431-4.081,3.78-.189.199-.271.49-.194.771.117.429.567.679.996.562h.026Z"/>
  <path d="M999.56,92.236c-.342-1.098-.669-1.91-.756-2.426-.363-.659.69-2.365.169-5.808-.444-1.727-1.262-2.692-1.732-3.443-.25-.368-.439-.679-.547-.894l-.102-.24-.189-.69-.792-2.901-.398-1.451c-.123-.322-.235-.669-.347-1.083-.235-.817-.45-1.839-.899-3.004-.485-1.251-1.139-2.232-1.732-3.085l-1.584-2.237c-.373-.557-.741-1.318-1.205-2.242-.398-.838-1.221-2.176-1.89-2.876l-1.951-2.294c-1.211-1.609-2.871-2.794-4.316-4.168-.439-.541-2.283-1.829-3.305-2.002-1.083-.332-1.905-.536-2.273-.741-.209-.056-.536-.429-1.098-1.251-.552-.741-1.211-1.941-2.794-2.835-1.359-.71-2.539-.843-3.433-1.022-.45-.082-.843-.163-1.16-.25-.276-.066-.531-.189-1.068-.429-1.829-.761-3.565-1.747-5.466-2.309-1.91-.674-3.729-1.246-5.384-1.767-1.701-.679-4.357-1.211-6.283-1.062h-2.947c-1.297.082-2.319.414-3.177.613-.94.22-1.369.306-2.059.184-.741-.102-1.675-.424-2.927-.557-1.262-.23-3.09.378-3.918,1.047-.94.639-1.635,1.246-2.161,1.502-1.057.475-3.402.751-5.358,1.675-.919.511-1.88.971-2.82,1.451-.163-.48-.45-1.032-.705-1.446-.644-1.011-1.328-1.757-1.844-2.437-.531-.669-.797-1.185-1.231-2.079-.414-.843-.889-1.885-1.737-2.901-.889-1.042-1.88-1.67-2.753-2.217-1.854-1.052-2.876-1.742-4.459-3.09-1.66-1.44-3.535-2.156-5.195-3.085l-1.251-.659c-.291-.169-.603-.388-.94-.649-.679-.516-1.435-1.2-2.467-1.844-2.319-1.395-4.597-1.379-5.706-1.931l-5.358-1.905c-1.425-.547-3.269-2.079-6.145-2.166-1.175-.031-2.105.072-2.758.01-.541-.026-1.149-.25-2.008-.618-.838-.347-1.849-.838-3.162-1.098l-2.963-.255c-2.217-.112-3.218-.286-5.379-.94-2.523-.577-4.133-.255-6.166-.404-1.941-.031-3.872.066-5.808.097-1.287.128-3.05-.833-6.074-.49-1.435.276-2.355.776-3.106,1.027-.761.291-.935.235-2.13.368-1.916.143-3.913.526-5.41.383-.894-.046-1.941-.148-3.136-.082-1.257.077-2.375.383-3.279.618-1.916.557-2.626.516-4.899.337-1.001-.072-2.437-.026-3.606.322l-2.733.868c-3.044.541-7.453,1.093-10.921,1.614-1.374.128-3.867.087-5.787.404l-5.69.623-2.84.337c-1.032.092-2.268.47-3.126.741-.945.296-1.609.485-2.426.613l-2.809.521c-1.87.373-3.765.633-5.65.93-1.057.158-1.716.296-2.518.296-.843.026-1.844-.026-2.999.072l-5.885.654c-2.574.455-4.076,1.558-5.466,1.675-1.778.317-3.974.802-5.41.986l-2.804.112c-1.093.041-2.391.322-3.346.639-1.001.317-1.864.644-2.626.843-.557.133-2.038.444-2.85.73-.945.291-1.788.567-2.554.725-.649.148-1.41.158-2.391.163-.874-.015-2.299.056-3.218.276-.787.138-1.681.204-2.677.301-.986.123-2.059.169-3.412.695-1.175.485-2.008,1.052-2.692,1.379-.94.603-2.61.45-4.853.654-1.369.179-1.767.337-2.712.358-.879.051-1.91.041-3.09.23l-5.726,1.4c-2.488.695-3.857,1.767-5.154,1.834-.756.107-1.665.117-2.712.189-1.093.051-2.304.342-3.126.516-1.875.358-3.77.889-5.374,1.037-1.808.097-4.168.567-5.874.93l-2.861.577c-1.18.291-2.135.73-2.973,1.062-.419.169-.802.312-1.16.419l-.547.138-.874.24c-1.108.358-2.008.802-2.784,1.098-.868.317-1.246.439-1.905.398-.715-.026-1.66-.225-2.886-.271-2.932-.026-4.751,1.492-6.063,1.773l-5.379,1.139c-3.77.439-7.494,1.16-11.197,1.931-1.859.271-3.836.965-5.098.71-.828-.082-1.839-.301-3.126-.276-1.323.087-1.982.199-3.009.296-1.875.225-3.754.383-5.634.501-1.011.097-1.686.061-3.075.281-1.175.23-2.11.587-2.881.776-.383.097-.72.158-.996.169l-1.389.061-2.85.117-5.701.148-5.501-.143c-.598-.041-1.42-.301-2.447-.567-.965-.306-2.559-.414-3.56-.25l-2.845.368c-.623.077-1.819.005-2.871.153-1.017.112-1.916.25-2.672.266-.7.031-1.17-.102-2.105-.383-.873-.25-1.946-.669-3.422-.69-1.492.02-2.58.439-3.428.669-.93.25-1.267.317-1.757.209-.567-.102-1.364-.439-2.421-.792-.531-.174-1.154-.347-1.89-.419l-1.522-.072-2.835-.128c-1.885-.102-3.754-.45-5.629-.664l-5.619-.639-2.784-.465-1.389-.23c-.47-.097-1.461-.143-2.018-.092-1.272.092-2.217.301-2.789.301-.404-.015-.174.026-.756-.102l-1.369-.301c-1.829-.409-3.652-.807-5.486-1.103l-2.564-.465c-.296-.092-.93-.46-1.824-1.001-.46-.266-.991-.572-1.686-.858-.771-.312-1.425-.455-1.967-.572l-2.835-.511c-.409-.087-.567-.138-.996-.281-.664-.215-1.277-.347-1.829-.45-1.098-.204-1.956-.312-2.472-.46l-.322-.107-.623-.281-1.241-.562-2.483-1.119c-.378-.169-.894-.552-1.64-1.154l-1.318-1.001-1.471-.96-2.217-1.527-1.108-.761c-.475-.322-1.119-.684-1.594-.919-2.248-.996-2.365-1.206-4.516-2.697-.807-.526-1.461-.991-1.916-1.364-.077,0-.204-.107-.613-1.047-.189-.424-.404-.95-.741-1.578-.169-.312-.363-.649-.628-1.006-.245-.352-.639-.782-.72-.858l-1.88-1.951c-.644-.598-1.134-1.308-2.299-2.309-.976-.782-1.783-1.231-2.294-1.624-.317-.271-.306-.174-.72-.654-.398-.455-.792-.838-1.17-1.18l-1.967-1.783c-1.027-.547-1.129-2.753-2.529-4.715-.174-.245-.485-.378-.802-.317-.347.066-.541.368-.582.7l-.031.031c-1.017,1.088-3.167,1.42-4.715,3.785-.659.914-1.108,1.818-1.568,2.518-.23.352-.455.649-.674.879-.281.281-.761,1.062-1.001,1.517-.552,1.042-.919,1.9-1.272,2.365-.179.235-.879.925-1.507,1.609l-1.859,1.972-.225.25.01-.026s-.031.01-.107.051l-.843.363c-.751.322-2.161.741-3.555,2.028-.894.817-1.538,1.614-2.11,2.202-.674.725-.73.69-1.941,1.762l-1.997,1.992c-.266.235-.414.368-.654.506l-1.195.613-2.391,1.236-.858.439c-.235.102-.557.209-.96.327-.807.245-1.931.501-3.233,1.098l-5.348,2.237c-1.149.582-1.941,1.139-2.549,1.481-.301.169-.552.291-.746.368-.567.194-1.154.444-1.635.664-.981.455-1.747.858-2.375,1.103-.358.138-.557.204-.659.22-.184.036-.495.056-.904.051-.812.015-1.972-.112-3.509.163l-2.835.756c-1.778.572-3.617.863-5.461,1.144l-1.379.225c-.465.051-1.486.317-1.992.547l-2.508,1.165c-.368.117-.23.133-.787.189l-1.4.153-2.799.312-5.604.679c-1.88.138-3.76.204-5.639.409l-2.82.301-1.328.123c-.204.01-.506-.02-.879-.097-.756-.143-1.737-.485-3.044-.628-1.374-.194-2.958.276-3.811.623-2.099.802-2.105.848-4.219.322-.889-.225-2.248-.526-3.484-.409-1.144.077-2.125.276-2.993.404-.858.163-1.507.097-2.784.235l-2.815.424c-.899.087-1.246.077-2.079-.153-.797-.204-1.762-.587-3.039-.761l-5.915-.383-5.69-.143-2.845-.051-1.425-.026c-.654-.02-1.272.046-1.813.133-2.324.485-3.009.572-5.175.296l-5.619-.531-2.677-.286c-.567-.102-1.349-.439-2.299-.822-.833-.393-2.467-.766-3.244-.771l-2.82-.286c-3.765-.358-7.509-.909-11.192-1.813l-5.747-.965c-2.452-.215-4.24.163-5.083-.301-.587-.24-1.354-.766-2.375-1.292-1.022-.582-2.615-.909-3.601-.909-1.088-.051-2.013-.015-2.769-.087-.49-.041-1.956-.363-2.927-.352-1.017-.041-1.89-.051-2.6-.169l-2.666-.613-2.743-.644c-.746-.174-1.578-.48-2.513-.797-2.023-.715-3.969-1.001-5.772-1.451l-1.389-.317c-.368-.082-.695-.179-1.093-.327-.782-.281-1.665-.69-2.733-1.037-2.375-.838-4.761-.393-6.002-.639l-5.435-1.011c-.664-.153-1.451-.49-2.38-.863-.465-.184-.965-.378-1.517-.547l-1.389-.363c-1.471-.363-3.254-1.645-6.125-1.655l-2.83.194c-.582.031-1.175-.153-2.105-.429-.848-.261-1.783-.593-2.84-.863-.623-.158-.981-.209-1.272-.312-.347-.107-.73-.255-1.149-.429-.838-.337-1.829-.792-3.055-1.062-1.16-.245-2.176-.317-3.121-.404-1.022-.087-1.594-.153-2.687-.352-1.139-.169-2.161-.179-3.044-.24-1.767-.036-2.769-.526-4.96-1.267-2.385-.664-3.898-.741-5.89-1.139-2.171-.526-4.659-.082-5.767-.296l-5.404-1.241c-.695-.148-1.517-.45-2.488-.766-.914-.332-2.309-.603-3.136-.715-1.885-.286-3.76-.664-5.655-.868l-2.835-.352c-.853-.128-2.288-.276-3.193-.25-.991-.005-1.839,0-2.503-.107l-2.804-.526-5.614-1.078c-1.006-.209-1.813-.322-2.575-.511-.828-.199-1.752-.495-2.84-.725-4.178-.649-7.412-1.093-11.723-1.578-1.236-.041-2.258.102-3.075.143-.843.046-1.246.01-2.059-.194-.771-.194-1.681-.531-2.83-.792-1.211-.286-2.498-.286-3.489-.235-2.171.153-3.014.143-4.975-.378-.868-.209-2.197-.501-3.187-.501l-2.881-.097-1.44-.051c-.48-.036-1.456-.01-2.007.117-1.246.245-2.151.608-2.784.72-.807.301-2.477-.419-4.986-.705-2.242,0-3.949.138-5.951.225-1.813.112-4.138.368-5.527.368l-2.876-.209c-1.292-.072-2.278.235-3.187.404l-2.866.577c-.873.204-1.4.163-2.431.158-.955-.005-2.105-.066-3.489.301-1.395.404-2.314,1.052-3.085,1.486-.858.49-1.119.628-1.946.797l-2.804.47c-.531.107-1.139.255-1.691.465l-1.343.577-2.687,1.16c-2.202.792-3.918,2.564-4.98,3.024-1.022.572-3.555.858-5.394,2.166-1.568.976-3.371,2.309-4.751,2.998-1.486.741-3.821,1.778-5.338,3.504l-1.9,2.099c-.501.526-1.18,1.027-1.992,1.691-.782.639-1.778,1.532-2.416,2.753-.613,1.154-.868,2.248-1.108,3.157-.066.266-.189.608-.276.899-.986-.49-1.962-.996-2.942-1.502-1.681-.72-3.126-1.752-5.481-2.477-3.06-.49-4.694.572-5.501.046-.598-.199-1.384-.695-2.431-1.165-.991-.531-2.764-.751-3.857-.506-1.16.179-2.084.485-2.866.618-.541.107-1.87.123-2.881.383-2.115.501-3.376.787-5.374.879-.935.061-2.191.24-3.167.511l-2.876.7c-1.936.404-3.79,1.124-5.685,1.711-.787.138-2.36.991-3.111,1.732-.833.73-1.456,1.343-1.926,1.629-.271.194-.736.286-1.732.424-.904.163-2.288.204-3.831,1.318-1.354,1.062-1.895,2.197-2.386,2.937-.235.383-.444.695-.613.889-.082.107-.153.163-.199.204l-.506.48c-1.42,1.405-2.953,2.712-4.276,4.219l-2.043,2.212c-.756.817-.986,1.119-1.762,1.864-.674.674-1.532,1.481-2.258,2.626-.654,1.042-1.093,2.064-1.471,2.947-.725,1.88-1.287,2.564-2.61,4.654-.291.495-.587,1.057-.833,1.675l-.572,1.389-1.144,2.779-.286.695c-.117.373-.204.843-.235,1.221-.072.782-.02,1.435.031,1.987.128,1.088.22,1.885.158,2.156.153.582-1.599,2.278-1.87,5.701.128,3.09.858,4.245.577,5.277-.087.71-.347,1.65-.49,2.891-.174,1.318.041,2.758.271,3.734.557,2.099.843,3.336,1.287,5.486l.623,2.799c.163.572.209,1.461.301,2.513.092,1.017.286,2.406.996,3.632.664,1.119,1.364,1.813,1.849,2.457.245.317.439.593.572.853l.582,1.338,1.195,2.651c.838,1.742,1.895,3.382,2.901,5.016.179.291.531.439.879.347.419-.117.664-.547.547-.965l-.036-.128c-.511-1.854-1.211-3.601-1.686-5.425l-.633-2.758-.332-1.364c-.199-.633-.48-1.185-.751-1.665-.541-.955-1.078-1.721-1.282-2.304-.189-.47-.23-1.022-.22-1.895,0-.848.107-1.875-.066-3.177l-.398-2.82c-.209-1.599-.572-4.112-.945-5.706-.158-.884-.204-1.359-.107-1.931l.562-2.712c.25-1.17.138-2.871-.097-3.821-.215-1.037-.378-1.803-.363-2.207-.225-.501,1.078-1.808,1.793-5.021.199-1.624-.082-2.728-.138-3.525-.041-.393-.051-.695-.036-.863q.01-.097.036-.179l.261-.623,1.042-2.498.516-1.251c.102-.266.245-.547.439-.873l1.522-2.396c.633-1.068,1.022-2.043,1.395-2.907.368-.863.695-1.594,1.052-2.166.286-.475.776-1.032,1.435-1.711.603-.567,1.563-1.757,2.084-2.35l1.778-2.028c1.144-1.395,2.493-2.595,3.729-3.913l.516-.521c.301-.276.562-.567.771-.838.429-.552.72-1.052.976-1.481.485-.873.884-1.456,1.047-1.573-.01-.072.587-.281,1.538-.424.868-.158,2.355-.358,3.663-1.272,1.114-.782,1.793-1.578,2.38-2.105.644-.577.751-.674,1.818-1.027,1.727-.587,3.407-1.318,5.19-1.737l2.646-.736c.853-.261,1.486-.368,2.442-.48,1.813-.112,4.27-.7,5.833-1.16.838-.245,1.43-.204,2.758-.46,1.088-.235,1.982-.526,2.702-.644.787-.102.981-.102,1.716.194.7.281,1.538.817,2.743,1.236,2.922.833,5.093-.429,5.798-.051,1.313.347,3.106,1.41,4.919,2.186,1.103.547,2.217,1.083,3.325,1.624-.123.378-.25.746-.368,1.124-.352.873-.598,2.135-.572,3.223l.046,2.871c.204,1.251-1.037,2.728-.996,5.767.47,3.004,1.946,4.327,1.87,5.394.072.654-.015,1.548-.026,2.641-.056,1.042.225,2.595.695,3.576.444,1.042.945,1.895,1.318,2.661.352.669.608,1.538.96,2.503l.976,2.769c.25.909,1.047,2.13,1.599,2.861,1.333,1.711,1.742,2.401,2.278,4.439.25.904.787,2.253,1.527,3.167.7.925,1.451,1.645,2.079,2.294,1.032,1.073,2.386,2.896,3.617,4.362,1.267,1.532,2.932,2.825,4.393,4.23,1.675,1.251,3.77,2.329,6.324,2.401,1.287.051,2.881-.465,3.898-1.415.996-.894,1.686-1.977,2.094-3.193.383-1.165.49-2.202.628-3.136.077-.557.102-.817.199-1.098.102-.332.266-.736.45-1.195.352-.904.833-2.074.771-3.55l-.46-3.024c-.194-1.022-.245-1.9-.557-3.044-.332-1.093-.766-2.007-1.129-2.861-.695-1.522-1.226-3.555-1.859-5.384-.199-.863-.828-2.079-1.43-2.876-.593-.843-1.154-1.553-1.558-2.227-.899-1.619-1.686-3.356-2.789-5.19-.751-.996-1.578-1.66-2.222-2.268-.69-.618-1.022-1.047-1.65-1.951-1.165-1.568-2.191-3.239-3.56-4.648-2.161-3.336-6.411-4.832-7.964-7.861-.557-.848-1.808-1.905-2.58-2.207l-1.119-.623c.194-.582.383-1.134.572-1.818.245-.93.47-1.696.761-2.222.245-.48.684-.904,1.369-1.461.664-.536,1.532-1.154,2.36-1.992l1.941-2.115c1.042-1.165,2.309-1.675,4.204-2.615,2.023-1.032,3.259-2.028,4.929-3.044,1.287-.996,2.779-.93,5.18-2.007,2.35-1.231,3.285-2.437,4.751-2.876l2.554-1.088,1.277-.547c.337-.128.659-.204,1.062-.281l2.83-.455c1.057-.148,2.559-.802,3.325-1.297,1.895-1.134,2.11-1.195,4.204-1.139.863.031,2.263.041,3.249-.194l2.733-.536c.955-.174,1.824-.419,2.447-.342l2.815.225c2.416.005,3.877-.22,5.864-.322l5.45-.194c1.267-.005,3.244,1.16,6.268.669,1.231-.25,2.11-.593,2.743-.69.383-.056.368-.056.833-.041l1.41.056,2.825.117c.914.015,1.456.174,2.431.398,1.701.582,4.705.751,6.329.552.904-.036,1.543-.015,2.186.138.71.158,1.589.485,2.656.771,1.022.312,2.534.46,3.591.373,1.078-.061,1.951-.163,2.62-.143,3.244.363,7.565.909,10.901,1.41l2.687.674c.506.123,1.062.24,1.624.322l1.4.266,5.604,1.042,2.809.511c1.221.174,2.283.138,3.193.143,1.006,0,1.461.046,2.493.179l2.835.337c1.895.189,3.754.557,5.634.828,1.057.158,1.532.24,2.421.531.838.266,1.803.628,2.973.879l5.731,1.262c2.666.276,4.035-.189,5.609.235,1.742.327,4.041.587,5.318.971l2.743.919c1.103.337,2.345.47,3.325.516,1.011.056,1.9.072,2.646.184.776.153,2.094.312,2.968.368,2.089.143,3.004.291,4.863,1.119.46.184.965.383,1.527.552.613.189,1.195.286,1.497.363.792.194,1.655.49,2.62.787.485.148.996.291,1.543.414.557.138,1.369.215,1.936.194,1.206-.026,2.156-.204,2.861-.209,1.011-.123,2.626.761,4.781,1.44l1.374.347c.358.107.751.25,1.17.414.843.322,1.803.756,2.993,1.037l5.788,1.047c2.513.301,4.051-.061,5.312.46l2.605.986c.495.179,1.078.358,1.64.48l1.395.312c1.89.46,3.729.736,5.297,1.308.868.291,1.824.654,2.927.909l2.815.654c.981.215,1.742.429,2.896.649,1.175.184,2.212.169,3.09.209.945.005,1.333.169,2.733.332,1.139.097,2.12.051,2.932.092.914.061,1.231.107,1.89.444.679.327,1.476.904,2.646,1.41,2.758,1.052,4.919.337,6.222.593l5.512.914c3.719.899,7.509,1.451,11.325,1.808l2.861.286c1.129.087,1.364.163,2.283.516.812.306,1.778.787,3.085,1.042l2.998.327,5.747.531c.996.046,1.778.245,3.177.148,1.206-.107,2.166-.378,2.963-.501.398-.061.736-.097,1.032-.087l1.43.026,2.861.046,5.721.128,5.476.337c.618.066,1.451.363,2.488.649.996.332,2.58.424,3.571.271l2.84-.347c.613-.066,1.88-.01,2.901-.169,1.017-.123,1.91-.271,2.666-.296.669-.041,1.2.097,2.145.347.889.23,2.002.613,3.499.552,1.486-.097,2.544-.577,3.376-.848.919-.301,1.231-.383,1.762-.301.593.072,1.425.352,2.523.618.557.128,1.2.245,1.946.245l1.517-.092,2.871-.174c1.916-.102,3.841-.066,5.762-.107l5.757-.383,2.891-.163,1.446-.082c.393.01,1.466-.194,1.997-.388,1.252-.414,2.14-.899,2.738-1.083.383-.112.286-.092.766-.148l1.446-.169c1.931-.204,3.862-.424,5.747-.93l2.707-.603c.347-.056,1.103,0,2.186.061.547.026,1.185.041,1.946-.041.843-.097,1.558-.322,2.094-.501,1.165-.398,2.099-.853,2.866-1.154.393-.158.69-.266,1.027-.363.705-.22,1.328-.495,1.864-.771l2.426-1.323,5.221-2.069c.429-.194,1.17-.388,2.191-.659.511-.143,1.098-.317,1.747-.572.322-.128.664-.286,1.006-.465l.69-.363,2.661-1.425,1.328-.715c.572-.358,1.154-.843,1.589-1.251l2.028-2.053c.204-.194,1.665-1.389,2.248-2.099l1.798-1.956c-.026-.072.398-.337,1.379-.771.47-.22,1.042-.485,1.706-.909.327-.209.69-.475,1.042-.792l.516-.526.225-.301,1.767-2.437c.521-.822,1.241-1.461,1.89-2.958.506-1.236.679-2.212.889-2.912.138-.419.118-.475.358-.986.281-.577.485-1.134.644-1.65.317-1.037.516-1.926.72-2.707,0-.664.552-1.364,1.17-2.217,0,.935.112,1.956.695,3.121.49,1.062,1.114,1.921,1.589,2.692.235.383.444.746.593,1.073.112.317.705,1.17,1.068,1.568.838.965,1.594,1.614,2.002,2.151l1.446,2.007,1.793,2.426c.22.291.153.215.174.261l.102.22.404,1.037c.291.807.935,2.529,2.34,3.775.96.899,1.905,1.481,2.682,2.018l2.462,1.737c1.144.69,2.099,1.083,2.789,1.446.373.194.562.301.873.516l1.241.863,2.488,1.716.925.603.971.715c.751.567,1.747,1.374,3.111,1.997l2.748,1.185,1.374.587.685.296c.342.128.71.245,1.037.332,1.333.342,2.38.414,3.157.526.388.056.71.112.955.179.48.143,1.252.327,1.778.404l2.809.373c.853.153.761.117,1.67.572.761.383,1.767,1.047,3.31,1.476,1.308.271,2.033.296,3.075.455,1.941.23,3.857.552,5.772.889l1.435.245c.347.097,1.538.163,2.084.082,1.328-.133,2.242-.398,2.871-.46.388-.031.358-.061.828-.01l1.44.158,2.876.317,5.772.342c1.921.112,3.831.363,5.752.358,1.773.056,4.255-.148,5.118.204.761.215,1.727.639,3.044.863,1.4.276,2.988-.112,3.867-.414,2.12-.7,2.161-.72,4.296-.112.884.266,2.299.582,3.514.475,1.149-.061,2.135-.25,3.009-.368.838-.153,1.558-.082,2.83-.225l2.815-.439c.894-.097,1.231-.072,2.099.148.817.199,1.813.567,3.121.69l5.931.169,5.726-.133,2.861-.112,1.466-.056c.674-.031,1.282-.153,1.819-.291,2.248-.705,3.024-.838,5.251-.93,1.926-.117,3.846-.271,5.757-.495l2.682-.271c.623-.026,1.497.138,2.559.261,2.569.306,4.291-.485,6.186-.715,3.76-.766,7.524-1.486,11.33-1.921l5.803-1.221c2.319-.756,3.775-1.747,4.766-1.594.679.01,1.614.209,2.804.276,1.257.107,2.758-.301,3.657-.679,1.001-.393,1.819-.782,2.529-1.001l1.343-.347c.562-.169,1.068-.358,1.532-.547.93-.373,1.721-.715,2.401-.873l2.748-.547c2.028-.404,3.407-.71,5.41-.843,2.196-.225,3.979-.756,5.849-1.103,1.042-.215,1.691-.383,2.508-.424.853-.061,1.854-.061,2.988-.209,2.559-.327,4.388-1.686,5.609-1.91l5.384-1.303c.705-.112,1.584-.117,2.61-.163.971.005,2.437-.306,2.953-.358,1.502-.22,3.852.199,6.36-1.052,1.022-.506,1.793-1.001,2.391-1.226.424-.189,1.282-.291,2.181-.378.904-.087,1.91-.148,3.004-.327.95-.199,1.44-.189,2.467-.194.925,0,2.084.015,3.3-.24,1.103-.23,2.069-.547,2.953-.812,1.001-.312,1.394-.368,2.692-.664,1.083-.286,2.002-.639,2.825-.884,1.553-.562,2.799-.388,5.159-.526,2.345-.291,3.872-.674,5.844-1.006,2.431-.378,4.219-1.558,5.445-1.64l5.481-.567c.746-.061,1.655-.02,2.718-.036,1.108,0,2.329-.215,3.157-.337,1.88-.286,3.765-.531,5.634-.894l2.809-.506c1.073-.153,2.248-.48,3.121-.756.96-.281,1.558-.485,2.431-.562l2.84-.317,5.68-.593c1.854-.281,3.193-.158,5.614-.347,4.066-.598,7.248-.899,11.698-1.696l2.718-.863c.669-.194,1.165-.209,2.064-.174.843.031,1.87.158,3.116.092,1.297-.082,2.37-.388,3.295-.633,1.885-.572,2.728-.562,4.894-.419,2.324.138,4.102-.286,5.982-.429.69-.066,2.457-.204,3.468-.669,1.037-.393,1.844-.761,2.294-.828.807-.235,2.738.495,5.272.521,1.875-.041,3.749-.153,5.619-.143,1.757.087,4.02-.112,5.226.235,3.673,1.553,8.321.358,10.804,1.977.889.368,2.089.863,3.458.945,1.251.077,2.227-.046,2.958-.02,1.042-.102,2.447.828,4.485,1.752,2.069.792,3.601,1.246,5.425,1.885,2.411.899,4.168.894,5.123,1.584.593.358,1.272.935,2.11,1.573.419.317.889.649,1.425.955l1.282.664c1.66.909,3.417,1.573,4.648,2.666,1.303,1.154,3.448,2.595,4.94,3.376,1.609.95,2.002,1.456,2.886,3.305.383.822,1.032,1.997,1.706,2.809.649.828,1.251,1.502,1.635,2.099.286.342.424.904.567,1.527-1.154.873-2.268,1.778-3.187,2.053-.802.322-1.829.593-2.942,1.303-1.108.797-1.481,1.43-2.263,2.156l-4.133,4.178c-1.415,1.354-2.702,2.83-4.025,4.27-.618.593-1.451,1.65-1.854,2.682-.439.981-.741,1.864-1.093,2.513l-3.162,4.802c-1.093,2.273-1.119,3.846-2.048,5.455-.756,1.849-1.905,3.351-2.278,5.65l-.94,5.701-.434,2.82c-.097.639-.424,1.44-.751,2.488-.419.919-.424,2.922-.036,3.867.322,1.129.817,2.135,1.338,3.039.49.807,1.037,1.854,2.105,2.774,1.001.879,2.375,1.446,3.729,1.512,2.83.077,4.745-1.231,6.457-2.329,1.578-1.292,3.239-2.539,4.689-3.938,1.318-1.609,2.677-2.666,3.959-4.745,1.103-2.033,1.471-3.402,2.646-4.495.598-.649,1.379-1.374,2.079-2.421.725-1.103,1.057-2.237,1.333-3.182.495-3.09,3.688-6.891,3.724-11.003.153-.94.26-1.461.613-2.151.347-.725.894-1.563,1.354-2.702.516-1.129.577-2.84.363-3.857-.174-1.093-.398-1.967-.398-2.559-.189-.991,1.149-2.554,1.236-5.588-.163-2.467-.868-4.138-1.19-5.936l-.26-1.073c1.114-.593,2.263-1.124,3.366-1.727,1.502-.725,3.075-.71,5.547-1.665,2.35-1.333,3.142-2.416,4.046-2.094.644.061,1.532.363,2.672.567,1.195.255,2.697.046,3.596-.194.991-.23,1.813-.455,2.426-.455l2.769.097c1.9,0,3.029.291,4.873,1.017,1.956.695,3.749,1.323,5.41,1.992,1.747.582,3.31,1.573,4.97,2.334,2.002,1.119,4.679,1.221,5.2,1.696.112.036.521.521,1.032,1.333.495.736,1.246,2.043,2.753,2.891,1.313.72,2.38.925,3.096,1.2.838.342.572.194,1.461,1.027,1.267,1.292,2.743,2.375,3.78,3.872l1.691,2.115c.608.72.746,1.047,1.18,1.926.378.782.776,1.773,1.446,2.82.608.945,1.216,1.727,1.706,2.437,1.068,1.461,1.216,2.151,1.793,4.357.138.506.312,1.062.531,1.635l.342,1.313.69,2.62.189.69c.123.398.276.771.429,1.083.317.644.644,1.134.919,1.558.577.828.909,1.44.914,1.584.312.358-.659,2.396-.24,5.547.664,2.789,1.318,3.734,1.083,4.602-.072.633-.332,1.512-.557,2.646-.255,1.211-.235,2.564-.184,3.489.041.996.128,1.844.092,2.544-.041.679-.235,1.747-.342,2.605l-.363,2.636c-.072.516-.409,1.272-.828,2.181-.398.879-.94,2.115-1.037,3.453-.077,1.226.051,2.166.031,2.922-.01.378-.026.669-.107.95l-.511,1.292-.991,2.61-2.094,5.241c-.123.332-.02.736.286.945.363.25.853.163,1.108-.199,1.144-1.568,2.263-3.177,3.305-4.832l1.558-2.503.761-1.267c.281-.603.429-1.262.526-1.829.184-1.144.204-2.115.373-2.784.117-.567.404-1.098.879-1.9.444-.782,1.068-1.696,1.481-3.034.306-1.139.444-1.982.674-2.988.199-1.022.434-1.819.603-3.034.133-1.2.117-2.263.102-3.167-.005-.981,0-1.548.163-2.202.158-.73.485-1.67.7-2.927.271-1.241.061-3.07-.312-4.076l-.005-.01ZM81.224,52.194c.511.664,1.027,1.548,1.916,2.442.909.817,1.497,1.216,2.263,1.844.705.598,1.486,1.103,2.125,1.767l1.824,2.094c1.287,1.338,2.248,2.937,3.341,4.434.434.679,1.282,1.752,2.028,2.391.741.69,1.384,1.257,1.778,1.793l2.554,4.888c1.2,2.033,2.365,2.922,2.743,4.684.598,1.773.981,3.453,1.839,5.41.884,1.803,1.17,3.085,1.4,5.021l.404,2.615c.031.444-.169,1.114-.521,1.962-.174.429-.373.899-.557,1.476-.204.623-.286,1.313-.342,1.696-.133.94-.255,1.808-.48,2.452-.179.593-.587,1.149-.996,1.527-.404.337-.741.46-1.354.46-1.272-.031-2.804-.674-4.117-1.711-1.241-1.267-2.631-2.314-3.77-3.724-1.206-1.461-2.084-2.733-3.647-4.439-.69-.72-1.308-1.333-1.752-1.931-.45-.593-.613-1.047-.899-1.962-.266-.853-.516-1.9-1.093-3.024-.572-1.078-1.231-1.885-1.752-2.61-.552-.802-.868-1.175-1.149-2.105l-.904-2.62c-.291-.817-.572-1.788-1.083-2.82-.46-.945-.914-1.742-1.211-2.457-.649-1.211-.204-2.457-.347-5.047-.358-2.809-1.921-4.475-1.834-5.323-.199-.833,1.017-2.779,1.042-5.399.056-2.242-.296-3.53.455-5.18.02-.056.041-.112.056-.169.889.45,1.675.914,2.038,1.568l.005-.005ZM921.013,66.823c-.24.639-.72,1.415-1.205,2.406-.531,1.011-.843,2.38-.96,3.32-.026,3.78-2.585,6.089-3.56,10.523-.46,1.859-.935,2.411-2.467,3.989-1.65,1.578-2.457,3.989-3.177,5.277-.69,1.19-2.283,2.672-3.371,3.995-1.287,1.241-2.702,2.278-4.046,3.422-1.4.986-2.983,1.773-4.035,1.681-1.175-.123-1.793-.628-2.769-2.375-.434-.741-.782-1.461-.986-2.166-.22-.873-.23-.853.005-1.742.225-.771.649-1.742.853-2.988l.424-2.835.889-5.583c.179-1.522,1.333-3.239,2.018-4.894.96-1.742,1.292-4.097,1.916-5.246.981-1.558,1.992-2.907,3.106-4.756.541-1.037.838-1.972,1.185-2.728.296-.761.679-1.206,1.405-1.967,1.257-1.364,2.472-2.774,3.806-4.056,1.318-1.308,2.615-2.626,3.882-3.974.593-.587,1.374-1.522,1.813-1.834.49-.337,1.318-.613,2.288-.981,1.185-.475,2.053-1.032,2.825-1.594.404,1.767.971,3.509,1.022,4.751.199.848-1.144,2.605-1.205,5.501.215,2.672.874,3.903.342,4.843l.005.01Z"/>
  <path d="M573.46,38.018c1.512,1.093,3.05,2.222,5.241,2.758,1.706.455,3.806.71,5.226.909,1.257.194,3.218.868,5.987.746,1.246-.087,2.197-.286,2.932-.378.782-.112,1.047-.138,1.87-.082l2.666.255c.516.046,1.062.077,1.645.061l1.384-.087c1.89-.163,3.417-.138,5.818-.45,2.151-.368,3.065-.649,4.694-.536,1.614.174,4.163.163,5.762-.112,3.611-.669,7.243-.041,10.839-.72l2.682-.296c.7-.036,1.527.041,2.462.117,1.849.301,4.419-.066,5.987-.495,1.527-.388,3.31-.383,5.169-.567,1.829-.051,3.601-.526,5.394-.833l1.343-.255c.291-.041.628-.051,1.017-.041.771.02,1.691.138,2.774.138,2.431.066,4.495-1.206,5.752-1.548,1.154-.419,2.794-.097,5.021-.276,2.288-.266,3.969-1.057,5.471-1.343l5.318-.838c2.14-.444,3.785-1.236,5.154-1.44,1.323-.245,3.351-.015,5.553-.582,2.094-.547,3.428-1.17,5.134-1.42l10.64-2.074c3.509-.853,7.085-1.42,10.569-2.375l2.615-.7c.766-.23,1.18-.179,2.13-.174.863.015,1.926.097,3.193-.123l2.718-.557c3.571-.562,6.942-1.987,10.559-2.304,1.645-.163,3.954-.792,5.481-1.359,1.41-.506,3.285-.664,5.052-1.006.828-.143,1.819-.261,2.891-.618l2.559-.889c1.226-.404,3.407-.587,5.062-.894,3.565-.536,7.111-1.185,10.605-2.074,1.308-.393,2.912.041,5.338-.281l5.328-1.144,5.328-.904c1.91-.276,3.31-.261,5.634-.771,2.319-.797,3.351-1.675,4.521-1.543.7,0,1.573.123,2.626.169,1.078.077,2.421-.153,3.315-.444,2.053-.695,3.019-.945,4.975-1.313,1.767-.378,3.53-.776,5.333-.863l10.753-1.119c1.609-.031,4.117-.587,5.573-1.185.833-.25,1.349-.368,1.987-.317.69.041,1.543.245,2.6.373,2.472.388,4.664-.925,5.925-1.251.526-.174,1.451-.204,2.36-.322l2.677-.286,5.369-.358c1.538-.128,3.325.261,5.369.174,1.742-.072,3.663-.261,5.251-.24l5.415.613c1.875.133,3.233.664,5.757.455,1.032-.107,1.875-.25,2.483-.235.526.005,1.011.153,1.773.444.741.276,1.619.695,2.784,1.001,1.231.317,2.345.342,3.254.378,1.951.041,2.431.209,4.163,1.032.751.363,1.875.863,2.845,1.103l2.523.674c1.706.373,3.31,1.068,4.945,1.675.868.342,1.629.577,2.115.884l2.237,1.379c.843.516,2.176,1.088,3.152,1.323.996.25,1.808.363,2.411.547,2.707,1.226,6.232,3.009,9.634,4.148.271.092.598.041.822-.163.332-.301.358-.817.051-1.149-2.605-2.855-4.98-5.292-8.571-7.58-1.068-.501-2.023-.797-2.753-1.073-.766-.266-1.088-.45-1.773-.899-.628-.429-1.379-.971-2.334-1.527-1.062-.633-2.043-.94-2.845-1.267-1.737-.679-3.458-1.425-5.307-1.773l-2.723-.664c-.787-.179-1.323-.419-2.232-.766-.853-.332-1.859-.746-3.096-.976-1.272-.23-2.35-.179-3.239-.158-1.859.097-2.385-.061-4.49-.771-.935-.296-2.237-.603-3.525-.501-1.205.087-2.125.342-2.886.47-1.078.276-3.315-.061-5.037-.087-1.839-.02-3.223-.24-5.374-.368-2.023.031-3.698.286-5.558.419-1.568.143-3.382-.158-5.455-.015l-5.445.306-2.712.261c-.879.117-1.778.082-2.999.409-2.161.654-3.305,1.359-4.531,1.083-.736-.087-1.645-.322-2.758-.414-1.17-.123-2.452.158-3.341.434-1.936.679-2.973.879-4.991.996l-10.814,1.001c-1.813.066-3.586.45-5.358.807-.879.189-1.737.306-2.871.572l-2.641.797c-.833.225-1.292.312-2.028.261-.751-.031-1.67-.184-2.779-.204-1.093-.066-2.559.291-3.443.7-.945.398-1.696.776-2.294.94-1.205.23-3.438.373-5.108.562l-5.369.822-5.282,1.052c-1.154.225-3.218-.25-5.455.215-3.525.838-7.095,1.435-10.681,1.916-1.895.332-3.361.306-5.604.94l-2.569.848c-.644.22-1.461.301-2.411.455-1.778.317-3.545.398-5.573,1.047-1.885.639-3.075.914-5.026,1.18-3.622.363-6.993,1.829-10.564,2.437l-2.58.562c-.516.107-1.277.097-2.212.077-.848-.026-2.273,0-3.244.312l-2.61.73c-3.473,1.001-7.044,1.609-10.543,2.503l-10.605,2.196c-1.88.301-3.882,1.16-5.282,1.522-1.308.404-2.963.225-5.2.582-2.196.424-3.846,1.267-5.251,1.538l-5.374.935c-2.028.475-3.683,1.216-5.006,1.354-1.359.199-3.407-.204-5.752.49-2.166.7-3.336,1.461-4.608,1.359-.725,0-1.604-.107-2.636-.148-.516-.015-1.088-.01-1.691.072l-1.318.245c-1.767.296-3.509.761-5.302.802-1.732.169-3.591.148-5.588.613-1.931.439-2.983.628-4.74.404-.863-.097-1.834-.24-2.942-.235l-2.712.199c-3.586.48-7.208-.434-10.799-.209-2.002.041-3.075-.082-5.037-.47-.925-.163-2.166-.291-3.274-.225l-2.809.215c-1.19.056-3.29-.082-5.006-.112l-1.328-.046-1.057-.112-2.718-.363c-.976-.133-2.529-.133-3.535.031-1.052.158-1.87.327-2.431.368-.868.143-2.421-.347-4.751-.521-2.181,0-3.698.296-5.604.664-1.435.439-3.371.368-5.461,1.154-.153.056-.296.158-.398.306-.281.388-.194.935.199,1.216l.072.051-.015.036Z"/>
</svg>