<?xml version="1.0" encoding="UTF-8"?>
<svg id="_レイヤー_1" data-name="レイヤー_1" xmlns="http://www.w3.org/2000/svg" version="1.1" viewBox="0 0 850 300">
  <!-- Generator: Adobe Illustrator 30.2.1, SVG Export Plug-In . SVG Version: 2.1.1 Build 1)  -->
  <g>
    <g>
      <path d="M722.77,212.43c-6.05,0-10.12-2.62-11.44-7.37-.28-.99-1-1.79-1.95-2.17-.22-.09-.44-.15-.67-.19,11.2-5.2,17.25-16.67,20.2-24.44h.11v23.62c0,2.41.45,4.17,1.38,5.38.94,1.24,2.37,1.87,4.25,1.87.17,0,.34,0,.52-.02-2.69,1.77-7.44,3.31-12.4,3.31Z"/>
      <path d="M730.4,207.27c-.93-1.22-1.38-2.98-1.38-5.38v-23.62h-.11c-2.94,7.77-9,19.24-20.2,24.44.23.04.45.1.67.19.95.38,1.68,1.18,1.95,2.17,1.32,4.75,5.39,7.37,11.44,7.37,4.96,0,9.71-1.53,12.4-3.31-.18.01-.35.02-.52.02-1.87,0-3.3-.63-4.25-1.87Z"/>
      <path d="M810.8,124.26c-15.14-4.91-31.63-7.39-49.02-7.39-14.84,0-26.97,1.82-34.53,3.35-.03,0-.09.07-.07.14,1.16,6.17-.37,9.6-1.85,11.38-1.92,2.32-4.91,3.49-8.86,3.5-2.07,0-4.35-.34-6.78-.99-2.69-.71-5.56-1.8-8.57-3.25-3.03,3.2-8.26,6.54-15.55,9.94-.22.1-.44.18-.67.23-6.16,1.37-11.81,3.83-17.76,7.74v12.76c2.95-5.55,6.97-11.91,12.65-16.1.56-.42,1.25-.64,1.95-.64h.04c8.54.11,14.64,2.11,19.01,4.86,4.13,2.59,6.71,5.85,8.32,8.83.24.45.37.94.39,1.45l.03,1.12c.03.61-.12,1.22-.42,1.76-1.79,3.15-4.64,4.11-7.71,5.15-1.13.38-2.2.75-3.34,1.24-3.23,1.39-6.87,2.58-10.56,3.69-1.43.43-2.87.85-4.3,1.27-16.6,4.83-28.34,9.16-28.34,20.93,0,6.63,4.51,12.26,11.28,15.15,3.09,1.31,6.64,2.05,10.46,2.05,9.05,0,18.45-2.75,27.97-8.17-2.62.76-5.49,1.19-8.61,1.19-9.03,0-18.13-3.93-19.81-12.56-.18-.93-.28-1.91-.28-2.96-.13-6.89,4.4-11.5,10.49-14.9,3.18-1.77,6.78-3.22,10.36-4.49,3.67-1.28,7.44-2.4,11.09-3.48,11.01-3.27,21.41-6.35,21.41-12.09,0-1.53-.5-2.9-1.59-4.31-.7-.91-.87-2.11-.46-3.18.41-1.07,1.36-1.84,2.48-2.04,2.13-.38,4.42-.57,6.8-.57,12.53,0,28.64,5.3,46.67,15.35l.07-.19c-6.04-6.68-10.69-10.65-15.2-14.5-2.43-2.07-4.72-4.03-7.2-6.37-.77-.73-1.3-1.43-1.6-2.12-.41-.95-.35-2.03.17-2.93.97-1.69,3.91-6.82,51.42-9.63.05,0,.1-.05.11-.1,0-.05-.03-.11-.08-.13Z"/>
    </g>
    <g>
      <path d="M173.92,130.1c-.06-.08-.11-.17-.16-.25l-22.33-38.48-13.46-23.22h-16.29l21.67,37.34,4.22,7.26c.47.81.57,1.79.28,2.68-.3.89-.96,1.61-1.82,1.98-4.08,1.75-7.83,2.73-11.18,2.94-.44.03-.88.04-1.31.04-3.96,0-6.94-1.18-8.86-3.49-1.48-1.79-3.01-5.22-1.85-11.39.01-.07-.04-.13-.07-.14-7.56-1.53-19.69-3.35-34.53-3.35-17.39,0-33.89,2.49-49.03,7.39-.05.02-.09.07-.08.13,0,.05.05.09.11.1,47.51,2.81,50.45,7.95,51.42,9.63.51.89.57,1.98.17,2.93-.3.7-.82,1.39-1.6,2.12-2.49,2.35-4.79,4.31-7.22,6.39-4.5,3.83-9.15,7.8-15.21,14.59l.16.06c17.98-10.04,34.11-15.35,46.63-15.35,5.36,0,10.07.99,14.08,2.89,5.77,2.74,10.09,7.38,12.73,13.84.02.04.05.06.09.06l.1-.06c6.15-14.51,20.43-16.68,28.39-16.68,1.55,0,3.18.07,4.94.18l.02-.14Z"/>
      <path d="M144.97,68.14l8.22,14.07h84.79c1.17,0,2.25.62,2.84,1.64.59,1.01.59,2.26,0,3.28l-2.99,5.19c-.6,1.04-1.7,1.64-2.84,1.64-.42,0-.84-.08-1.24-.25-3.4-1.4-8.39-2.1-14.85-2.1-3.66,0-7.67.22-12.27.68-14.06,1.4-32.47,7.86-37.48,15.24-.91,1.34-.61,2.04-.51,2.28.97,2.29,7.42,3.43,13.67,4.53,2.61.46,5.3.93,7.85,1.52l.1-.59c-2.7-1.04-4.52-2.69-5.15-4.66-.62-1.95-.09-4.13,1.53-6.42,3.02-4.45,10.78-9.41,21.28-10.45.83-.08,1.73-.12,2.66-.12,8.18,0,16.62,2.81,20.07,6.68.94,1.05,1.1,2.59.39,3.82l-9.93,17.2c-.59,1.01-1.67,1.64-2.84,1.64h-30.3l-15.15,26.15,8.1,14.12,14.23-24.55c.59-1.01,1.67-1.63,2.84-1.63h30.32l39.78-68.88h-123.08Z"/>
    </g>
    <path d="M520.34,110.13l-8.08-14.09h24.13c1.17,0,2.25-.62,2.84-1.63l19.79-34.11h16.29l-17.89,30.82c-.59,1.01-.59,2.27,0,3.28.59,1.02,1.67,1.64,2.84,1.64h43.31l8.08,14.09h-91.31Z"/>
    <path d="M584.64,167.8c-.24-.86-.13-1.78.32-2.55l26.26-45.27h-16.29l-23.78,41c-.59,1.02-1.68,1.63-2.83,1.63-.22,0-.44-.02-.66-.07-3.24-.67-6.52-.99-10.02-.99-1.4,0-2.85.05-4.37.15-1.5.1-3.07.25-4.73.45-20.98,2.56-46.96,11.92-53.8,24.23-1.54,2.77-.85,4.29-.63,4.78,1.8,3.96,10.45,5.83,19.61,7.8,3.8.82,7.73,1.67,11.43,2.71l.26-1.79c-3.65-1.66-6.22-4.27-7.25-7.38-1.13-3.42-.47-7.29,1.95-11.44,4.29-7.72,15.32-16.33,30.29-18.16.76-.09,1.52-.15,2.28-.19.48-.02.97-.05,1.44-.05,3.68,0,7.21.7,10.5,2.09.87.37,1.54,1.09,1.84,1.98.3.89.2,1.87-.27,2.69l-9.68,16.68c-.59,1.01-1.67,1.63-2.84,1.63h-11l-8.2,14.09h29.2l8.65-14.84c.06-.14.12-.27.2-.4l2.9-4.99c.59-1.01,1.67-1.63,2.84-1.63.05,0,.1,0,.15,0,1.22.05,2.31.78,2.82,1.89,1.03,2.21,1.87,4.52,2.52,6.87l8.62-15.52c-2.21-1.29-4.22-2.41-6.11-3.41-.79-.42-1.37-1.14-1.61-1.99Z"/>
    <path d="M236.43,193.7h-37.37c-1.17,0-2.25-.63-2.84-1.64l-15.69-27.17h-16.27l13.8,23.9c.59,1.02.59,2.26,0,3.28-.59,1.01-1.67,1.64-2.84,1.64h-37.57c-9.09,0-18.74,5.71-18.74,16.28,0,6.38,4.37,13.82,16.69,13.82,1.41,0,2.8-.12,4.15-.35-5.79-.9-8.8-4.53-8.8-8.13,0-3.94,3.43-7.93,9.99-7.93h14.03c1.29,0,2.45.75,2.98,1.92.53,1.17.33,2.54-.51,3.51-1.93,2.22-4.25,4.6-5.77,6.09-.04.04-.07.07-.11.11-1.35,1.2-2.88,2.26-4.52,3.12,6.19-1.28,10.21-5.16,13.58-9.2l2.98-3.87c.62-.81,1.58-1.28,2.6-1.28h17.92c.08,0,.13,0,.21,0h60.27l-8.16-14.09Z"/>
    <path d="M612.17,210.79c-2.73,0-5.41-.71-7.73-2.05-2.07-1.2-5.83-3.87-7.72-8.32-1.76-4.14-1.33-8.53,1.28-13.05,3.12-5.4,11.63-10.56,16.58-12.2,2.7-.78,8.35-2.25,11.63-2.54,1.07-.09,2.02-.7,2.55-1.63l9.78-16.94c.21-.21.32-.34.47-.59l19.44-33.51h16.29l-36.13,62.15-10.69,18.52c-3.72,6.44-9.46,10.14-15.74,10.14ZM620.35,175.64c-.15,0-.31.01-.47.03l-.59.08c-6.43,1.11-13.53,3.31-18.16,11.33-3.82,6.61-2.18,12.17,1.41,14.25,1.07.62,2.22.93,3.4.93,2.99,0,5.89-2.05,7.94-5.61l9.29-16.09c.63-1.09.58-2.44-.12-3.48-.61-.91-1.64-1.44-2.71-1.44Z"/>
    <polygon points="205.66 171.89 197.58 157.81 232.58 157.81 240.66 171.89 205.66 171.89"/>
    <polygon points="137.68 178.8 154.77 149.32 171.05 149.33 153.97 178.8 137.68 178.8"/>
    <polygon points="503.53 160.52 527.06 119.98 543.34 119.98 519.82 160.52 503.53 160.52"/>
    <path d="M614.01,102.02c2.19-8.84,9.09-15.74,17.93-17.93-8.84-2.19-15.74-9.09-17.93-17.93-2.72,10.96-8.57,15.61-17.93,17.93,8.84,2.19,15.74,9.09,17.93,17.93Z"/>
    <polygon points="392.29 192.95 401.41 177.23 385.12 177.23 376 192.95 392.29 192.95"/>
    <path d="M207.07,119.06c1.27-5.11,5.25-9.1,10.36-10.36-5.11-1.27-9.1-5.25-10.36-10.36-1.57,6.33-4.95,9.02-10.36,10.36,5.11,1.27,9.1,5.25,10.36,10.36Z"/>
    <path d="M288.78,214.04c-12.95,0-23.1-9.62-23.1-21.9,0-16.16,15.32-21.47,30.13-26.62,4.96-1.72,10.07-3.49,14.54-5.66l-.46,1.3c-10.96,4.65-22.07,11.19-21.86,24.27,0,13.44,10.69,19.48,21.29,19.48,3.39,0,6.72-.57,9.72-1.64-7.3,5.04-18.24,10.76-30.27,10.76Z"/>
    <path d="M636.8,243.82c-.77-3.1-3.18-5.51-6.28-6.28h0s0,0,0,0c3.28-.81,5.33-2.44,6.28-6.28.77,3.1,3.18,5.51,6.28,6.28-3.1.77-5.51,3.18-6.28,6.28Z"/>
    <g>
      <path d="M658.47,234.18c-.62-.87-1.09-1.85-1.35-2.91-.95,3.84-3,5.47-6.28,6.28,1.67.41,3.13,1.32,4.25,2.54.96,1.04,1.67,2.31,2.03,3.74.77-3.1,3.18-5.51,6.28-6.28-2.03-.5-3.75-1.72-4.93-3.37Z"/>
      <path d="M618.19,234.63c-.79-.97-1.39-2.11-1.7-3.36-.95,3.84-3,5.47-6.28,6.28,1.86.46,3.46,1.52,4.62,2.96.77.96,1.35,2.08,1.66,3.32.77-3.1,3.18-5.51,6.28-6.28-1.84-.46-3.43-1.5-4.58-2.92Z"/>
    </g>
    <path d="M213.2,243.82c-.77-3.1-3.18-5.51-6.28-6.28h0s0,0,0,0c3.28-.81,5.33-2.44,6.28-6.28.77,3.1,3.18,5.51,6.28,6.28-3.1.77-5.51,3.18-6.28,6.28Z"/>
    <g>
      <path d="M234.87,234.18c-.62-.87-1.09-1.85-1.35-2.91-.95,3.84-3,5.47-6.28,6.28,1.67.41,3.13,1.32,4.25,2.54.96,1.04,1.67,2.31,2.03,3.74.77-3.1,3.18-5.51,6.28-6.28-2.03-.5-3.75-1.72-4.93-3.37Z"/>
      <path d="M194.58,234.63c-.79-.97-1.39-2.11-1.7-3.36-.95,3.84-3,5.47-6.28,6.28,1.86.46,3.46,1.52,4.62,2.96.77.96,1.35,2.08,1.66,3.32.77-3.1,3.18-5.51,6.28-6.28-1.84-.46-3.43-1.5-4.58-2.92Z"/>
    </g>
    <path d="M733.05,78.03c-.07,0-.14,0-.22,0-6.41.1-13.76,4.58-17.22,7.63-1.08,1.06-5.84,5.78-8.06,8.96-.61.88-1.62,1.4-2.69,1.4h-8.76c-1.17,0-2.26-.63-2.84-1.64-.58-1.02-.58-2.27,0-3.28l17.89-30.82h-16.29l-19.79,34.11c-.59,1.01-1.67,1.63-2.84,1.63h-49.57l8.08,14.09h100.25c9.09,0,18.74-5.71,18.74-16.28s-8.6-15.82-16.69-15.82ZM734.28,96.45h-18.67c-1.25,0-2.39-.71-2.94-1.83-.55-1.12-.42-2.46.34-3.45l.74-.95c3.98-4.78,9.21-9.64,17.84-10.01.35-.01.69-.04,1.04-.04,7.63,0,11.63,4.2,11.63,8.35s-3.43,7.93-9.99,7.93Z"/>
    <path d="M254.75,249.93s10.74-20.17,18.62-26.94c7.84-6.74,11.95,1.45,9.25,4.62-.01.02,0,.03.02.03,5.29-1.48,9.54,3.75,6.83,7.4-2.72,3.66-11.09,5.87-17.95,7.4s-15.28,5.44-16.77,7.5Z"/>
    <path d="M280.94,229.14c5.65-7.57,19.86-9.36,28.74-10.26,31.13-2.03,62.12,4.2,92.4,10.73,48.28,9.88,115.72,25.72,163.39,12.91,6.6-1.88,13.02-4.49,18.92-8,5.9-3.52,11.24-7.99,15.71-13.22l.26.22c-8.86,10.75-21.39,17.94-34.66,21.81-48.08,13.46-115.28-2.25-163.98-12.1-5.7-1.23-14.56-3.2-20.23-4.29-26.89-4.97-54.65-9.86-81.97-5.88-3.38.58-6.73,1.4-9.92,2.64-3.09,1.24-6.41,2.82-8.36,5.59,0,0-.31-.15-.31-.15h0Z"/>
    <g>
      <g>
        <path d="M311.23,245.27v-.11c.71-.28,1.23-1.33,1.28-2.61.08-2.44.11-3.83.11-5.3,0-3.52-.03-4.96-.11-6.15-.14-1.84-1.31-2.44-1.56-2.55v-.11c.9-.28,2.27-.45,3.63-.45,1.18,0,2.19.14,3.39.45v.11c-.19.11-1.12.71-1.26,2.58-.08,1.22-.14,2.81-.14,4.68h5.14c.27,0,.74-.03,1.15-.06l.03.06c-.11,1.16-1.37,2.1-2.79,2.1h-3.52c0,1.25.03,2.58.11,4.65.08,1.9,1.26,2.47,1.56,2.61v.11c-.93.28-2.35.45-3.63.45-1.07,0-2.02-.14-3.39-.45ZM322.4,245.27v-.11c.71-.28,1.23-1.33,1.28-2.61.08-2.44.11-3.83.11-5.3,0-3.52-.03-4.96-.11-6.15-.14-1.84-1.31-2.44-1.56-2.55v-.11c.9-.28,2.27-.45,3.63-.45,1.17,0,2.19.14,3.39.45v.11c-.19.11-1.15.71-1.26,2.58-.08,1.53-.14,3.6-.14,6.13,0,1.48,0,2.86.11,5.3.08,1.9,1.26,2.47,1.56,2.61v.11c-.93.28-2.35.45-3.63.45-1.07,0-2.02-.14-3.39-.45Z"/>
        <path d="M335.65,241.05c0-2.78,1.56-4.82,3.77-4.82l.03.06c-.25.65-.35,1.39-.35,2.24,0,3.15,1.64,5.3,4.02,5.3.38,0,.71-.03.96-.09l.03.06c-.57,1.08-2.3,1.93-3.93,1.93-2.76,0-4.51-1.82-4.51-4.68ZM343.54,240.34c0-3.15-1.64-5.3-4.02-5.3-.38,0-.71.03-.96.08l-.03-.06c.57-1.08,2.3-1.93,3.93-1.93,2.76,0,4.51,1.82,4.51,4.68s-1.56,4.82-3.77,4.82l-.03-.06c.25-.65.35-1.39.35-2.24Z"/>
        <path d="M352.2,243.37c0-.79.22-1.62.66-2.33h.05c.68,1.39,2.51,3.03,3.66,3.32l.03.06c-.3.74-1.26,1.31-2.19,1.31-1.31,0-2.21-.94-2.21-2.35ZM357.91,243.66c0-1.08-.66-1.98-2.35-3.26-1.91-1.42-2.62-2.41-2.62-3.6,0-1.82,1.83-3.49,3.91-3.49l.03.06c-.44.54-.66,1.13-.66,1.79,0,.99.44,1.59,2.13,2.84,2.13,1.56,2.95,2.69,2.95,4.03,0,1.98-1.69,3.52-3.99,3.52l-.03-.06c.41-.45.63-1.08.63-1.82ZM357.5,234.47l-.03-.06c.33-.77,1.17-1.28,2.16-1.28,1.18,0,1.86.71,1.86,1.87,0,.62-.22,1.36-.6,2.01h-.05c-.76-1.11-2.3-2.27-3.33-2.55Z"/>
        <path d="M367.09,245.44v-.11c.74-.51,1.18-1.53,1.18-2.75v-11.57c0-1.28-.3-1.82-1.23-2.13-.14-.06-.3-.11-.44-.14v-.11c1.07-.74,3.55-1.53,4.81-1.53.27,0,.33.71.33,4.2,0,2.13-.25,5.16-.52,6.5.38-.23.9-.45,1.39-.54l.05.06c-.82,2.92-.93,3.46-.93,5.16v.11c0,1.22.66,2.38,1.58,2.75v.11c-1.12.11-2.21.14-3.28.14s-2.02-.03-2.95-.14ZM374.41,245.44v-.11c.74-.51,1.18-1.53,1.18-2.75v-4.23c0-1.53-.68-2.38-1.91-2.38-.33,0-.79.06-1.28.2l-.05-.06c1.15-1.73,2.68-2.98,4.13-2.98,1.58,0,2.6,1.45,2.6,3.72v5.73c0,1.22.65,2.38,1.58,2.75v.11c-1.12.11-2.21.14-3.28.14s-2.02-.03-2.95-.14Z"/>
        <path d="M386.29,245.44v-.11c.74-.51,1.18-1.53,1.18-2.75v-5.53c0-1.28-.3-1.79-1.26-2.1-.16-.06-.33-.11-.52-.17v-.11c1.07-.74,3.66-1.53,4.92-1.53.25,0,.33.45.33,3.66v5.79c0,1.22.66,2.38,1.58,2.75v.11c-1.12.11-2.21.14-3.28.14s-2.02-.03-2.95-.14ZM386.97,229.42c0-1.19.87-2.07,2.08-2.07s2.08.88,2.08,2.07-.87,2.07-2.08,2.07-2.08-.88-2.08-2.07Z"/>
        <path d="M398.17,245.44v-.11c.74-.51,1.18-1.53,1.18-2.75v-5.62c0-1.05-.25-1.48-.63-1.73-.3-.2-.68-.34-1.15-.45v-.11c1.26-.85,3.72-1.53,4.78-1.53.19,0,.3.31.3,1.11,0,.74-.11,1.87-.35,3.52.38-.23.87-.4,1.39-.51l.05.06c-.63,2.07-.93,3.06-.93,5.13v.14c0,1.22.66,2.38,1.58,2.75v.11c-1.12.11-2.21.14-3.28.14s-2.02-.03-2.95-.14ZM405.49,245.44v-.11c.74-.51,1.18-1.53,1.18-2.75v-4.23c0-1.53-.68-2.38-1.91-2.38-.33,0-.79.06-1.28.2l-.05-.06c1.15-1.73,2.68-2.98,4.13-2.98,1.58,0,2.6,1.45,2.6,3.72v5.73c0,1.22.66,2.38,1.58,2.75v.11c-1.12.11-2.21.14-3.28.14s-2.02-.03-2.95-.14Z"/>
      </g>
      <g>
        <path d="M424.37,243.83c-2.38,0-4.02-2.16-4.02-5.3,0-.85.11-1.59.35-2.24l-.03-.06c-2.21,0-3.77,2.04-3.77,4.82s1.75,4.68,4.51,4.68c1.64,0,3.36-.85,3.93-1.93l-.03-.06c-.25.06-.57.09-.96.09Z"/>
        <path d="M419.86,234.71l.03.06c.25-.06.57.1.95.17,2.33.45,3.97,2.26,3.97,5.41,0,.85-.11,1.59-.36,2.24l.03.06c2.21,0,3.77-2.04,3.77-4.82,0-.65-.1-1.24-.27-1.77l-7.25-1.95c-.4.29-.67.26-.86.62Z"/>
      </g>
    </g>
    <path d="M254.75,249.93s10.74-20.17,18.62-26.94c7.84-6.74,11.95,1.45,9.25,4.62-.01.02,0,.03.02.03,5.29-1.48,9.54,3.75,6.83,7.4-2.72,3.66-11.09,5.87-17.95,7.4s-15.28,5.44-16.77,7.5Z"/>
    <path d="M280.94,229.14s.31.15.31.15c1.95-2.76,5.27-4.35,8.36-5.59,3.19-1.24,6.54-2.06,9.92-2.64,27.32-3.98,55.07.91,81.97,5.88,5.67,1.09,14.53,3.06,20.23,4.29,48.7,9.85,115.9,25.56,163.98,12.1,13.27-3.87,25.8-11.06,34.66-21.81l-.26-.22c-4.47,5.23-9.81,9.7-15.71,13.22-5.91,3.52-12.32,6.12-18.92,8-47.67,12.81-115.11-3.03-163.39-12.91-30.28-6.53-61.26-12.76-92.4-10.73-8.88.91-23.09,2.69-28.74,10.26h0Z"/>
    <g>
      <g>
        <g>
          <path d="M314.61,245.73c1.28,0,2.7-.17,3.63-.45v-.11c-.3-.14-1.48-.71-1.56-2.61-.08-2.07-.11-3.4-.11-4.65h3.52c1.42,0,2.68-.93,2.79-2.1l-.03-.06c-.41.03-.87.06-1.15.06h-5.14c0-1.87.05-3.46.14-4.68.14-1.87,1.07-2.47,1.26-2.58v-.11c-1.2-.31-2.21-.45-3.39-.45-1.37,0-2.73.17-3.63.45v.11c.25.11,1.42.71,1.56,2.55.08,1.19.11,2.64.11,6.15,0,1.48-.03,2.86-.11,5.3-.05,1.28-.57,2.33-1.28,2.61v.11c1.37.31,2.32.45,3.39.45Z"/>
          <path d="M325.79,245.73c1.28,0,2.7-.17,3.63-.45v-.11c-.3-.14-1.48-.71-1.56-2.61-.11-2.44-.11-3.83-.11-5.3,0-2.52.05-4.59.14-6.13.11-1.87,1.07-2.47,1.26-2.58v-.11c-1.2-.31-2.21-.45-3.39-.45-1.37,0-2.73.17-3.63.45v.11c.25.11,1.42.71,1.56,2.55.08,1.19.11,2.64.11,6.15,0,1.48-.03,2.86-.11,5.3-.05,1.28-.57,2.33-1.28,2.61v.11c1.37.31,2.32.45,3.39.45Z"/>
        </g>
        <g>
          <path d="M340.15,245.73c1.64,0,3.36-.85,3.93-1.93l-.03-.06c-.25.06-.57.09-.96.09-2.38,0-4.02-2.16-4.02-5.3,0-.85.11-1.59.35-2.24l-.03-.06c-2.21,0-3.77,2.04-3.77,4.82s1.75,4.68,4.51,4.68Z"/>
          <path d="M343.19,242.58l.03.06c2.21,0,3.77-2.04,3.77-4.82s-1.75-4.68-4.51-4.68c-1.64,0-3.36.85-3.93,1.93l.03.06c.25-.06.57-.08.96-.08,2.38,0,4.02,2.16,4.02,5.3,0,.85-.11,1.59-.35,2.24Z"/>
        </g>
        <g>
          <path d="M354.41,245.73c.93,0,1.89-.57,2.19-1.31l-.03-.06c-1.15-.28-2.98-1.93-3.66-3.32h-.05c-.44.71-.66,1.53-.66,2.33,0,1.42.9,2.35,2.21,2.35Z"/>
          <path d="M357.28,245.47l.03.06c2.29,0,3.99-1.53,3.99-3.52,0-1.33-.82-2.47-2.95-4.03-1.69-1.25-2.13-1.84-2.13-2.84,0-.65.22-1.25.66-1.79l-.03-.06c-2.08,0-3.91,1.67-3.91,3.49,0,1.19.71,2.18,2.62,3.6,1.69,1.28,2.35,2.18,2.35,3.26,0,.74-.22,1.36-.63,1.82Z"/>
          <path d="M360.83,237.02h.05c.38-.65.6-1.39.6-2.01,0-1.16-.68-1.87-1.86-1.87-.98,0-1.83.51-2.16,1.28l.03.06c1.04.28,2.57,1.45,3.33,2.55Z"/>
        </g>
        <g>
          <path d="M370.04,245.58c1.07,0,2.16-.03,3.28-.14v-.11c-.93-.37-1.58-1.53-1.58-2.75v-.11c0-1.7.11-2.24.93-5.16l-.05-.06c-.49.09-1.01.31-1.39.54.27-1.33.52-4.37.52-6.5,0-3.49-.05-4.2-.33-4.2-1.26,0-3.74.79-4.81,1.53v.11c.14.03.3.08.44.14.93.31,1.23.85,1.23,2.13v11.57c0,1.22-.44,2.24-1.18,2.75v.11c.93.11,1.91.14,2.95.14Z"/>
          <path d="M377.36,245.58c1.07,0,2.16-.03,3.28-.14v-.11c-.93-.37-1.58-1.53-1.58-2.75v-5.73c0-2.27-1.01-3.72-2.6-3.72-1.45,0-2.98,1.25-4.13,2.98l.05.06c.49-.14.96-.2,1.28-.2,1.23,0,1.91.85,1.91,2.38v4.23c0,1.22-.44,2.24-1.18,2.75v.11c.93.11,1.91.14,2.95.14Z"/>
        </g>
        <g>
          <path d="M389.24,245.58c1.07,0,2.16-.03,3.28-.14v-.11c-.93-.37-1.58-1.53-1.58-2.75v-5.79c0-3.21-.08-3.66-.33-3.66-1.26,0-3.85.79-4.92,1.53v.11c.19.06.36.11.52.17.95.31,1.26.82,1.26,2.1v5.53c0,1.22-.44,2.24-1.18,2.75v.11c.93.11,1.91.14,2.95.14Z"/>
          <path d="M389.05,231.49c1.2,0,2.08-.88,2.08-2.07s-.87-2.07-2.08-2.07-2.08.88-2.08,2.07.87,2.07,2.08,2.07Z"/>
        </g>
        <g>
          <path d="M401.12,245.58c1.07,0,2.16-.03,3.28-.14v-.11c-.93-.37-1.58-1.53-1.58-2.75v-.14c0-2.07.3-3.06.93-5.13l-.05-.06c-.52.11-1.01.28-1.39.51.25-1.64.35-2.78.35-3.52,0-.79-.11-1.11-.3-1.11-1.07,0-3.52.68-4.78,1.53v.11c.47.11.85.26,1.15.45.38.26.63.68.63,1.73v5.62c0,1.22-.44,2.24-1.18,2.75v.11c.93.11,1.91.14,2.95.14Z"/>
          <path d="M408.44,245.58c1.07,0,2.16-.03,3.28-.14v-.11c-.93-.37-1.58-1.53-1.58-2.75v-5.73c0-2.27-1.01-3.72-2.6-3.72-1.45,0-2.98,1.25-4.13,2.98l.05.06c.49-.14.96-.2,1.28-.2,1.23,0,1.91.85,1.91,2.38v4.23c0,1.22-.44,2.24-1.18,2.75v.11c.93.11,1.91.14,2.95.14Z"/>
        </g>
      </g>
      <g>
        <path d="M424.37,243.83c-2.38,0-4.02-2.16-4.02-5.3,0-.85.11-1.59.35-2.24l-.03-.06c-2.21,0-3.77,2.04-3.77,4.82s1.75,4.68,4.51,4.68c1.64,0,3.36-.85,3.93-1.93l-.03-.06c-.25.06-.57.09-.96.09Z"/>
        <path d="M419.86,234.71l.03.06c.25-.06.57.1.95.17,2.33.45,3.97,2.26,3.97,5.41,0,.85-.11,1.59-.36,2.24l.03.06c2.21,0,3.77-2.04,3.77-4.82,0-.65-.1-1.24-.27-1.77l-7.25-1.95c-.4.29-.67.26-.86.62Z"/>
      </g>
    </g>
    <rect x="423.89" y="224.04" width="103.91" height=".5"/>
    <rect x="307.95" y="245.19" width="103.91" height=".5"/>
    <g>
      <path d="M461.61,239.07c0-1.56,1.56-2.64,5.63-3.8l.03.11c-1.5,1.25-2.05,2.04-2.05,2.89s.63,1.53,1.48,1.53c.25,0,.52-.06.79-.11l.03.06c-.57,1.02-1.8,1.73-3.14,1.73-1.58,0-2.76-1.02-2.76-2.41ZM461.85,232.32c0-1.16,2.32-2.69,4.18-2.92v.06c-.71.68-.93,1.14-.93,1.84,0,.62.19,1.19.6,1.79l-.03.06c-.63.25-1.37.43-1.97.43-1.07,0-1.86-.54-1.86-1.25ZM468.3,239.97c0-.43.11-.96.33-1.7-.6.31-1.12.43-1.39.45l-.05-.06c.66-1.22.93-2.55.93-4.45s-.36-3.01-1.23-3.46c-.16-.09-.33-.14-.49-.17l-.03-.06c.55-.91,1.97-1.64,3.09-1.64,1.45,0,2.13,1.19,2.13,3.6v5.53c0,1.16.6,1.82,1.67,1.82h.08l.03.06c-1.04,1.11-2.05,1.59-3.33,1.59-1.12,0-1.72-.54-1.72-1.5Z"/>
      <path d="M478.79,241.19v-.11c.74-.51,1.18-1.53,1.18-2.75v-5.62c0-1.05-.25-1.48-.63-1.73-.3-.2-.68-.34-1.15-.45v-.11c1.26-.85,3.71-1.53,4.78-1.53.19,0,.3.31.3,1.11,0,.74-.11,1.87-.36,3.52.38-.23.87-.4,1.39-.51l.05.06c-.63,2.07-.93,3.06-.93,5.13v.14c0,1.22.65,2.38,1.58,2.75v.11c-1.12.11-2.21.14-3.28.14s-2.02-.03-2.95-.14ZM486.11,241.19v-.11c.74-.51,1.18-1.53,1.18-2.75v-4.23c0-1.53-.68-2.38-1.91-2.38-.33,0-.79.06-1.28.2l-.05-.06c1.15-1.73,2.68-2.98,4.13-2.98,1.58,0,2.6,1.45,2.6,3.72v5.73c0,1.22.66,2.38,1.58,2.75v.11c-1.12.11-2.21.14-3.28.14s-2.02-.03-2.95-.14Z"/>
      <path d="M497.52,239.07c0-1.56,1.56-2.64,5.63-3.8l.03.11c-1.5,1.25-2.05,2.04-2.05,2.89s.63,1.53,1.48,1.53c.25,0,.52-.06.79-.11l.03.06c-.57,1.02-1.8,1.73-3.14,1.73-1.58,0-2.76-1.02-2.76-2.41ZM497.77,232.32c0-1.16,2.32-2.69,4.18-2.92v.06c-.71.68-.93,1.14-.93,1.84,0,.62.19,1.19.6,1.79l-.03.06c-.63.25-1.37.43-1.97.43-1.07,0-1.86-.54-1.86-1.25ZM504.22,239.97c0-.43.11-.96.33-1.7-.6.31-1.12.43-1.39.45l-.05-.06c.65-1.22.93-2.55.93-4.45s-.35-3.01-1.23-3.46c-.16-.09-.33-.14-.49-.17l-.03-.06c.55-.91,1.97-1.64,3.09-1.64,1.45,0,2.13,1.19,2.13,3.6v5.53c0,1.16.6,1.82,1.67,1.82h.08l.03.06c-1.04,1.11-2.05,1.59-3.33,1.59-1.12,0-1.72-.54-1.72-1.5Z"/>
      <path d="M515.66,237.59v-6.58h-1.61v-.4c.9-.94,1.78-1.84,2.51-2.58,1.31-1.33,1.97-1.9,2.21-1.9h.35v3.03h3.39l.03.06c-.38,1.19-1.09,1.79-2.08,1.79h-1.34v5.56c0,1.67.96,2.64,2.6,2.64.36,0,.63-.03.85-.11l.05.06c-.76,1.42-2.35,2.33-3.96,2.33-1.94,0-3-1.36-3-3.89Z"/>
      <path d="M527.3,239.07c0-1.56,1.56-2.64,5.63-3.8l.03.11c-1.5,1.25-2.05,2.04-2.05,2.89s.63,1.53,1.48,1.53c.25,0,.52-.06.79-.11l.03.06c-.57,1.02-1.8,1.73-3.14,1.73-1.58,0-2.76-1.02-2.76-2.41ZM527.54,232.32c0-1.16,2.32-2.69,4.18-2.92v.06c-.71.68-.93,1.14-.93,1.84,0,.62.19,1.19.6,1.79l-.03.06c-.63.25-1.37.43-1.97.43-1.07,0-1.86-.54-1.86-1.25ZM533.99,239.97c0-.43.11-.96.33-1.7-.6.31-1.12.43-1.39.45l-.05-.06c.65-1.22.93-2.55.93-4.45s-.35-3.01-1.23-3.46c-.16-.09-.33-.14-.49-.17l-.03-.06c.55-.91,1.97-1.64,3.09-1.64,1.45,0,2.13,1.19,2.13,3.6v5.53c0,1.16.6,1.82,1.67,1.82h.08l.03.06c-1.04,1.11-2.05,1.59-3.33,1.59-1.12,0-1.72-.54-1.72-1.5Z"/>
    </g>
    <path d="M419.55,227.16c-.35-1.41-1.45-2.51-2.86-2.86h0s0,0,0,0c1.5-.37,2.43-1.11,2.86-2.86.35,1.41,1.45,2.51,2.86,2.86-1.41.35-2.51,1.45-2.86,2.86Z"/>
    <path d="M532.5,227.16c-.35-1.41-1.45-2.51-2.86-2.86h0s0,0,0,0c1.5-.37,2.43-1.11,2.86-2.86.35,1.41,1.45,2.51,2.86,2.86-1.41.35-2.51,1.45-2.86,2.86Z"/>
    <path d="M303.44,248.19c-.35-1.41-1.45-2.51-2.86-2.86h0s0,0,0,0c1.5-.37,2.43-1.11,2.86-2.86.35,1.41,1.45,2.51,2.86,2.86-1.41.35-2.51,1.45-2.86,2.86Z"/>
    <path d="M431.32,248.19c-.35-1.41-1.45-2.51-2.86-2.86h0s0,0,0,0c1.5-.37,2.43-1.11,2.86-2.86.35,1.41,1.45,2.51,2.86,2.86-1.41.35-2.51,1.45-2.86,2.86Z"/>
    <path d="M340.89,200.82c0-.54.15-1.07.42-1.55l32.99-58.9h-38.89c-1.52,0-2.89-1.06-3.22-2.65-.17-.81.02-1.65.44-2.36l33.16-57.44c.16-.27.35-.52.58-.73,2.23-2.13,3.78-4.8,4.49-7.73.08-.33.19-.64.36-.93l.03-.06c.3-.51.31-1.12.15-1.69-.08-.28-.12-.58-.12-.88-.01-6.72-4.49-13.8-12.87-15.47-1.2-.24-2.47-.37-3.83-.37-6.26,0-13.13,4.13-17.15,7.68-1.08,1.06-5.85,5.78-8.07,8.98-.61.88-1.61,1.39-2.68,1.39h-53.33l8.08,14.09h13.12c.72,0,1.44.2,2.01.63,1.4,1.06,1.7,2.9.89,4.29l-61.2,105.47h16.29l63.11-108.76c.59-1.01,1.67-1.63,2.83-1.63h22.88c1.52,0,2.89,1.06,3.22,2.65.17.81-.02,1.65-.44,2.36l-32.48,56.26,6.3,10.99h26.51c.71,0,1.42.19,1.99.62,1.4,1.05,1.71,2.86.93,4.26l-22.65,40.57c-.27.49-.67.9-1.15,1.2-.58.36-1.18.69-1.8,1,.75.01,1.5.29,2.11.82.54.46.86,1.12,1.04,1.81,1.29,4.96,4.94,7.69,10.28,7.69,4.18,0,8.79-1.55,11.39-3.69-.19.02-.38.02-.57.02-3.44,0-5.18-2.65-5.17-7.94ZM337.46,68.12c-1.25,0-2.39-.71-2.94-1.83-.55-1.12-.42-2.46.34-3.45l.43-.55c4.14-4.97,9.62-10.05,18.89-10.05,1.1,0,2.11.1,3.05.26,5.64.96,8.57,4.54,8.57,8.09,0,3.35-2.4,6.25-6.11,7.38-.31.1-.63.14-.96.14h-21.27Z"/>
    <polygon points="499.83 81.59 492.38 68.16 476.09 68.16 491.81 95.62 514.14 134.62 521.87 121.32 499.83 81.59"/>
    <g>
      <path d="M441.75,226.84c.08,1.19.11,2.64.11,6.15,0,1.46-.03,2.83-.11,5.22l4.25.73c-.04-.2-.07-.41-.08-.65-.11-2.44-.11-3.83-.11-5.3,0-2.52.05-4.59.14-6.13.11-1.87,1.07-2.47,1.26-2.58v-.1h-7.02v.1c.25.11,1.42.71,1.56,2.55Z"/>
      <path d="M450.38,224.4c.38.23.49.48.49,1.19,0,1.79-1.64,4.42-4.29,6.92,1.54,3.34,2.69,5.77,4.23,7.26l6.56,1.13c-1.67-.92-3.8-3.88-7.05-9.84,1.28-1.33,2.49-2.75,3.91-4.71.9-1.25,1.45-1.79,1.97-1.96v-.14s-.11-.04-.16-.07h-5.43c-.08.02-.16.04-.24.07v.14Z"/>
    </g>
  </g>
  <path d="M492.13,104.8h-5.58s0,0,0,0h-37.78c-1.17,0-2.25-.62-2.84-1.64-.59-1.01-.59-2.26,0-3.28l22.86-39.59h-16.27l-24.75,42.87c-.59,1.01-1.67,1.64-2.84,1.64h-18.44c-1.18,0-2.28-.64-2.86-1.67-.77-1.36-2.56-4-6.71-8.74-4.07-3.62-10.81-7.27-16.7-7.27-11.47,0-16.69,8.03-16.69,15.48,0,6.42,4.25,13.79,13.75,15.77.43.09.84.27,1.2.52h34.53c1.17,0,2.25.62,2.84,1.64.59,1.01.59,2.26,0,3.28l-28.81,49.89h16.27l30.7-53.17c.59-1.01,1.67-1.64,2.84-1.64h42.01c1.17,0,2.26.63,2.84,1.64.58,1.02.58,2.27,0,3.28l-17.22,29.67c-.14.24-.31.46-.51.66l-10.74,18.61-4.56,7.8-9.29,16.1c-2.06,3.57-4.95,5.61-7.94,5.61-1.19,0-2.34-.31-3.4-.93-3.59-2.07-5.23-7.63-1.41-14.24,4.63-8.02,11.73-10.22,18.16-11.33l.59-.08c.15-.02.31-.03.46-.03-15.28.41-21.01,5.94-24.36,11.74-2.55,4.41-2.65,8.79-.31,13,2.37,4.25,6.5,7.07,8.75,8.37,2.32,1.34,4.99,2.05,7.73,2.05,6.28,0,12.02-3.7,15.74-10.14l10.69-18.52,36.45-62.7-8.39-14.63ZM400.29,102.97c-.55,1.12-1.69,1.83-2.94,1.83h-21.25c-.32,0-.64-.05-.95-.14-3.73-1.13-6.15-4.03-6.15-7.4,0-4.15,3.99-8.35,11.63-8.35,9.26,0,14.71,5.04,18.9,10.06l.42.54c.76.99.89,2.33.34,3.45Z"/>
</svg>