<?xml version="1.0" encoding="UTF-8"?>
<svg id="_レイヤー_1" xmlns="http://www.w3.org/2000/svg" version="1.1" viewBox="0 0 850 300">
  <!-- Generator: Adobe Illustrator 30.2.1, SVG Export Plug-In . SVG Version: 2.1.1 Build 1)  -->
  <path d="M728.74,179.49v22.39c0,2.48.47,4.29,1.44,5.55.92,1.21,2.26,1.87,4,1.97-2.46,1.37-6.61,2.76-11.41,2.76-5.92,0-9.88-2.54-11.17-7.16-.07-.25-.17-.51-.29-.72v-.03s-.02-.02-.02-.02c-.39-.7-1.01-1.26-1.76-1.57l.14-.06h-.07c10.08-5.05,15.91-15.08,19.13-23.11M729.02,178.26h-.11c-2.95,7.77-9,19.24-20.2,24.44,0,0,0,0,.01,0,0,0,0,0-.01,0,.23.04.45.1.67.19.71.28,1.3.81,1.66,1.47,0,0,0,.01,0,.02.12.22.21.45.28.69,1.32,4.75,5.39,7.37,11.44,7.37,4.96,0,9.71-1.53,12.4-3.31-.01,0-.02,0-.04,0,.01,0,.03-.01.04-.02-.18.02-.35.02-.52.02-1.88,0-3.31-.63-4.25-1.87-.93-1.21-1.38-2.97-1.38-5.38v-23.61h0Z"/>
  <path d="M761.78,117.15c17.05,0,33.21,2.39,48.07,7.1-46.78,2.83-49.75,8.01-50.73,9.72-.57.98-.63,2.14-.18,3.18.32.73.86,1.45,1.67,2.21,2.4,2.26,4.59,4.15,7.21,6.38,4.31,3.68,8.76,7.48,14.44,13.66-17.65-9.7-33.46-14.82-45.79-14.82-2.41,0-4.71.19-6.85.57-1.22.22-2.25,1.07-2.69,2.22-.45,1.17-.26,2.46.5,3.45,1.04,1.35,1.53,2.67,1.53,4.14,0,5.52-10.28,8.57-21.16,11.8h-.05c-3.44,1.03-7.34,2.19-11.1,3.5-4.33,1.54-7.64,2.97-10.4,4.51-7.27,4.06-10.75,9.02-10.64,15.15,0,1.04.09,2.02.29,3.01,1.84,9.44,11.97,12.79,20.09,12.79,2.25,0,4.45-.23,6.57-.67-8.83,4.7-17.54,7.08-25.93,7.08-3.69,0-7.18-.68-10.35-2.03-6.85-2.92-11.11-8.63-11.11-14.89,0-11.58,11.66-15.86,28.14-20.66l.78-.23c1.17-.34,2.35-.69,3.52-1.04,3.08-.93,7.06-2.18,10.59-3.7,1.14-.49,2.22-.86,3.34-1.24,3.09-1.05,6.01-2.03,7.85-5.27.33-.59.49-1.26.46-1.91l-.03-1.12c-.02-.56-.16-1.09-.42-1.57-1.98-3.67-4.81-6.68-8.42-8.94-5.01-3.15-11.46-4.8-19.2-4.9-.77,0-1.52.25-2.12.7-5.67,4.19-9.62,10.48-12.2,15.2v-11.48c5.87-3.84,11.45-6.26,17.54-7.62.23-.05.47-.13.73-.25,7.21-3.36,12.42-6.68,15.49-9.85,2.96,1.41,5.8,2.48,8.43,3.18,2.48.66,4.79,1,6.85,1,4.05-.01,7.11-1.22,9.08-3.6,1.51-1.81,3.06-5.27,1.94-11.46,7.55-1.52,19.58-3.31,34.29-3.31M761.78,116.87c-14.84,0-26.97,1.82-34.53,3.35-.03,0-.09.07-.07.14,1.16,6.17-.37,9.6-1.85,11.38-1.92,2.32-4.91,3.49-8.86,3.5-2.07,0-4.35-.34-6.78-.99-2.69-.71-5.56-1.8-8.57-3.25-3.03,3.2-8.26,6.54-15.55,9.94-.22.1-.44.18-.67.23-6.16,1.37-11.81,3.83-17.76,7.74v12.76c2.95-5.55,6.97-11.91,12.65-16.1.56-.42,1.25-.64,1.95-.64h.04c8.54.11,14.64,2.11,19.01,4.86,4.13,2.59,6.71,5.85,8.32,8.83.24.45.37.94.39,1.45l.03,1.12c.03.61-.12,1.22-.42,1.76-1.79,3.15-4.64,4.11-7.71,5.15-1.13.38-2.2.75-3.34,1.24-3.23,1.39-6.87,2.58-10.56,3.69-1.43.43-2.87.85-4.3,1.27-16.6,4.83-28.34,9.16-28.34,20.93,0,6.63,4.51,12.26,11.28,15.15,3.09,1.31,6.64,2.05,10.46,2.05,9.05,0,18.45-2.75,27.97-8.17-2.62.76-5.49,1.19-8.61,1.19-9.03,0-18.13-3.93-19.81-12.56-.18-.93-.28-1.91-.28-2.96-.13-6.89,4.4-11.5,10.49-14.9,3.18-1.77,6.78-3.22,10.36-4.49,3.67-1.28,7.44-2.4,11.09-3.48,11.01-3.27,21.41-6.35,21.41-12.09,0-1.53-.5-2.9-1.59-4.31-.7-.91-.87-2.11-.46-3.18s1.36-1.84,2.48-2.04c2.13-.38,4.42-.57,6.8-.57,12.53,0,28.64,5.3,46.67,15.35l.07-.19c-6.04-6.68-10.69-10.65-15.2-14.5-2.43-2.07-4.72-4.03-7.2-6.37-.77-.73-1.3-1.43-1.6-2.12-.41-.95-.35-2.03.17-2.93.97-1.69,3.91-6.82,51.42-9.63.05,0,.1-.05.11-.1,0-.05-.03-.11-.08-.13h0c-15.14-4.9-31.63-7.38-49.02-7.38h0Z"/>
  <path d="M137.81,68.43l13.38,23.08,22.29,38.42c-1.76-.1-3.21-.15-4.51-.15-7.96,0-22.18,2.15-28.48,16.46-2.66-6.28-6.94-10.85-12.71-13.59-4.09-1.94-8.86-2.92-14.2-2.92-12.32,0-28.11,5.11-45.71,14.8,5.67-6.24,10.06-9.98,14.32-13.6l.27-.23c2.34-2.01,4.56-3.9,6.96-6.17.81-.75,1.35-1.48,1.67-2.22.43-1.03.36-2.22-.19-3.18-.99-1.71-3.98-6.89-50.77-9.71,14.89-4.72,31.07-7.11,48.1-7.11,14.74,0,26.78,1.8,34.29,3.31-1.13,6.18.43,9.65,1.94,11.47,1.98,2.38,5.04,3.59,9.08,3.59.49,0,.93-.01,1.33-.04,3.39-.21,7.19-1.21,11.27-2.96.93-.4,1.65-1.18,1.98-2.15.32-.97.21-2.03-.3-2.91l-4.22-7.26-21.42-36.91h15.63M137.97,68.15h-16.29l21.67,37.34,4.22,7.26c.47.81.57,1.79.28,2.68-.3.89-.96,1.61-1.82,1.98-4.08,1.75-7.83,2.73-11.18,2.94-.44.03-.88.04-1.31.04-3.96,0-6.94-1.18-8.86-3.49-1.48-1.79-3.01-5.22-1.85-11.39.01-.07-.04-.13-.07-.14-7.56-1.53-19.69-3.35-34.53-3.35-17.39,0-33.89,2.49-49.03,7.39-.05.02-.09.07-.08.13,0,.05.05.09.11.1,47.51,2.81,50.45,7.95,51.42,9.63.51.89.57,1.98.17,2.93-.3.7-.82,1.39-1.6,2.12-2.49,2.35-4.79,4.31-7.22,6.39-4.5,3.83-9.15,7.8-15.21,14.59l.16.06c17.98-10.04,34.11-15.35,46.63-15.35,5.36,0,10.07.99,14.08,2.89,5.77,2.74,10.09,7.38,12.73,13.84.02.04.05.06.09.06l.1-.06c6.15-14.51,20.43-16.68,28.39-16.68,1.55,0,3.18.07,4.94.18l.02-.14h-.01c-.06-.08-.11-.17-.16-.25l-22.33-38.48-13.46-23.22h0Z"/>
  <path d="M267.6,68.45l-39.45,68.31h-30.16c-1.26,0-2.45.68-3.09,1.77l-13.98,24.12-7.77-13.55,14.99-25.87h30.14c1.26,0,2.44-.68,3.09-1.78l9.93-17.2c.77-1.34.6-3.01-.42-4.15-3.5-3.93-12.03-6.77-20.28-6.77-.95,0-1.85.04-2.69.12-10.6,1.05-18.43,6.07-21.48,10.57-1.69,2.39-2.22,4.63-1.57,6.67.64,2,2.45,3.68,5.1,4.75v.07c-2.41-.54-4.93-.99-7.37-1.42l-.22-.04c-5.88-1.03-12.55-2.21-13.46-4.36-.08-.2-.33-.8.48-2.01,4.97-7.32,23.28-13.72,37.27-15.12,4.57-.46,8.57-.68,12.24-.68,6.43,0,11.39.7,14.74,2.08.43.18.88.27,1.35.27,1.27,0,2.45-.68,3.09-1.78l2.99-5.19c.64-1.1.64-2.47,0-3.56-.64-1.1-1.82-1.78-3.09-1.78h-84.63l-7.87-13.47h122.12M144.97,68.14l8.22,14.07h84.79c1.17,0,2.25.62,2.84,1.64.59,1.01.59,2.26,0,3.28l-2.99,5.19c-.6,1.04-1.7,1.64-2.84,1.64-.42,0-.84-.08-1.24-.25-3.4-1.4-8.39-2.1-14.85-2.1-3.66,0-7.67.22-12.27.68-14.06,1.4-32.47,7.86-37.48,15.24-.91,1.34-.61,2.04-.51,2.28.97,2.29,7.42,3.43,13.67,4.53,2.61.46,5.3.93,7.85,1.52l.1-.59c-2.7-1.04-4.52-2.69-5.15-4.66-.62-1.95-.09-4.13,1.53-6.42,3.02-4.45,10.78-9.41,21.28-10.45.83-.08,1.73-.12,2.66-.12,8.18,0,16.62,2.81,20.07,6.68.94,1.05,1.1,2.59.39,3.82l-9.93,17.2c-.59,1.01-1.67,1.64-2.84,1.64h-30.3l-15.15,26.15,8.1,14.12,14.23-24.55c.59-1.01,1.67-1.63,2.84-1.63h30.32l39.78-68.88h-123.08l-.04-.03h0Z"/>
  <path d="M574.82,60.58l-17.64,30.39c-.64,1.1-.64,2.47,0,3.56.64,1.1,1.82,1.78,3.09,1.78h43.15l7.75,13.52h-90.66l-7.75-13.52h23.64c1.26,0,2.45-.68,3.09-1.77l19.71-33.97h15.63M575.31,60.3h-16.29l-19.79,34.11c-.59,1.01-1.67,1.63-2.84,1.63h-24.13l8.08,14.09h91.31l-8.08-14.09h-43.31c-1.17,0-2.25-.62-2.84-1.64-.59-1.01-.59-2.27,0-3.28l17.89-30.82h0Z"/>
  <path d="M610.73,120.26l-26.01,44.84c-.48.83-.61,1.83-.35,2.77l.07.21h0c.29.83.9,1.54,1.68,1.96,1.85.98,3.77,2.05,5.86,3.26l-8.15,14.68c-.63-2.17-1.42-4.27-2.35-6.25-.56-1.21-1.73-2-3.08-2.06h-.15c-1.26,0-2.45.68-3.09,1.77l-2.9,4.98c-.09.15-.16.3-.2.41l-8.57,14.7h-28.54l7.87-13.52h10.84c1.26,0,2.45-.68,3.09-1.77l9.68-16.68c.51-.89.62-1.96.29-2.92-.33-.96-1.05-1.75-2-2.15-3.32-1.4-6.89-2.11-10.61-2.11-.36,0-.73.02-1.1.03l-.36.02c-.82.04-1.58.11-2.3.19-15.07,1.84-26.18,10.52-30.5,18.3-2.47,4.24-3.13,8.16-1.97,11.67,1.03,3.12,3.59,5.76,7.21,7.46l-.18,1.26c-3.64-1.01-7.45-1.83-11.14-2.63-9.08-1.95-17.67-3.8-19.41-7.64-.21-.47-.85-1.88.62-4.52,6.79-12.23,32.68-21.54,53.59-24.09,1.68-.2,3.22-.35,4.71-.45,1.53-.1,2.95-.15,4.35-.15,3.5,0,6.76.32,9.96.98.23.05.46.08.72.08,1.26,0,2.44-.68,3.08-1.77l23.7-40.86h15.63M611.22,119.98h-16.29l-23.78,41c-.59,1.02-1.68,1.63-2.83,1.63-.22,0-.44-.02-.66-.07-3.24-.67-6.52-.99-10.02-.99-1.4,0-2.85.05-4.37.15-1.5.1-3.07.25-4.73.45-20.98,2.56-46.96,11.92-53.8,24.23-1.54,2.77-.85,4.29-.63,4.78,1.8,3.96,10.45,5.83,19.61,7.8,3.8.82,7.73,1.67,11.43,2.71l.26-1.79c-3.65-1.66-6.22-4.27-7.25-7.38-1.13-3.42-.47-7.29,1.95-11.44,4.29-7.72,15.32-16.33,30.29-18.16.76-.09,1.52-.15,2.28-.19.48-.02.97-.05,1.44-.05,3.68,0,7.21.7,10.5,2.09.87.37,1.54,1.09,1.84,1.98.3.89.2,1.87-.27,2.69l-9.68,16.68c-.59,1.01-1.67,1.63-2.84,1.63h-11l-8.2,14.09h29.2l8.65-14.84c.06-.14.12-.27.2-.4l2.9-4.99c.59-1.01,1.67-1.63,2.84-1.63h.15c1.22.05,2.31.78,2.82,1.89,1.03,2.21,1.87,4.52,2.52,6.87l8.62-15.52c-2.21-1.29-4.22-2.41-6.11-3.41-.79-.42-1.37-1.14-1.61-1.99h-.01c-.24-.86-.13-1.78.32-2.55l26.26-45.27h0Z"/>
  <path d="M180.37,165.17l15.61,27.03c.64,1.1,1.82,1.78,3.08,1.78h37.21l7.84,13.53h-77.91c-1.12,0-2.15.51-2.82,1.39l-2.97,3.86c-2.94,3.53-6.37,6.96-11.43,8.58.98-.63,1.91-1.34,2.79-2.12l.11-.11c.76-.74,3.41-3.37,5.79-6.11.91-1.05,1.13-2.55.55-3.81-.57-1.27-1.85-2.09-3.24-2.09h-14.03c-6.74,0-10.27,4.13-10.27,8.21,0,3.17,2.31,6.72,7.41,8.07-.82.08-1.65.13-2.48.13-12.11,0-16.41-7.29-16.41-13.54,0-10.39,9.51-16,18.46-16h37.57c1.26,0,2.44-.68,3.09-1.78.65-1.12.65-2.45,0-3.56l-13.55-23.47h15.62M180.53,164.89h-16.27l13.8,23.9c.59,1.02.59,2.26,0,3.28-.59,1.01-1.67,1.64-2.84,1.64h-37.57c-9.09,0-18.74,5.71-18.74,16.28,0,6.38,4.37,13.82,16.69,13.82,1.41,0,2.8-.12,4.15-.35-5.79-.9-8.8-4.53-8.8-8.13,0-3.94,3.43-7.93,9.99-7.93h14.03c1.29,0,2.45.75,2.98,1.92.53,1.17.33,2.54-.51,3.51-1.93,2.22-4.25,4.6-5.77,6.09-.04.04-.07.07-.11.11-1.35,1.2-2.88,2.26-4.52,3.12,6.19-1.28,10.21-5.16,13.58-9.2l2.98-3.87c.62-.81,1.58-1.28,2.6-1.28h78.4l-8.16-14.09h-.01s-37.37,0-37.37,0c-1.17,0-2.25-.63-2.84-1.64l-15.69-27.17h0Z"/>
  <path d="M674.25,120.24l-35.88,61.72-10.69,18.52c-3.67,6.35-9.32,10-15.49,10l-.18.02c-2.63-.03-5.19-.72-7.42-2.01-2.04-1.18-5.75-3.82-7.6-8.19-1.72-4.05-1.3-8.36,1.26-12.8,3.09-5.35,11.52-10.45,16.41-12.07,2.79-.81,8.37-2.25,11.58-2.53,1.16-.1,2.2-.76,2.77-1.77l9.76-16.91c.2-.2.32-.35.49-.62l19.36-33.37h15.63M605.94,202.54c3.1,0,6.08-2.1,8.19-5.75l9.29-16.09c.68-1.17.63-2.66-.13-3.78-.66-.98-1.76-1.56-2.94-1.57-.16,0-.33.01-.5.03l-.6.08c-6.45,1.11-13.67,3.35-18.36,11.47-3.91,6.77-2.2,12.49,1.51,14.64,1.11.64,2.3.97,3.54.97M674.74,119.96h-16.29l-19.44,33.51c-.15.25-.26.38-.47.59l-9.78,16.94c-.53.93-1.48,1.54-2.55,1.63-3.28.29-8.93,1.76-11.63,2.54-4.95,1.64-13.46,6.8-16.58,12.2-2.61,4.52-3.04,8.91-1.28,13.05,1.89,4.45,5.65,7.12,7.72,8.32,2.32,1.34,5,2.05,7.73,2.05v-.02c6.29,0,12.03-3.7,15.75-10.14l10.69-18.52,36.13-62.15h0ZM605.94,202.26c-1.18,0-2.33-.31-3.4-.93-3.59-2.08-5.23-7.64-1.41-14.25,4.63-8.02,11.73-10.22,18.16-11.33l.59-.08c.16-.02.32-.03.46-.03,1.07,0,2.1.53,2.71,1.44.7,1.04.75,2.39.12,3.48l-9.29,16.09c-2.05,3.56-4.95,5.61-7.94,5.61h0Z"/>
  <path d="M232.42,158.09l7.75,13.51h-34.35l-7.75-13.51h34.35M232.58,157.81h-35l8.08,14.08h35l-8.08-14.08h0Z"/>
  <path d="M154.93,149.6h15.62s-16.75,28.91-16.75,28.91h-15.63l16.76-28.91M154.77,149.32l-17.09,29.48h16.29l17.08-29.47h-16.28Z"/>
  <path d="M542.85,120.26l-23.19,39.97h-15.63l23.2-39.97h15.62M543.34,119.98h-16.28l-23.53,40.54h16.29l23.52-40.54h0Z"/>
  <path d="M614.01,67.26c2.39,8.13,8.71,14.45,16.84,16.83-8.13,2.38-14.46,8.71-16.84,16.84-2.38-8.13-8.7-14.45-16.83-16.84,9.3-2.56,14.27-7.53,16.83-16.83M614.01,66.16c-2.72,10.96-8.57,15.61-17.93,17.93,8.84,2.19,15.74,9.09,17.93,17.93,2.19-8.84,9.09-15.74,17.93-17.93-8.84-2.19-15.74-9.09-17.93-17.93h0Z"/>
  <path d="M400.92,177.51l-8.79,15.15h-15.63l8.79-15.15h15.63M401.41,177.23h-16.29l-9.12,15.72h16.29l9.12-15.72h0Z"/>
  <path d="M207.08,99.4c1.43,4.42,4.88,7.87,9.32,9.3-4.43,1.42-7.89,4.88-9.32,9.32-1.42-4.42-4.87-7.88-9.3-9.32,5.04-1.48,7.82-4.26,9.31-9.31M207.07,98.34c-1.57,6.33-4.95,9.02-10.36,10.36,5.11,1.27,9.1,5.25,10.36,10.36,1.27-5.11,5.25-9.1,10.36-10.36-5.11-1.27-9.1-5.25-10.36-10.36h0Z"/>
  <path d="M309.85,160.41l-.19.54c-10.98,4.67-22.13,11.24-21.92,24.48,0,13.65,10.84,19.76,21.57,19.76,2.7,0,5.4-.36,7.93-1.06-7.07,4.62-17.3,9.61-28.48,9.61h-.43c-12.59-.21-22.38-9.62-22.38-21.61,0-15.94,15.2-21.23,29.89-26.34l.05-.02.05-.02c4.72-1.64,9.58-3.32,13.9-5.36M310.35,159.86c-4.47,2.17-9.58,3.94-14.54,5.66-14.81,5.15-30.13,10.46-30.13,26.62,0,12.28,10.15,21.9,23.1,21.9h0c12.03-.01,22.97-5.73,30.27-10.77-3,1.07-6.33,1.64-9.72,1.64-10.6,0-21.29-6.04-21.29-19.48-.21-13.08,10.9-19.62,21.86-24.27l.46-1.3h0Z"/>
  <path d="M636.81,232.26c.9,2.46,2.84,4.39,5.3,5.28-2.47.9-4.41,2.84-5.31,5.31-.89-2.46-2.82-4.4-5.28-5.3,2.75-.9,4.39-2.54,5.29-5.29M636.8,231.26c-.95,3.84-3,5.47-6.28,6.28,3.1.77,5.51,3.18,6.28,6.28.77-3.1,3.18-5.51,6.28-6.28-3.1-.77-5.51-3.18-6.28-6.28h0Z"/>
  <path d="M657.13,232.27c.27.73.64,1.42,1.11,2.08,1.06,1.48,2.52,2.6,4.19,3.2-2.47.9-4.41,2.84-5.31,5.32-.4-1.09-1.02-2.1-1.82-2.97-.97-1.06-2.15-1.86-3.46-2.34,2.75-.9,4.39-2.54,5.29-5.29M657.12,231.27c-.95,3.84-3,5.47-6.28,6.28,1.67.41,3.13,1.32,4.25,2.54.96,1.04,1.67,2.31,2.03,3.74.77-3.1,3.18-5.51,6.28-6.28-2.03-.5-3.75-1.72-4.93-3.37h0c-.62-.87-1.09-1.85-1.35-2.91h0Z"/>
  <path d="M616.5,232.26c.34.91.84,1.77,1.47,2.55,1.02,1.26,2.33,2.19,3.83,2.74-2.47.9-4.41,2.84-5.31,5.31-.33-.9-.81-1.75-1.44-2.53-1.03-1.28-2.34-2.22-3.84-2.77,2.75-.9,4.4-2.54,5.29-5.3M616.49,231.27c-.95,3.84-3,5.47-6.28,6.28,1.86.46,3.46,1.52,4.62,2.96.77.96,1.35,2.08,1.66,3.32.77-3.1,3.18-5.51,6.28-6.28-1.84-.46-3.43-1.5-4.58-2.92h0c-.79-.97-1.39-2.11-1.7-3.36h0Z"/>
  <path d="M213.21,232.26c.9,2.46,2.84,4.39,5.3,5.28-2.47.9-4.41,2.84-5.31,5.31-.89-2.46-2.82-4.4-5.28-5.3,2.75-.9,4.39-2.54,5.29-5.29M213.2,231.26c-.95,3.84-3,5.47-6.28,6.28,3.1.77,5.51,3.18,6.28,6.28.77-3.1,3.18-5.51,6.28-6.28-3.1-.77-5.51-3.18-6.28-6.28h0Z"/>
  <path d="M233.53,232.27c.27.73.64,1.42,1.11,2.08,1.06,1.48,2.52,2.6,4.19,3.2-2.47.9-4.41,2.84-5.31,5.32-.4-1.09-1.02-2.1-1.82-2.97-.97-1.06-2.15-1.86-3.46-2.34,2.75-.9,4.39-2.54,5.29-5.29M233.52,231.27c-.95,3.84-3,5.47-6.28,6.28,1.67.41,3.13,1.32,4.25,2.54.96,1.04,1.67,2.31,2.03,3.74.77-3.1,3.18-5.51,6.28-6.28-2.03-.5-3.75-1.72-4.93-3.37-.62-.87-1.09-1.85-1.35-2.91h0Z"/>
  <path d="M192.89,232.26c.34.91.84,1.77,1.47,2.55,1.02,1.26,2.33,2.19,3.83,2.74-2.47.9-4.41,2.84-5.31,5.31-.33-.9-.81-1.75-1.44-2.53-1.03-1.28-2.34-2.22-3.84-2.77,2.75-.9,4.39-2.54,5.29-5.3M192.88,231.27c-.95,3.84-3,5.47-6.28,6.28,1.86.46,3.46,1.52,4.62,2.96.77.96,1.35,2.08,1.66,3.32.77-3.1,3.18-5.51,6.28-6.28-1.84-.46-3.43-1.5-4.58-2.92-.79-.97-1.39-2.11-1.7-3.36h0Z"/>
  <path d="M710.66,60.56l-17.64,30.4c-.63,1.09-.63,2.46,0,3.56.63,1.1,1.81,1.78,3.09,1.78h8.76c1.17,0,2.26-.57,2.92-1.52,2.15-3.07,6.69-7.6,8.02-8.91,3.39-2.98,10.72-7.46,17.03-7.56h.22l.36-.02c8.03.16,16.03,5.49,16.03,15.53s-9.51,16-18.46,16h-100.09l-7.75-13.52h49.08c1.26,0,2.45-.68,3.09-1.77l19.71-33.97h15.63M715.61,96.73h18.66c7.06,0,10.27-4.26,10.27-8.21,0-4.29-4.09-8.63-11.91-8.63-.21,0-.42.01-.64.02-.14,0-.27.01-.42.02-8.8.38-14.06,5.32-18.05,10.12l-.74.95c-.82,1.07-.96,2.54-.37,3.75.6,1.23,1.83,1.99,3.19,1.99M711.15,60.28h-16.29l-19.79,34.11c-.59,1.01-1.67,1.63-2.84,1.63h-49.57l8.08,14.09h100.25c9.09,0,18.74-5.71,18.74-16.28s-8.6-15.82-16.69-15.82v.02h-.21c-6.41.1-13.76,4.58-17.22,7.63-1.08,1.06-5.84,5.78-8.06,8.96-.61.88-1.62,1.4-2.69,1.4h-8.76c-1.17,0-2.26-.63-2.84-1.64-.58-1.02-.58-2.27,0-3.28l17.89-30.82h0ZM715.61,96.45c-1.25,0-2.39-.71-2.94-1.83s-.42-2.46.34-3.45l.74-.95c3.98-4.78,9.21-9.64,17.84-10.01.35-.01.69-.04,1.04-.04,7.63,0,11.63,4.2,11.63,8.35s-3.43,7.93-9.99,7.93h-18.66Z"/>
  <path d="M342.46,233.41c1.91,0,3.34.93,3.93,2.56.21.56.32,1.18.32,1.84,0,2.48-1.31,4.32-3.16,4.52.14-.46.22-.97.25-1.56l.03.02v-.46c0-2.41-.94-4.34-2.53-5.16-.54-.28-1.13-.42-1.75-.42-.17,0-.33,0-.47.01.7-.78,2.09-1.37,3.39-1.37M342.46,233.13c-1.63,0-3.36.85-3.93,1.93l.03.06s0,0,.01,0h0c.25-.05.57-.07.96-.07.59,0,1.14.13,1.63.38,1.46.76,2.37,2.55,2.37,4.91h-.02c0,.84-.1,1.58-.35,2.23l.03.06s0,0,.01,0h0c2.21.01,3.77-2.03,3.77-4.81,0-.71-.12-1.36-.34-1.94-.62-1.72-2.12-2.75-4.19-2.75h0Z"/>
  <path d="M371.33,227.37c.12.37.13,1.99.13,3.92,0,2.08-.24,5.09-.51,6.44l-.13.63.55-.33c.28-.17.6-.31.91-.41-.71,2.55-.83,3.17-.83,4.85v.11c0,1.17.56,2.3,1.41,2.83h-5.45s.02-.01.02-.01c.13-.11.26-.22.38-.37.48-.61.74-1.48.74-2.45v-11.57c0-1.19-.24-2-1.4-2.39,1.12-.62,3.09-1.21,4.18-1.25M325.76,228.27c.98,0,1.86.1,2.85.33-.42.39-.93,1.14-1.01,2.51-.09,1.59-.14,3.66-.14,6.15,0,1.47,0,2.87.11,5.31.05,1.28.61,2.25,1.56,2.77v.06h-2.29c-.39.03-.74.04-1.07.04-.28,0-.56-.01-.92-.04h-2.18s0-.07,0-.07c.72-.41,1.23-1.49,1.28-2.78.08-2.48.11-3.87.11-5.31,0-3.42-.03-4.92-.11-6.17-.11-1.39-.75-2.13-1.25-2.5.84-.19,1.95-.3,3.05-.3M314.58,228.27c.98,0,1.86.1,2.86.33-.4.38-.91,1.13-1.01,2.51-.06.98-.14,2.59-.14,4.7v.28h5.41c.22,0,.53-.02.86-.04-.25.89-1.29,1.57-2.47,1.57h-3.79v.28c0,1.28.03,2.63.11,4.66.05,1.28.61,2.25,1.56,2.77v.06h-2.29c-.38.03-.71.04-1.03.04h0s-.03,0-.03,0c-.27,0-.56-.01-.91-.04h-2.2v-.07c.72-.41,1.23-1.49,1.28-2.78.08-2.51.11-3.85.11-5.31,0-3.42-.03-4.92-.11-6.17-.11-1.39-.75-2.13-1.25-2.5.84-.19,1.94-.3,3.05-.3M407.49,233.41h.04s.03,0,.03,0c1.41,0,2.32,1.35,2.32,3.44v5.73c0,1.16.56,2.29,1.41,2.83h-5.49c.72-.61,1.13-1.64,1.13-2.83v-4.23c0-1.69-.8-2.66-2.18-2.66-.22,0-.48.03-.74.07,1.11-1.48,2.4-2.35,3.49-2.35M376.41,233.41h.04s.03,0,.03,0c1.41,0,2.32,1.35,2.32,3.44v5.73c0,1.17.56,2.3,1.41,2.83h-5.49s0,0,0,0c.72-.61,1.13-1.64,1.13-2.83v-4.23c0-1.69-.8-2.66-2.18-2.66-.22,0-.48.03-.74.07,1.11-1.48,2.4-2.35,3.49-2.35M402.29,233.41c.03.07.08.28.08.83,0,.8-.12,1.97-.35,3.48l-.09.6.52-.31c.24-.15.55-.27.9-.38-.55,1.8-.82,2.84-.82,4.81v.14c0,1.17.56,2.3,1.41,2.83h-5.44s.01,0,.01,0c.13-.11.26-.22.38-.37.48-.61.74-1.48.74-2.45v-5.62c0-1.03-.23-1.62-.76-1.97-.2-.14-.44-.25-.73-.35,1.28-.7,3.25-1.21,4.14-1.23M390.53,233.41c.13.4.13,2.32.13,3.39v5.78c0,1.17.56,2.3,1.41,2.83h-5.46s0,0,0,0c.73-.6,1.15-1.64,1.15-2.84v-5.52c0-.13,0-.25-.01-.4v-.06s0,0,0,0c0-.13-.03-.24-.04-.36v-.04s0-.01,0-.01c-.15-.79-.55-1.22-1.38-1.49-.02,0-.05-.02-.07-.03,1.13-.61,3.18-1.22,4.29-1.24M356.37,233.61c-.28.48-.43,1-.43,1.55,0,1.1.49,1.75,2.25,3.06,2.04,1.49,2.83,2.56,2.84,3.76v.04s0,.02,0,.02c0,1.26-.78,2.37-2.04,2.9l-1.14.48h-.17s.04-.06.04-.06c.32-.48.48-1.05.48-1.7,0-1.16-.69-2.14-2.46-3.48-1.83-1.36-2.51-2.27-2.51-3.32v-.04s0-.03,0-.03c0-1.53,1.45-2.94,3.14-3.17M339.07,236.53c-.17.57-.25,1.23-.25,2,0,3.28,1.77,5.58,4.3,5.58.16,0,.3,0,.44-.02-.29.31-.69.6-1.18.84l-.99.47h-.62c-.2.03-.4.04-.55.04h-.06s-.02,0-.02,0c-.09,0-.17-.01-.26-.02-.06,0-.11-.01-.19-.02h-.77s-.89-.47-.89-.47c-1.34-.71-2.11-2.12-2.11-3.89,0-2.49,1.31-4.33,3.17-4.52M352.89,241.58c.76,1.23,2.23,2.54,3.33,2.96-.1.15-.24.29-.41.42l-.59.45h-.44c-.14.02-.26.04-.36.04-.12,0-.25-.01-.44-.04h-.37s-.48-.43-.48-.43c-.42-.38-.64-.93-.64-1.61,0-.61.14-1.23.4-1.79M371.42,227.09c-1.26,0-3.74.79-4.81,1.53h0s0,0-.01,0v.11c.14.03.3.08.44.14.93.31,1.23.85,1.23,2.13v11.57c0,.91-.25,1.72-.68,2.28-.1.13-.23.23-.35.33h-8.14c1.33-.56,2.21-1.74,2.21-3.16,0,0,0,0,0-.01,0,0,0,0,0,0,0-1.33-.82-2.47-2.95-4.03-1.68-1.24-2.13-1.84-2.13-2.83,0-.66.22-1.24.66-1.78h0s0-.02,0-.02l-.03-.06c-2.08,0-3.91,1.67-3.91,3.49,0,0,0,0,0,.01,0,0,0,0,0,0,0,1.19.71,2.18,2.62,3.6,1.68,1.28,2.34,2.17,2.35,3.25,0,.6-.16,1.12-.43,1.54h-1.5c.28-.21.51-.48.62-.77l-.03-.06c-1.15-.29-2.98-1.93-3.66-3.32h-.05c-.44.71-.66,1.53-.66,2.33h0c0,.78.28,1.41.74,1.82h-10.44c.73-.35,1.32-.84,1.61-1.39l-.03-.06s-.02,0-.03,0h0c-.24.05-.56.08-.94.08-2.38,0-4.01-2.15-4.01-5.3,0-.85.1-1.59.35-2.24l-.03-.06s-.02,0-.03,0h0c-2.21,0-3.77,2.04-3.77,4.82,0,1.91.84,3.39,2.26,4.14h-8.46v-.02c-.3-.14-1.48-.71-1.56-2.61-.11-2.44-.11-3.83-.11-5.3,0-2.52.05-4.59.14-6.13.11-1.87,1.07-2.47,1.26-2.58v-.11c-1.2-.31-2.21-.45-3.39-.45,0,0,0,0,0,0s0,0,0,0c-1.36,0-2.73.17-3.63.45v.11c.25.11,1.42.71,1.56,2.55.08,1.19.11,2.63.11,6.15,0,1.47-.03,2.86-.11,5.3-.05,1.28-.57,2.33-1.28,2.61v.03h-4.15v-.02c-.3-.14-1.48-.71-1.56-2.61-.08-2.07-.11-3.4-.11-4.65h3.52c1.42,0,2.68-.94,2.79-2.1l-.03-.06s0,0,0,0h0c-.41.03-.87.06-1.15.06h-5.13c0-1.87.06-3.46.14-4.68.14-1.87,1.07-2.47,1.26-2.58v-.11c-1.2-.31-2.21-.45-3.39-.45,0,0,0,0,0,0s0,0,0,0c-1.37,0-2.73.17-3.63.45v.11c.25.11,1.42.71,1.56,2.55.08,1.19.11,2.64.11,6.15,0,1.48-.03,2.86-.11,5.3-.05,1.28-.57,2.33-1.28,2.61v.03h-3.27v.5h5.75c.3.02.6.04.91.04h0s0,0,0,0,0,0,0,0c.35,0,.71-.02,1.07-.04h9.17c.3.02.61.04.92.04,0,0,0,0,.01,0h0c.35,0,.71-.02,1.07-.04h12.81c.15.01.29.04.45.04h.02s.01,0,.02,0c0,0,0,0,.01,0,.21,0,.41-.01.62-.04h13.17c.14.02.28.04.44.04.14,0,.28-.02.41-.04h57.04v-.5h-.39c-.78-.47-1.31-1.51-1.31-2.61v-5.73c0-2.27-1.02-3.72-2.6-3.72,0,0,0,0-.01,0,0,0,0,0,0,0-1.45,0-2.98,1.25-4.13,2.98l.05.06s.01,0,.02,0h0c.49-.14.94-.19,1.27-.2,1.22,0,1.9.85,1.9,2.38v4.23c0,1.13-.39,2.07-1.03,2.61h-1.49c-.78-.47-1.31-1.51-1.31-2.61v-.14c0-2.07.3-3.06.93-5.13l-.05-.06c-.52.11-1.01.28-1.39.51.25-1.64.35-2.78.35-3.52,0-.79-.11-1.11-.3-1.11-1.07,0-3.52.68-4.78,1.53h0s0,0-.01.01v.11c.47.11.85.25,1.15.45.38.25.63.68.63,1.73v5.62c0,.91-.25,1.72-.68,2.28-.1.13-.23.23-.35.33h-6.07c-.78-.47-1.31-1.51-1.31-2.61v-5.78h0c0-3.22-.08-3.67-.33-3.67-1.26,0-3.85.79-4.92,1.53h0v.11h0c.19.07.36.12.52.18.72.23,1.07.58,1.2,1.27,0,.02,0,.04,0,.05.02.1.03.21.04.33,0,.03,0,.06,0,.09,0,.11.01.23.01.36v5.52c0,1.14-.39,2.08-1.04,2.62h-6.04c-.78-.47-1.31-1.51-1.31-2.61v-5.73c0-2.27-1.02-3.72-2.6-3.72,0,0,0,0-.01,0,0,0,0,0,0,0-1.45,0-2.98,1.25-4.13,2.98l.05.06s.01,0,.02,0h0c.49-.14.94-.19,1.27-.2,1.22,0,1.9.85,1.9,2.38v4.23c0,1.13-.39,2.07-1.03,2.61h-1.49c-.78-.47-1.31-1.51-1.31-2.61v-.11c0-1.7.11-2.24.93-5.16l-.05-.06c-.49.09-1.01.31-1.39.54.27-1.33.52-4.37.52-6.5,0-3.49-.05-4.2-.33-4.2h0Z"/>
  <path d="M321.9,218.49l.04.28c26.41,0,51.9,5.03,80.1,11.11,3.59.73,7.29,1.5,11.08,2.29,9.19,1.91,18.7,3.88,28.6,5.79l.33.06v-.33c.08-2.1.1-3.37.1-4.71,0-3.42-.03-4.92-.11-6.18-.1-1.35-.72-2.1-1.23-2.49h5.89-.01c-.42.4-.93,1.15-1.01,2.52-.09,1.6-.14,3.66-.14,6.15,0,1.47,0,2.87.11,5.31,0,.05,0,.1.02.15v.06s.03.21.03.21l.21.04c1.47.28,2.95.55,4.43.82l.8.15-.54-.61c-1.25-1.41-2.27-3.51-3.67-6.54,2.65-2.54,4.23-5.14,4.23-6.99,0-.56-.07-.96-.4-1.26h0s4.95,0,4.95,0c-.46.29-.97.85-1.7,1.86-1.3,1.8-2.5,3.24-3.88,4.68l-.14.15.1.18c2.86,5.24,4.85,8.16,6.45,9.46l.06.05h.07c25.78,4.51,46.36,6.69,64.78,6.88.82,0,1.64.01,2.46.01,15.78,0,29.79-1.62,41.66-4.8,6.99-1.99,13.38-4.69,18.99-8.03.38-.23.76-.46,1.13-.69-5.93,3.81-12.67,6.84-20.04,8.99-12.34,3.45-26.95,5.2-43.43,5.2h-.77c-30.27-.1-62.72-5.79-93.27-11.92l-.42-.08.09.42c.09.43.13.8.13,1.16,0,2.47-1.3,4.31-3.13,4.52.18-.58.26-1.24.26-2,0-2.43-.98-4.27-2.76-5.18l-.03-.02h-.04c-3.08-.64-6.12-1.26-9.11-1.87-3.89-.8-7.69-1.58-11.37-2.32-1.25-.27-2.64-.57-4.12-.89-2.07-.45-4.31-.94-6.53-1.41l-.43-.09.1.43c.04.16.05.3.05.44,0,1.04-.76,1.79-1.8,1.79s-1.8-.75-1.8-1.79c0-.41.13-.8.37-1.11l.27-.36-.44-.09c-2.39-.5-4.32-.89-5.91-1.2-17.71-3.27-39.74-7.34-60.88-7.34h-.58c-7.27.03-14.01.5-20.59,1.46-3.79.65-7.05,1.52-9.98,2.66-.55.22-1.11.45-1.68.71,6.11-3,14.31-4.22,21.88-4.98,3.79-.25,7.71-.38,11.66-.39h.54v-.28M278.96,220.68c1.44,0,2.67.68,3.45,1.92.81,1.28.98,2.95.41,4.16l-.33.7-.78.71,1.11-.29c.55-.14,1.11-.22,1.65-.22,2.17,0,4.17,1.18,5.09,3,.72,1.43.6,2.96-.32,4.2-2.63,3.53-10.88,5.75-17.78,7.29-5.56,1.24-12.59,4.2-15.65,6.43,2.64-4.77,11.24-19.79,17.75-25.39,1.92-1.65,3.79-2.52,5.41-2.52M321.93,218.49c-.19,0-.39,0-.58,0-3.89.01-7.78.14-11.67.39-7.92.8-20.05,2.32-26.6,8.01,1.16-2.46-.5-6.48-4.12-6.48-1.53,0-3.42.72-5.59,2.59-7.88,6.77-18.62,26.94-18.62,26.94h0c1.49-2.05,9.91-5.96,16.77-7.49,6.86-1.53,15.23-3.74,17.95-7.4,2.39-3.21-.63-7.65-4.99-7.65-.56,0-1.13.07-1.73.23,1.93-1.77,4.46-2.95,6.86-3.92,3.19-1.24,6.54-2.06,9.92-2.64,6.83-.99,13.68-1.44,20.55-1.46.19,0,.39,0,.58,0,20.4,0,40.86,3.65,60.83,7.34,1.73.33,3.76.75,5.9,1.2-.27.35-.42.78-.42,1.28,0,1.19.87,2.07,2.08,2.07s2.08-.88,2.08-2.07c0-.17-.02-.34-.06-.5,3.81.82,7.66,1.67,10.65,2.31,6.52,1.32,13.39,2.74,20.49,4.19,1.57.81,2.6,2.44,2.6,4.93,0,.85-.11,1.59-.36,2.24l.03.06c2.21,0,3.77-2.04,3.77-4.82,0-.44-.06-.83-.14-1.22,29.55,5.93,62.72,11.83,93.33,11.93.26,0,.51,0,.77,0,15.43,0,30.2-1.49,43.5-5.22,13.27-3.87,25.8-11.06,34.66-21.81l-.26-.22s0,0,0,0h0c-4.47,5.23-9.81,9.7-15.71,13.22-5.9,3.51-12.32,6.12-18.92,8-12.7,3.41-26.81,4.79-41.58,4.79-.82,0-1.64,0-2.46-.01-21.02-.21-43.3-3.12-64.74-6.86-1.57-1.27-3.55-4.19-6.38-9.38,1.28-1.33,2.49-2.75,3.91-4.71.72-1.01,1.22-1.55,1.66-1.81h71.91v-.5h-103.91v.5h16.72c.44.33,1.04,1,1.14,2.29h0c.08,1.2.11,2.65.11,6.16,0,1.35-.03,2.63-.09,4.7-14.03-2.7-27.47-5.58-39.68-8.08-26.31-5.67-53.15-11.12-80.16-11.12h0ZM450.38,239.3c-1.48-.27-2.96-.54-4.43-.82,0-.07-.02-.12-.02-.19-.11-2.44-.11-3.83-.11-5.3,0-2.52.05-4.59.14-6.13.08-1.31.57-1.99.92-2.32h3.69c.23.21.31.48.31,1.05,0,1.79-1.64,4.42-4.29,6.92,1.39,3.02,2.47,5.28,3.8,6.79h0Z"/>
  <path d="M359.63,233.41c1.02,0,1.58.56,1.58,1.59,0,.47-.14,1.03-.39,1.55-.77-.95-2-1.89-2.97-2.25.05-.08.11-.15.17-.22.38-.42.97-.67,1.62-.67M359.63,233.13c-.75,0-1.41.29-1.83.76-.14.16-.26.33-.34.53l.03.06c1.04.28,2.57,1.45,3.33,2.55h.01s.05-.01.05-.01c0,0,0,0,0-.01h0c.38-.65.6-1.39.6-2.01,0-1.16-.68-1.87-1.86-1.87h0Z"/>
  <path d="M420.32,236.53c-.17.59-.26,1.24-.26,2,0,3.28,1.77,5.58,4.3,5.58.15,0,.29,0,.42-.01-.7.78-2.07,1.35-3.37,1.35-2.57,0-4.23-1.73-4.23-4.4,0-2.47,1.3-4.31,3.14-4.52M420.67,236.23c-2.21,0-3.77,2.04-3.77,4.82s1.75,4.68,4.51,4.68c1.64,0,3.36-.85,3.93-1.93l-.03-.06c-.25.06-.56.09-.95.09-2.38,0-4.01-2.16-4.01-5.3,0-.85.11-1.59.35-2.24l-.03-.06h0Z"/>
  <path d="M466.32,235.84c-.99.94-1.38,1.65-1.38,2.43,0,1.02.77,1.81,1.76,1.81.08,0,.17,0,.25-.01-.6.69-1.57,1.13-2.57,1.13-1.43,0-2.48-.89-2.48-2.13v-.14c.09-1.21,1.4-2.14,4.41-3.09M467.24,235.27c-4.07,1.16-5.63,2.24-5.63,3.8h.01c0,1.39,1.18,2.41,2.76,2.41,1.34,0,2.57-.71,3.14-1.73l-.03-.06c-.27.05-.54.11-.79.11-.85,0-1.48-.68-1.48-1.53s.55-1.64,2.05-2.89l-.03-.11h0Z"/>
  <path d="M465.3,229.84c-.35.46-.48.89-.48,1.46s.15,1.13.48,1.69c-.57.2-1.15.31-1.6.31-.84,0-1.48-.36-1.57-.86h0v-.12c0-.83,1.6-2.02,3.17-2.48M466.03,229.4c-1.86.23-4.18,1.76-4.18,2.92h-.01c0,.72.79,1.26,1.86,1.26.6,0,1.34-.18,1.97-.43l.03-.06c-.41-.6-.6-1.17-.6-1.79,0-.7.22-1.16.93-1.84v-.06h0Z"/>
  <path d="M469.46,229.16c.79,0,1.85.34,1.85,3.32v5.53c0,1.14.54,1.88,1.48,2.06-.85.78-1.7,1.13-2.75,1.13-.95,0-1.44-.41-1.44-1.22l-.02-.15c.02-.36.12-.83.31-1.48l.19-.64-.59.31c-.31.16-.6.27-.84.33.52-1.13.74-2.41.74-4.14,0-2.07-.43-3.22-1.37-3.71-.07-.04-.14-.07-.22-.1.59-.69,1.72-1.24,2.65-1.24M469.46,228.88c-1.12,0-2.54.73-3.09,1.64l.03.06c.16.03.33.08.49.17.87.45,1.23,1.56,1.23,3.46s-.27,3.23-.93,4.45l.05.06c.27-.02.79-.14,1.39-.45-.22.74-.33,1.27-.33,1.7h.02c0,.97.6,1.51,1.72,1.51,1.28,0,2.29-.48,3.33-1.59l-.03-.06h-.08c-1.07,0-1.67-.66-1.67-1.82v-5.53c0-2.41-.68-3.6-2.13-3.6h0Z"/>
  <path d="M482.9,229.17c.03.07.08.28.08.83,0,.76-.12,1.89-.36,3.48l-.09.6.52-.31c.24-.15.55-.27.9-.38-.55,1.8-.82,2.84-.82,4.81v.14c0,1.07.44,2.06,1.13,2.64-.77.05-1.59.08-2.55.08s-1.71-.03-2.38-.08c.58-.61.91-1.56.91-2.64v-5.62c0-1.03-.23-1.62-.76-1.97-.2-.14-.44-.25-.72-.34,1.28-.7,3.24-1.2,4.13-1.23M482.97,228.89c-1.07,0-3.52.68-4.78,1.53v.11c.47.11.85.25,1.15.45.38.25.63.68.63,1.73v5.62c0,1.22-.44,2.24-1.18,2.75v.11h-.02c.93.12,1.88.15,2.95.15s2.16-.03,3.28-.14v-.11c-.93-.37-1.58-1.53-1.58-2.75v-.14c0-2.07.3-3.06.93-5.13l-.05-.06c-.52.11-1.01.28-1.39.51.25-1.65.36-2.78.36-3.52,0-.8-.11-1.11-.3-1.11h0Z"/>
  <path d="M488.18,229.16c1.41,0,2.32,1.35,2.32,3.44v5.73c0,1.05.45,2.05,1.14,2.64-.77.05-1.6.08-2.56.08s-1.73-.03-2.4-.09c.57-.61.9-1.56.9-2.63v-4.23c0-1.69-.8-2.66-2.19-2.66-.22,0-.47.02-.73.07,1.11-1.48,2.41-2.34,3.53-2.34M488.18,228.88c-1.45,0-2.98,1.25-4.13,2.98l.05.06c.49-.14.95-.2,1.28-.2,1.23,0,1.91.85,1.91,2.38v4.23c0,1.22-.44,2.24-1.18,2.75v.11h.02c.93.11,1.88.14,2.95.14s2.16-.03,3.28-.14v-.11c-.92-.37-1.58-1.53-1.58-2.75v-5.73c0-2.27-1.02-3.72-2.6-3.72h0Z"/>
  <path d="M505.38,229.16c.79,0,1.85.34,1.85,3.32v5.53c0,1.14.54,1.88,1.48,2.06-.85.78-1.7,1.13-2.75,1.13-.95,0-1.44-.41-1.44-1.22l-.02-.15c.02-.36.12-.83.31-1.48l.19-.64-.59.31c-.31.16-.6.27-.84.33.52-1.15.75-2.42.75-4.14,0-2.08-.43-3.22-1.37-3.71-.07-.04-.14-.07-.22-.1.59-.69,1.72-1.24,2.65-1.24M505.38,228.88c-1.12,0-2.54.73-3.09,1.64l.03.06c.16.03.33.08.49.17.88.45,1.23,1.56,1.23,3.46s-.28,3.23-.93,4.45l.05.06c.27-.02.79-.14,1.39-.45-.22.74-.33,1.27-.33,1.7h.02c0,.97.6,1.51,1.72,1.51,1.28,0,2.29-.48,3.33-1.59l-.03-.06h-.08c-1.07,0-1.67-.66-1.67-1.82v-5.53c0-2.41-.68-3.6-2.13-3.6h0Z"/>
  <path d="M502.23,235.84c-.99.94-1.38,1.65-1.38,2.43,0,1.02.77,1.81,1.76,1.81.08,0,.17,0,.25-.01-.6.69-1.57,1.13-2.57,1.13-1.43,0-2.48-.89-2.48-2.13v-.14c.09-1.21,1.4-2.14,4.41-3.09M503.15,235.27c-4.07,1.16-5.63,2.24-5.63,3.8h.01c0,1.39,1.18,2.41,2.76,2.41,1.34,0,2.57-.71,3.14-1.73l-.03-.06c-.27.05-.54.11-.79.11-.85,0-1.48-.68-1.48-1.53s.55-1.64,2.05-2.89l-.03-.11h0Z"/>
  <path d="M501.22,229.84c-.35.46-.48.89-.48,1.46s.15,1.13.48,1.69c-.57.2-1.15.31-1.6.31-.84,0-1.48-.36-1.57-.86h0v-.12c0-.83,1.6-2.02,3.17-2.48M501.95,229.4c-1.86.23-4.18,1.76-4.18,2.92h-.01c0,.72.79,1.26,1.86,1.26.6,0,1.34-.18,1.97-.43l.03-.06c-.41-.6-.6-1.17-.6-1.79,0-.7.22-1.16.93-1.84v-.06h0Z"/>
  <path d="M518.84,226.41v3.03h3.32c-.35.85-.92,1.28-1.7,1.28h-1.62v5.84c0,1.83,1.08,2.92,2.88,2.92.13,0,.25,0,.36-.01-.77,1.05-2.09,1.73-3.42,1.73-2.25,0-2.72-1.96-2.72-3.62v-6.86h-1.61c.87-.91,1.72-1.78,2.43-2.5,1.42-1.44,1.89-1.78,2.01-1.82h.07M519.12,226.13h-.35c-.24,0-.9.57-2.21,1.9-.73.74-1.61,1.64-2.51,2.58v.4h1.61v6.58h0c0,2.54,1.06,3.9,3,3.9,1.61,0,3.2-.91,3.96-2.33l-.05-.06c-.22.08-.49.11-.85.11-1.64,0-2.6-.97-2.6-2.64v-5.56h1.34c.99,0,1.7-.6,2.08-1.79l-.03-.06h-3.39v-3.03h0Z"/>
  <path d="M535.15,229.16c.79,0,1.85.34,1.85,3.32v5.53c0,1.14.54,1.88,1.48,2.06-.85.78-1.7,1.13-2.75,1.13-.95,0-1.44-.41-1.44-1.22l-.02-.15c.02-.36.12-.83.31-1.48l.19-.64-.59.31c-.31.16-.6.27-.84.33.52-1.15.75-2.42.75-4.14,0-2.08-.43-3.22-1.37-3.71-.07-.04-.14-.07-.22-.1.59-.69,1.72-1.24,2.65-1.24M535.15,228.88c-1.12,0-2.54.73-3.09,1.64l.03.06c.16.03.33.08.49.17.88.45,1.23,1.56,1.23,3.46s-.28,3.23-.93,4.45l.05.06c.27-.02.79-.14,1.39-.45-.22.74-.33,1.27-.33,1.7h.02c0,.97.6,1.51,1.72,1.51,1.28,0,2.29-.48,3.33-1.59l-.03-.06h-.08c-1.07,0-1.67-.66-1.67-1.82v-5.53c0-2.41-.68-3.6-2.13-3.6h0Z"/>
  <path d="M530.99,229.84c-.35.46-.48.89-.48,1.46s.15,1.13.48,1.69c-.57.2-1.15.31-1.6.31-.84,0-1.48-.36-1.57-.86h0v-.12c0-.83,1.6-2.02,3.17-2.48M531.72,229.4c-1.86.23-4.18,1.76-4.18,2.92h-.01c0,.72.79,1.26,1.86,1.26.6,0,1.34-.18,1.97-.43l.03-.06c-.41-.6-.6-1.17-.6-1.79,0-.7.22-1.16.93-1.84v-.06h0Z"/>
  <path d="M532.01,235.84c-.99.94-1.38,1.65-1.38,2.43,0,1.02.77,1.81,1.76,1.81.08,0,.17,0,.25-.01-.6.69-1.57,1.13-2.57,1.13-1.43,0-2.48-.89-2.48-2.13v-.14c.09-1.21,1.4-2.14,4.41-3.09M532.93,235.27c-4.07,1.16-5.63,2.24-5.63,3.8h.01c0,1.39,1.18,2.41,2.76,2.41,1.34,0,2.57-.71,3.14-1.73l-.03-.06c-.27.05-.54.11-.79.11-.85,0-1.48-.68-1.48-1.53s.55-1.64,2.05-2.89l-.03-.11h0Z"/>
  <path d="M419.57,222.32c.42.87,1.12,1.57,2,1.98-.89.42-1.6,1.13-2.02,2.02-.41-.88-1.11-1.58-1.98-2,.97-.4,1.6-1.03,2-2M419.55,221.44c-.43,1.75-1.36,2.49-2.86,2.86,1.41.35,2.51,1.45,2.86,2.86.35-1.41,1.45-2.51,2.86-2.86-1.41-.35-2.51-1.45-2.86-2.86h0Z"/>
  <path d="M532.52,222.32c.42.87,1.12,1.57,2,1.98-.89.42-1.6,1.13-2.02,2.02-.41-.88-1.11-1.58-1.98-2,.97-.4,1.6-1.03,2-2M532.5,221.44c-.43,1.75-1.36,2.49-2.86,2.86,1.41.35,2.51,1.45,2.86,2.86.35-1.41,1.45-2.51,2.86-2.86-1.41-.35-2.51-1.45-2.86-2.86h0Z"/>
  <path d="M303.46,243.35c.42.87,1.12,1.57,2,1.98-.89.42-1.6,1.13-2.02,2.02-.41-.88-1.11-1.58-1.98-2,.97-.4,1.6-1.03,2-2M303.44,242.47c-.43,1.75-1.36,2.49-2.86,2.86,1.41.35,2.51,1.45,2.86,2.86.35-1.41,1.45-2.51,2.86-2.86-1.41-.35-2.51-1.45-2.86-2.86h0Z"/>
  <path d="M431.34,243.35c.42.87,1.12,1.57,2,1.98-.89.42-1.6,1.13-2.02,2.02-.41-.88-1.11-1.58-1.98-2,.97-.4,1.6-1.03,2-2M431.32,242.47c-.43,1.75-1.36,2.49-2.86,2.86,1.41.35,2.51,1.45,2.86,2.86.35-1.41,1.45-2.51,2.86-2.86-1.41-.35-2.51-1.45-2.86-2.86h0Z"/>
  <path d="M354.58,50.34c1.3,0,2.57.12,3.77.36,8.67,1.73,12.63,9.09,12.64,15.19,0,.33.04.65.13.96.11.39.18.96-.13,1.49l-.02.04c-.17.29-.3.62-.39,1.01-.7,2.88-2.22,5.5-4.41,7.59-.23.21-.45.48-.63.8l-33.16,57.44c-.48.81-.65,1.72-.47,2.56.35,1.69,1.79,2.88,3.5,2.88h38.41l-32.75,58.48c-.25.44-.4.92-.44,1.41h-.03v.28c0,3.26.66,5.58,1.97,6.9.82.82,1.89,1.26,3.19,1.32-2.67,1.86-6.85,3.11-10.53,3.11-5.2,0-8.75-2.66-10.01-7.48-.22-.85-.6-1.5-1.13-1.95-.41-.36-.89-.61-1.39-.76.36-.2.71-.4,1.05-.61.53-.33.96-.78,1.25-1.3l22.65-40.57c.88-1.58.46-3.53-1.01-4.62-.59-.44-1.33-.68-2.16-.68h-26.35l-6.14-10.71,32.4-56.12c.48-.81.65-1.72.47-2.56-.35-1.69-1.79-2.88-3.5-2.88h-22.88c-1.26,0-2.44.68-3.08,1.77l-63.03,108.62h-15.63l60.95-105.04c.91-1.55.49-3.56-.96-4.66-.59-.44-1.36-.69-2.18-.69h-12.96l-7.75-13.52h52.84c1.17,0,2.26-.57,2.91-1.51,2.12-3.06,6.69-7.62,8.02-8.93,3.97-3.51,10.8-7.61,16.96-7.61M337.46,68.4h.28s20.99-.01,20.99-.01c.38,0,.73-.05,1.04-.15,3.83-1.17,6.31-4.17,6.31-7.65s-2.72-7.33-8.81-8.37c-1.04-.18-2.06-.26-3.1-.26-9.39,0-14.93,5.13-19.11,10.16l-.43.55c-.82,1.07-.96,2.54-.37,3.75.6,1.23,1.83,1.99,3.19,1.99M354.58,50.06c-6.26,0-13.13,4.13-17.15,7.68-1.08,1.06-5.85,5.78-8.07,8.98-.61.88-1.61,1.39-2.68,1.39h-53.33l8.08,14.09h13.12c.72,0,1.44.2,2.01.63,1.4,1.06,1.7,2.9.89,4.29l-61.2,105.47h16.29l63.11-108.76c.59-1.01,1.67-1.63,2.83-1.63h22.88c1.52,0,2.89,1.06,3.22,2.65.17.81-.02,1.65-.44,2.36l-32.48,56.26,6.3,10.99h26.51c.71,0,1.42.19,1.99.62,1.4,1.05,1.71,2.86.93,4.26l-22.65,40.57c-.27.49-.67.9-1.15,1.2-.58.36-1.18.69-1.8,1,.75.01,1.5.29,2.11.82.54.46.86,1.12,1.04,1.81,1.29,4.96,4.94,7.69,10.28,7.69,4.18,0,8.79-1.55,11.39-3.69-.19.02-.38.02-.57.02-3.44,0-5.18-2.65-5.17-7.94h.02c0-.54.15-1.07.42-1.55l32.99-58.9h-38.89c-1.52,0-2.89-1.06-3.22-2.65-.17-.81.02-1.65.44-2.36l33.16-57.44c.16-.27.35-.52.58-.73,2.23-2.13,3.78-4.8,4.49-7.73.08-.33.19-.64.36-.93l.03-.06c.3-.51.31-1.12.15-1.69-.08-.28-.12-.58-.12-.88-.01-6.72-4.49-13.8-12.87-15.47-1.2-.24-2.47-.37-3.83-.37h0ZM337.46,68.12c-1.25,0-2.39-.71-2.94-1.83-.55-1.12-.42-2.46.34-3.45l.43-.55c4.14-4.97,9.62-10.05,18.89-10.05,1.1,0,2.11.1,3.05.26,5.64.96,8.57,4.54,8.57,8.09,0,3.35-2.4,6.25-6.11,7.38-.31.1-.63.14-.96.14h-21.27Z"/>
  <path d="M492.21,68.44l7.37,13.28,21.96,39.59-7.4,12.74-22.09-38.57-15.48-27.04h15.63M492.38,68.16h-16.29l15.72,27.46,22.33,39,7.73-13.3-22.04-39.73-7.45-13.43h0Z"/>
  <path d="M468.3,60.57l-22.61,39.16c-.64,1.1-.64,2.47,0,3.56.64,1.1,1.82,1.78,3.09,1.78h43.19l8.24,14.37-36.37,62.56-10.69,18.52c-3.67,6.35-9.32,10-15.49,10-2.69,0-5.31-.7-7.59-2.01-2.22-1.29-6.3-4.07-8.64-8.26-2.29-4.12-2.19-8.4.31-12.72,2.66-4.6,7.26-9.86,19.28-11.26-5.36,1.39-10.82,4.1-14.62,10.68-1.81,3.12-2.53,6.24-2.11,9.01.38,2.46,1.7,4.51,3.62,5.62,1.1.64,2.29.97,3.54.97,3.09,0,6.08-2.1,8.19-5.75l9.29-16.1,4.56-7.8,10.72-18.58c.2-.21.38-.44.53-.69l17.22-29.67c.63-1.09.63-2.46,0-3.56-.63-1.1-1.81-1.78-3.09-1.78h-42.01c-1.26,0-2.44.68-3.09,1.78l-30.62,53.03h-15.62l28.56-49.46c.64-1.1.64-2.47,0-3.56-.64-1.1-1.82-1.78-3.09-1.78h-34.44c-.38-.25-.8-.42-1.23-.51-9.34-1.95-13.52-9.18-13.52-15.49,0-7.32,5.13-15.2,16.41-15.2,5.82,0,12.48,3.62,16.49,7.17,4.11,4.69,5.9,7.32,6.68,8.69.63,1.12,1.82,1.81,3.11,1.81h18.44c1.26,0,2.44-.68,3.09-1.78l24.67-42.73h15.62M376.1,105.08h21.25c1.37,0,2.59-.76,3.19-1.99l.03-.07h0c.56-1.2.41-2.64-.4-3.69l-.43-.55c-4.19-5.02-9.75-10.16-19.12-10.16-7.82,0-11.91,4.34-11.91,8.63,0,3.49,2.49,6.5,6.35,7.67.35.1.69.15,1.03.15M468.79,60.29h-16.27l-24.75,42.87c-.59,1.01-1.67,1.64-2.84,1.64h-18.44c-1.18,0-2.28-.64-2.86-1.67-.77-1.36-2.56-4-6.71-8.74-4.07-3.62-10.81-7.27-16.7-7.27-11.47,0-16.69,8.03-16.69,15.48,0,6.42,4.25,13.79,13.75,15.77.43.09.84.27,1.2.52h34.53c1.17,0,2.25.62,2.84,1.64.59,1.01.59,2.26,0,3.28l-28.81,49.89h16.27l30.7-53.17c.59-1.01,1.67-1.64,2.84-1.64h42.01c1.17,0,2.26.63,2.84,1.64.58,1.02.58,2.27,0,3.28l-17.22,29.67c-.14.24-.31.46-.51.66l-10.74,18.61-4.56,7.8-9.29,16.1c-2.06,3.57-4.95,5.61-7.94,5.61-1.19,0-2.34-.31-3.4-.93-3.59-2.07-5.23-7.63-1.41-14.24,4.63-8.02,11.73-10.22,18.16-11.33l.59-.08c.08-.01.17-.02.26-.02-15.13.45-20.83,5.96-24.16,11.73-2.55,4.41-2.65,8.79-.31,13,2.37,4.25,6.5,7.07,8.75,8.37,2.32,1.34,4.99,2.05,7.73,2.05,6.28,0,12.02-3.7,15.74-10.14l10.69-18.52,36.45-62.7-8.39-14.63v-.02h-43.37c-1.17,0-2.25-.62-2.84-1.64-.59-1.01-.59-2.26,0-3.28l22.86-39.59h0ZM376.1,104.8c-.32,0-.64-.05-.95-.14-3.73-1.13-6.15-4.03-6.15-7.4,0-4.15,3.99-8.35,11.63-8.35,9.26,0,14.71,5.04,18.9,10.06l.42.54c.76.99.89,2.33.34,3.45h0c-.55,1.13-1.69,1.84-2.94,1.84h-21.25ZM445.84,175.65c-.07,0-.13,0-.2,0,.07,0,.13,0,.2,0h0Z"/>
</svg>