<?xml version="1.0" encoding="UTF-8"?>
<svg id="_レイヤー_2" data-name="レイヤー 2" xmlns="http://www.w3.org/2000/svg" viewBox="0 0 211.51 211.51">
  <g id="_倨_1" data-name="倨1">
    <path d="M98.51,69.27L104.58,0l7.6,69.12c.76,6.92,8.92,10.19,14.25,5.72l53.27-44.7-43.5,54.25c-4.35,5.43-.9,13.52,6.03,14.12l69.27,6.06-69.12,7.6c-6.92.76-10.19,8.92-5.72,14.25l44.7,53.27-54.25-43.5c-5.43-4.35-13.52-.9-14.12,6.03l-6.06,69.27-7.6-69.12c-.76-6.92-8.92-10.19-14.25-5.72l-53.27,44.7,43.5-54.25c4.35-5.43.9-13.52-6.03-14.12L0,106.93l69.12-7.6c6.92-.76,10.19-8.92,5.72-14.25L30.14,31.81l54.25,43.5c5.43,4.35,13.52.9,14.12-6.03Z"/>
  </g>
</svg>