<?xml version="1.0" encoding="UTF-8"?>
<svg id="_レイヤー_2" data-name="レイヤー 2" xmlns="http://www.w3.org/2000/svg" viewBox="0 0 211.51 211.51">
  <g id="_倨_1" data-name="倨1">
    <path d="M102.86,91.16L104.58,0l3.75,91.1c.3,2.77,3.57,4.08,5.7,2.29L209.7.14l-91.77,97.07c-1.74,2.17-.36,5.41,2.41,5.65l91.16,1.72-91.1,3.75c-2.77.3-4.08,3.57-2.29,5.7l43.25,45.67-47.07-41.77c-2.17-1.74-5.41-.36-5.65,2.41l-1.72,91.16-3.75-91.1c-.3-2.77-3.57-4.08-5.7-2.29L1.81,211.37l91.77-97.07c1.74-2.17.36-5.41-2.41-5.65L0,106.93l91.1-3.75c2.77-.3,4.08-3.57,2.29-5.7l-43.25-45.67,47.07,41.77c2.17,1.74,5.41.36,5.65-2.41Z"/>
  </g>
</svg>