<svg xmlns="http://www.w3.org/2000/svg" width="125.49" height="200" viewBox="0 0 125.49 200"><path d="M126.115,247a4.357,4.357,0,0,1,0-8.715h25.272V222.891C118.816,220.722,93,194.45,93,162.468a4.357,4.357,0,0,1,8.715,0c0,28.591,24.238,51.853,54.031,51.853s54.031-23.261,54.031-51.853a4.357,4.357,0,0,1,8.715,0c0,31.982-25.816,58.254-58.387,60.422v15.395h25.272a4.357,4.357,0,0,1,0,8.715Zm29.194-45.751a43.573,43.573,0,0,1-43.573-43.573v-67.1A43.573,43.573,0,0,1,155.309,47h.872a43.573,43.573,0,0,1,43.573,43.573v67.1a43.573,43.573,0,0,1-43.573,43.573ZM120.451,90.573v67.1c0,19.221,15.638,34.859,35.73,34.859a34.9,34.9,0,0,0,34.858-34.859v-67.1a34.9,34.9,0,0,0-34.858-34.859h-.872A34.9,34.9,0,0,0,120.451,90.573Zm18.3,62.745a4.357,4.357,0,1,1,0-8.715h34.682a4.357,4.357,0,0,1,0,8.715Zm0-24.4a4.357,4.357,0,1,1,0-8.715h34.682a4.357,4.357,0,0,1,0,8.715Zm0-24.4a4.357,4.357,0,1,1,0-8.715h34.682a4.357,4.357,0,0,1,0,8.715Z" transform="translate(-93 -47)"/></svg>