<?xml version="1.0" encoding="UTF-8"?>
<svg id="_レイヤー_2" data-name="レイヤー 2" xmlns="http://www.w3.org/2000/svg" viewBox="0 0 349.48 240.57">
  <g id="_倨_1" data-name="倨1">
    <path d="M329.44,75.44l20.04-28.41-28.41,20.04c-5.78,4.07-13.49,4.07-19.27,0l-28.41-20.04,20.04,28.41c4.07,5.78,4.07,13.49,0,19.27l-43.41,34.63c-11.46,8.09-26.77,8.09-38.23,0l-34.49-34.72c-8.09-11.46-8.09-26.77,0-38.23L217.06,0l-56.38,39.77c-11.46,8.09-26.77,8.09-38.23,0L66.06,0l39.77,56.38c8.09,11.46,8.09,26.77,0,38.23l-8.21,11.64-16.36,16.47c-9.84,6.94-22.99,6.94-32.84,0L0,88.57l34.16,48.42c6.94,9.84,6.94,22.99,0,32.84L0,218.25l48.42-34.16c9.84-6.94,22.99-6.94,32.84,0l48.42,34.16-34.16-48.42c-6.94-9.84-6.94-22.99,0-32.84l22.49-22.64,4.42-3.12c11.46-8.09,26.77-8.09,38.23,0l34.49,34.72c8.09,11.46,8.09,26.77,0,38.23l-39.77,56.38,56.38-39.77c11.46-8.09,26.77-8.09,38.23,0l56.38,39.77-39.77-56.38c-8.09-11.46-8.09-26.77,0-38.23l35.17-42.87c5.78-4.07,13.49-4.07,19.27,0l28.41,20.04-20.04-28.41c-4.07-5.78-4.07-13.49,0-19.27Z"/>
  </g>
</svg>