<?xml version="1.0" encoding="UTF-8"?>
<svg id="_レイヤー_2" data-name=" レイヤー 2" xmlns="http://www.w3.org/2000/svg" viewBox="0 0 876.037 168.389">
  <path d="M131.946,88.697c-19.344,6.065-40.322,6.827-60.055,2.184-6.494-1.528-13.393-4.037-16.871-9.73-4.093-6.701-1.84-15.845,3.347-21.739,5.187-5.894,12.668-9.19,20.042-11.888,33.334-12.195,70.055-15.688,104.765-8.263,8.582,1.836,18.979,7.001,18.016,15.725-.694,6.286-7.164,10.105-13.055,12.403-25.144,9.807-53.848,10.164-79.228.986-8.177-2.957-16.665-7.539-19.911-15.606-2.612-6.491-1.166-14.115,2.489-20.081,3.655-5.966,9.278-10.478,15.21-14.188C128.436,4.901,154.875-.065,180.511.55c68.263,1.637,87.388,32.501,82.424,55.223C247.854,124.805,82.46,126.089.012,124.124" fill="none" stroke="#231815" stroke-miterlimit="10"/>
  <path d="M89.207,112.664c.856,15.405-1.823,30.996-7.775,45.231" fill="none" stroke="#231815" stroke-miterlimit="10"/>
  <path d="M158.607,105.998c.849,16.227.542,32.515-.917,48.698" fill="none" stroke="#231815" stroke-miterlimit="10"/>
  <path d="M127.92,143.551c18.873-5.891,38.707-8.692,58.474-8.26" fill="none" stroke="#231815" stroke-miterlimit="10"/>
  <path d="M101.98,167.903c41.499-10.108,84.84-12.605,127.225-7.329" fill="none" stroke="#231815" stroke-miterlimit="10"/>
  <path d="M329.364,58.4s-1.928,35.182-20.242,64.098c-18.314,28.917-39.037,37.368-51.086,37.368" fill="none" stroke="#231815" stroke-linecap="round" stroke-linejoin="round"/>
  <path d="M302.857,54.053l67.472.971-10.121,35.845h29.88s.327,68.451-37.11,73.561c-26.025,3.552-23.692-27.116,9.157-21.064,32.29,5.949,49.64,25.671,82.894,16.412" fill="none" stroke="#231815" stroke-linecap="round" stroke-linejoin="round"/>
  <path d="M464.146,75.262c12.489-2.592,25.19-5.198,37.901-4.126,12.71,1.072,25.662,6.363,33.076,16.742,3.164,4.428,5.194,9.583,6.552,14.853,4.18,16.22,1.995,33.992-5.99,48.716" fill="none" stroke="#231815" stroke-miterlimit="10"/>
  <path d="M507.146,32.907c-3.196,48.402-13.142,88.034-38.903,114.291" fill="none" stroke="#231815" stroke-miterlimit="10"/>
  <path d="M560.923,74.725c7.472,7.252,14.635,14.824,21.46,22.688" fill="none" stroke="#231815" stroke-miterlimit="10"/>
  <path d="M608.262,59.8c14.695.678,29.437.339,44.085-1.014" fill="none" stroke="#231815" stroke-miterlimit="10"/>
  <path d="M636.49,35.247c-.761,10.266-1.53,20.587-3.947,30.594s-6.581,19.776-13.416,27.474" fill="none" stroke="#231815" stroke-miterlimit="10"/>
  <path d="M697.23,50.014c7.656,2.52,15.049,5.84,22.02,9.888" fill="none" stroke="#231815" stroke-miterlimit="10"/>
  <path d="M697.23,83.52s9.033,64.371-26.665,67.437-34.24-41.874-9.087-46.167c23.366-3.988,53.87,13.536,53.87,13.536" fill="none" stroke="#231815" stroke-linecap="round" stroke-linejoin="round"/>
  <path d="M757.215,56.207c17.684-.288,35.369-.575,53.053-.863-.594.008-1.188.017-1.782.025" fill="none" stroke="#231815" stroke-miterlimit="10"/>
  <path d="M794.374,28.148c-7.26,31.66-20.211,62.006-38.049,89.151" fill="none" stroke="#231815" stroke-miterlimit="10"/>
  <path d="M824.043,87.639c10.773-1.2,21.641-1.551,32.469-1.047" fill="none" stroke="#231815" stroke-miterlimit="10"/>
  <path d="M807.464,140.882c20.473,12.349,44.669,18.432,68.548,17.231" fill="none" stroke="#231815" stroke-miterlimit="10"/>
</svg>