<?xml version="1.0" encoding="UTF-8"?>
<svg id="_レイヤー_1" data-name="レイヤー_1" xmlns="http://www.w3.org/2000/svg" version="1.1" viewBox="0 0 340.16 340.16">
  <!-- Generator: Adobe Illustrator 30.2.1, SVG Export Plug-In . SVG Version: 2.1.1 Build 1)  -->
  <path d="M233.89,139.12c-6.6.68-10.27.82-16.79,0-5.81-.73-4.94-5.5-8.89-9.72-.57-.61-1.22-.48-1.76.06l-13.33,13.22c-11.51,11.42-22.69,26.83-24.72,43.32-.6,4.9,1.49,10.96-2.62,11.2-1.52.09-2.79-1.38-2.83-2.91l-.2-6.12c-.19-5.77,2.74-14.81,5.12-20.14,2.63-5.9,5.91-11.19,9.83-16.48-2.45-2.49-2.83-6.59-4.76-10.35-8.93,2.56-19.14,8.98-25.24,16.19-.29.35-.71.97-.51,1.45,3.52,8.37,5.05,13.89,4.64,23.27-.47,10.67-5.89,21.2-12.03,29.66-.74,1.02-1.45,1.83-2.21,3.11,1.09.29,2.19.22,3.43.34,4.54.44,7.65,4.14,7.27,8.69-.07.83-.42,1.68-.27,2.55,3.28.72,6.16.27,8.37,3.81,3.29,5.25.41,13.19-2.81,17.45-1.09,1.45-2.82,1.7-4.02.98-1.59-.94-2.07-2.71-1.03-4.34,1.17-1.85,2.15-3.76,2.75-5.92.46-1.68,1.08-5.34-1.55-5.48-1.34-.07-2.61-.06-3.9-.24-3.13-.45-4.88-3.1-4.3-6.21.23-1.26.69-2.57.39-3.9-.6-2.72-10.55-.65-12.83-.21-1.54.3-3.06-.54-3.55-1.62-.64-1.42-.34-3.2.91-4.11,3.17-2.3,5.71-4.93,8.02-8.07,9.75-13.23,14.87-27.3,8.8-43.53-3.72-9.94-10.08-18.1-19.11-23.75-11.93-7.47-25.76-10.41-39.78-9.06-6.16.59-11.74,1.78-17.49,3.99-9.28,3.56-19.32,8.98-24.63,17.67-2.18,3.57-5.09,9.78-5.9,13.79-1.31,6.52-2.79,16.78-.62,22.9,4.25,12.04,19.85,2.69,28.45,13.26.78.95,1.17,1.88,2.26,2.65,3.73,2.65,8.71,4.96,12.7,1.28l2.51-2.31c10.05-9.25,20.99,7.96,28.8.04,1.43-1.45,2.34-3.26,3.06-5.21l3.75-10.24c1.99-5.43,8.66-11.71,14.76-9.36,1.35.52,2.08,2.07,1.77,3.12-1.06,3.56-4.02,1.03-6.83,2.97-2.21,1.53-3.69,3.66-4.61,6.23l-3.83,10.65c-2.4,6.66-8.69,11.47-16.33,9.69-4.03-.94-7.51-3.07-12.13-4.42-3.57-1.04-4.93,2.1-8.01,4.34-6.03,4.38-13.6,2.36-19.14-1.92-1.49-1.16-2.27-2.53-3.42-4.01-3.55-4.56-11.66-2.89-18.65-4.87-8.07-2.27-11.78-9.33-11.87-17.41s1.16-16.33,3.54-24.36,7.41-14.97,14.11-20.19c8.97-6.98,21.65-11.86,33.2-13.74-6.92-7.67-3.35-17.19,3.19-23.19,5.61-5.13,11.45-9.69,17.62-14.14,3.42-2.47,7.72-3.94,10.83-.28,1.32,1.55,2.21,3.35,2.82,5.35,1.97,6.49,3.73,18.03,2.38,24.48-1.56,7.41-6.62,9.17-6.47,9.66.07.24.36.23.69.33,13.81,4.2,25.11,11.59,33.22,24.08,6.96-7.42,17.05-13.75,26.4-17.17,3.03-1.11,6.26-.62,7.5,2.53l3.34,8.51c3.17-3.65,6.02-6.74,9.2-9.9l12.2-12.16c2.52-2.52,6.26-2.7,8.93-.28,2.22,2.01,3.8,4.6,5.01,7.38.45,1.03,1.14,1.34,2.25,1.48,4.52.57,8.97.34,13.55-.08,3.06-.28,2.74-3.28,6.75-6.89,4.4-3.95,9.15-.76,12.32,3,4.72,5.58,8.65,11.59,11.92,18.15,1.85,3.7,3.12,7.34,4.33,11.32.74,2.45,11.21-1.46,11.66-13.04.09-2.24,1.46-4,3.76-4.14,1.66-.1,3.36.5,4.89,1.19,11.23,5.04,25.16,16.16,34.17,24.66,4.93,4.65,8.92,9.78,11.96,15.8.61,1.21.22,2.71-.56,3.65-.63.76-1.85,1.49-3.17,1.29l-9.6-1.47c-3.94-.6-7.83.11-11.55,1.4s-6.77,3.83-8.96,7.15c-3.27,4.97-.54,7.49-3.59,8.94-4.41,2.1-5.31-4.8-12.83-10.61-2.4-1.85-8.26-5-10.24-1.42-.69,1.24-1.79,1.66-3.11,1.54-.99-.09-2.24-.85-2.39-2.26-.47-4.5,4.95-7.6,10.31-6.75,9.57,1.51,14.6,10.89,15.46,9.41l.34-.59.32-.54.33-.52c1.13-1.79,2.32-3.34,3.87-4.8l.44-.42c4.93-4.67,12.74-6.73,19.45-6.63h.89c.33.02.57-.01.87.03l4.91.66c.4.05.5-.31.27-.62-2.43-3.85-5.36-7.01-8.68-10.15-8.07-7.65-20.78-17.82-30.91-22.32-.28-.12-.56-.26-.69-.21-.63.25-1.09,11.38-12.08,16.26-3.33,1.48-4.56.48-4.41,1.9.75,7.1.63,17.58-1.24,24.32-2.07,7.48-5.91,14.05-11.1,19.78-3.45,3.82-6.99,7.16-11.28,10.04-6.97,4.67-14.71,7.52-22.97,8.8-1.31.2-.74,2.91-.63,4.05l7.26.24c1.35.04,2.27,1.19,2.43,2.41s-.64,2.53-2.05,2.86c-1.12.27-2.22.17-3.39.16-1.83-.02.24,2.26-2.9,5.47-2.61,2.68-6.49,3.88-10.1,2.85s-5.58-4.26-4.79-7.79c.83-3.7,3.94-5.99,7.66-6.25.3-1.08.24-2.07.07-3.08-2.8-.08-4.33.18-7.38.16-2.45-.02.25,4.23-3.35,5.14-.93.23-1.9-.14-2.59-.91-1.92-2.15.47-4.2-2.31-4.32-3.3-.13-10.14.22-9.58-4.02.46-3.52,6.59-2.24,10.46-1.99,1.59.1-1.22-7.87,3.27-8.22,1.52-.12,2.96,1.09,3,2.71l.12,5.08c.04,1.53,14.92-.72,16.49-1.03,12.24-2.47,21.54-8.54,29.42-18.09,4.11-4.98,7.29-10.66,8.65-17.08,1.53-7.2,1.46-14.38.75-21.63-1.17-11.94-8.53-24.44-16.22-33.33-.81-.94-1.94-1.97-3.13-2.01-3.92,3.04-3.6,7.77-9.63,8.39ZM101.61,113.26c4.5.7,7.29,4.21,7.23,8.68,4.92-4.12,1.68-19.82.14-25.35-.39-1.38-1-2.77-2.02-3.7-.79-.23-1.8.39-2.5.88-6.15,4.28-11.92,8.79-17.44,13.84-4.3,3.93-7.77,10.47-2.85,15.46,2.24,2.27,5.17,3.55,8.42,2.72-1.66-2.98-1.38-6.37.41-9.03s5-4.07,8.62-3.51ZM101.92,123.59c.91-.95,1.22-2.2.62-3.38-.33-.65-1.34-1.26-2.46-1.23-1.56.04-2.53,1.17-2.65,2.39-.14,1.35.69,2.22,1.91,2.8.99.47,1.67.37,2.58-.58ZM219.47,239.73c-.96-.5-1.71-.47-2.69-.69-1.32-.27-3.23.74-2.85,2.16s4.73.89,5.54-1.48Z"/>
  <path d="M71.93,240.36c-1.95.03-3.44-1.51-3.08-3.21.28-1.35,1.54-2.25,2.89-2.25l15.63-.04c.24-1.46.25-2.56-.03-4.08-4.58.05-27.08.12-29.72,1.64-1.8,1.03-2.88,2.89-5.21,3.05-1.72.11-3.63-.38-4.42-2.11-.84-1.87.04-3.81,1.69-4.85,1.26-.8,2.65-1.06,4.02-1.65,1.25-4.32-1.76-8.9.32-11.12.69-.74,1.95-.75,2.99-.44,2.66.79,2.53,8.29,2.66,10.71l9.89-.6,16.58-.32c.39,0,.75-.1.83-.25.67-1.23-1.93-12.31,3.32-11.9,4.39.34,1.16,7.73,2.67,12.03,4.55-.01,8.78-.08,13.13-.34l8.8-.52,5.2-.36c1.67-.12,2.86,1.28,3,2.6.45,4.17-5.72,3.47-8.66,3.63l-8.67.47c-4.14.22-8.05.37-12.3.33-.37,1.28-.26,2.55.11,3.91,4.87-.22,7.63-.09,12.59-.33,1.8-.09,3.02,1.28,3.03,2.83s-1.22,2.75-3.01,2.85c-5.09.27-7.54-.28-12.59-.02l-.25,2.9c-.13,1.5-1.38,2.38-2.64,2.45-1.5.09-2.91-.81-3.06-2.45l-.25-2.76-15.44.22Z"/>
  <path d="M183.2,227.77c.9-3.83-10.76-2.35-12.93-2l.25,5.06c.07,1.48-.67,2.81-1.84,3.08-1.52.35-3.26-.17-3.45-1.86l-.64-5.56c-1.54.13-2.83.54-4.35.46s-2.82-1.41-2.55-3c.54-3.18,4.46-2.5,6.73-3.15l-.29-8.22c-.12-3.27-.9-7.97,2.45-8.13,1.35-.07,2.62.85,2.82,2.47.15,1.19-.08,2.31-.01,3.49l.56,9.82c5.53-.33,16.91-2.4,18.82,5.14.62,2.45.07,5-1.34,7.13-3.29,4.97-8.01,8.82-13.48,11.23-1.33.59-2.94-.26-3.43-1.13-.77-1.38-.29-3.07,1.1-3.8,3.69-1.94,10.65-6.95,11.6-11.01Z"/>
  <path d="M21.86,150.21c-4.22.21-2.88-4.83-4.98-7.4-1.55-1.89-3.69-3.73-6.12-3.89l-2.92-.19c-1.47-.09-2.33-1.65-2.23-3.02.08-1.14,1.1-2.67,2.56-2.72,2.57-.09,4.61-1.02,6.2-3.06,3.98-5.1,2.87-9.8,6.28-10.41,1.28-.23,2.76.45,3.37,1.77,2.11,4.57,5.67,8.14,10.36,10.14,2.44-.36,4.79,1.41,4.5,3.86-.4,3.44-3.8,1.74-6.13,3.01-9.56,5.22-6.88,11.72-10.9,11.92ZM22.05,139.78c1.71-2.33,3.35-3.81,5.69-5.37-2.12-1.44-4.03-3.08-5.92-5.41-1.39,2.3-2.58,4.44-4.77,6.48,2.14,1.27,3.51,2.61,5,4.3Z"/>
  <path d="M58.31,176.57c-4.68.62-8,2.77-9.46-1-.5-1.28.24-3.07,1.74-3.78,3.86-1.82,15.04-2.21,19.86-2.43l6.98-.31c9.73-.43,19.24-.63,28.88-.16,1.82.09,3.01,2.02,2.94,3.36-.09,1.77-1.52,3.29-3.55,3.2-14.97-.63-32.61-.86-47.39,1.11Z"/>
  <path d="M115.69,244.6c.58,2.03-.44,3.46-2.16,4.04-2.67.9-5.28,1.44-8.08,1.99-13.15,2.55-30.82,3.26-44.19,1.61-4.98-.61-9.72-1.77-14.03-4.26-1.31-.76-1.57-2.46-.94-3.62.59-1.09,2.21-1.8,3.57-1.06,4.2,2.28,8.59,3.49,13.35,3.94,2.09.2,4.16.49,6.33.57,14.63.58,28.69-.79,42.76-4.59,1.33-.36,2.61.22,3.38,1.37Z"/>
  <path d="M292.65,236.07c-2.09,2.91-1.06,6.6-4.62,6.57-1.34,0-2.55-1-2.87-2.54-.7-3.36-2.5-4.68-5.42-6.41-1.76-1.04-3.56-1.61-5.57-1.79s-2.99-1.78-2.91-3.41c.08-1.84,1.47-2.95,3.44-3.02,3.56-.12,5.27-2.4,7.27-5.23,1.89-2.66,1.11-5.23,3.6-5.85,1.21-.3,2.78.12,3.33,1.4.92,2.13,2.23,3.77,3.99,5.27,5.23,4.45,7.89,1.22,9.45,5.23.73,1.88-.1,3.8-2.13,4.33-3.87,1-5.09,1.98-7.58,5.45ZM291.94,228.03c.35-.35-4.51-3.6-5.13-4.58-1.43,1.73-2.7,3.4-4.54,5.07,1.96,1.25,3.79,2.43,5.64,4.05,1.32-1.84,2.55-3.08,4.03-4.54Z"/>
  <path d="M265.62,243.54c5.76-2.52,7.93-5.21,10.06-2.92,3.34,3.59-5.21,7.1-7.81,8.19-11.14,4.68-23.52,3.03-32.35-5.27-1.18-1.11-1.21-2.93-.22-3.99,2.8-2.99,5.21,2.35,11.65,4.77,6.18,2.33,12.68,1.84,18.67-.78Z"/>
  <path d="M251.47,242.61c-1.36,1.02-2.88,1.19-4.51.68-3.72-1.16-3.33-6.83-3.44-10.37-2.68-.5-9.01,1.66-8.89-2.74.11-4.13,5.92-2.37,9.11-3.03.39-1.69-.12-5.15,2.54-5.5,1.19-.16,2.56.16,3.07,1.46.42,1.09.26,2.19.3,3.41,1.94.44,7.57-1.04,7.58,2.82,0,3.9-5.41,2.42-7.9,3.16-.22,1.65-.3,3.54.33,5.14,1.08.21,2.28.59,2.66,1.52.49,1.18.35,2.54-.87,3.45Z"/>
  <path d="M122.33,247.93c-2.13-2.87,1.98-4.78,3.75-6.29,4.71-4.01,3.79-10.08,3.29-15.56-.16-1.78,1.06-3.47,2.88-3.38,1.12.06,2.3,1,2.51,2.12,1.85,9.63.92,19.92-9.35,23.97-1.22.48-2.49-.07-3.08-.86Z"/>
  <path d="M46.33,129.23c-4.1.88-8.29-2.48-8.77-6.53-.29-2.46,1.18-4.67,3.38-5.74s5-.87,7.09.48c2.58,1.66,3.32,4.66,2.15,7.48-.77,1.85-2.17,3.2-3.85,4.31ZM44.51,124.33c1.13-.62,1.37-1.63.89-2.55-.92-.69-2.06-.7-2.85.25.09,1.09.75,1.85,1.96,2.31Z"/>
  <path d="M232.77,152.83c-.72-.78-1.99-.43-2.87-.47l-8.71-.46c-2.7-.14-2.88,3.72-6.67,2.72-1.15-.3-2.62-1.36-2.94-2.97-.18-.93.27-1.7.87-2.02,1.64-.88,2.52.88,2.92,1.03,1.03.38,1.46-2.64,4.95-2.53l6.38.21c1.81.06,3.54.23,5.39.19,1.59-.03,2.86.73,3.77,1.9,1.65,2.14,2.85-1.02,4.82-.19,1.03.43,1.34,1.57.78,2.53-.86,1.49-2.55,2.12-3.92,2.24-1.92.17-3.33-.62-4.77-2.18Z"/>
  <path d="M313.59,217.54c-2.39,1.51-5.15,1.82-7.34.1-2.57-2.02-3.2-6.03-1.07-8.68,2.61-3.24,7.92-3.09,10.38.22,2.08,2.79.91,6.54-1.97,8.36ZM310.91,212.55c-.2-.76-1.35-.54-1.32.04.04.7,1.5.65,1.32-.04Z"/>
  <path d="M258.05,239.28c-1.46.1-2.79.3-3.86-.51-.96-.72-1.04-2.04-.67-3.25.27-.88,1.56-1.65,2.87-1.75l7.49-.61c1.71-.14,3.1.95,3.24,2.42.15,1.61-.97,3.11-2.79,3.24l-6.28.45Z"/>
  <path d="M12.75,170.08c-2.23.45-4.36-1.32-4.85-3.34-.34-1.41.2-2.78,1.4-3.48,1.64-.96,3.75-.91,5.25.24,1.23.95,1.71,2.41,1.32,3.87-.3,1.11-1.32,2.35-3.11,2.71Z"/>
  <circle cx="204.91" cy="147.61" r="3.01"/>
  <circle cx="246.92" cy="147.89" r="3"/>
  <path d="M253.36,159.09c-.49.53-1.33.39-1.7.12-1.28-.95.22-3.67,1.01-4.88.4-.61,1.23-.68,1.81-.46,1.69.65-.06,4.06-1.13,5.23Z"/>
  <path d="M249.66,153.48c1.62.55-.11,5.25-1.71,5.16-.43-.02-1.33-.11-1.4-.98-.09-1.2.88-4.93,3.11-4.17Z"/>
  <path d="M201.23,156.21c-.92.45-1.96.18-2.22-.64-.49-1.53.99-4.35,2.7-3.88.59.16,1.02.76,1.01,1.61,0,1.1-.27,2.32-1.49,2.92Z"/>
  <path d="M196.02,155.65c-.43.46-1.13.44-1.58.3-1.57-.5-.55-3.33,1.17-4.65.6-.46,1.32-.38,1.78,0,1.22,1.04-.51,3.42-1.37,4.35Z"/>
</svg>