<?xml version="1.0" encoding="UTF-8"?>
<svg id="_レイヤー_2" data-name="レイヤー 2" xmlns="http://www.w3.org/2000/svg" viewBox="0 0 883.2768 173.9254">
  <defs>
    <style>
      .cls-1 {
        fill: #231815;
      }
    </style>
  </defs>
  <g id="_レイヤー_1-2" data-name="レイヤー 1">
    <g>
      <g>
        <path class="cls-1" d="M136.5471,94.524c-19.429,5.5097-87.0301,8.3176-84.5835-22.3776,3.356-30.5881,72.7683-35.9052,97.0259-36.3289,15.8085.0893,46.0644-.7769,56.6844,12.3743,1.9989,2.5459,3.047,5.9662,2.4102,9.1865-3.328,15.8246-33.5749,19.4561-46.7549,20.2655-21.053,1.313-64.6589-2.5905-73.5754-25.1354-3.0066-7.7814-.0979-16.5637,4.841-22.7931,6.1836-8.0361,14.8831-13.228,23.9837-17.2038C138.6206,2.7527,163.1344-.7925,187.0243.1452c23.7886,1.1114,49.5165,5.0449,68.2628,20.9905,11.8353,10.1222,17.9305,25.8161,13.0891,41.056C246.3201,134.4663,66.8024,130.0245,3.4685,130.1131c-4.5697-.1866-4.7081-6.9545.0853-7.0873,37.6427,1.3215,75.3645,1.4112,112.9225-1.5884,41.1694-3.6228,100.347-10.6993,132.0498-38.6755,29.4868-28.1436,15.039-58.7502-20.7607-70.1309-34.1237-10.4498-75.9635-8.9886-108.6871,5.4683-4.0416,1.8423-8.3108,3.9074-11.945,6.4502-16.8976,11.7948-21.1529,28.355.0121,38.2287,23.0938,10.4841,56.7002,11.2515,80.7235,3.6079,5.229-1.9967,12.3726-4.7442,13.699-10.1311.5651-3.6079-2.6102-5.8718-5.5625-7.6717-5.7933-3.2993-12.3263-4.3231-19.0988-5.1876-27.231-3.5781-102.338-1.4649-117.829,23.5997-7.5236,14.5168,8.9676,21.0297,20.7848,23.1453,9.0245,1.7007,18.3604,1.9863,27.5518,1.662,8.9953-.42,18.5509-1.3647,27.0338-4.0473,4.5923-1.3594,6.6363,5.3035,2.099,6.7689h0Z"/>
        <path class="cls-1" d="M165.6261,108.2548c-.3367,12.0111-.6668,26.7889-1.3443,38.7167-.183,4.3352-.2325,8.6324.3708,12.972.3027,1.9942-1.0713,3.8563-3.0661,4.1551-1.9926.2987-3.8501-1.0745-4.1488-3.0671-.0891-.5942-.0233-1.1921.157-1.7245.7062-2.059,1.1519-4.1495,1.5047-6.2491,1.0103-6.2949.9936-12.6945,1.0588-19.0525-.0063-8.4827-.4444-16.973-1.6091-25.3801-.4801-5.075,7.0101-5.5011,7.0769-.3704h0Z"/>
        <path class="cls-1" d="M130.4049,142.6148c19.4995-5.1413,39.4443-7.7842,59.607-8.4199,1.9618-.0794,3.6164,1.4502,3.6906,3.4124.0952,2.1126-1.7417,3.8622-3.8455,3.6724-9.6809-.8153-19.4671-.3509-29.0977,1.0245-9.6184,1.391-19.1335,3.6902-28.243,7.0754-4.6815,1.5628-6.8789-5.3663-2.1113-6.7648h0Z"/>
        <path class="cls-1" d="M104.6826,166.9069c42.1497-8.8022,85.6202-11.6703,128.5011-7.4028,1.9493.1822,3.3817,1.9103,3.1993,3.8595-.1821,2.0258-2.0667,3.4913-4.0746,3.1726-10.4495-1.626-21.0023-2.6386-31.5822-3.1116-3.9658-.1909-11.9182-.358-15.8853-.3341-15.7775.1127-31.9295,1.3363-47.4837,3.86-10.459,1.6879-20.8221,3.952-30.9975,6.8416-4.666,1.1703-6.4428-5.7243-1.677-6.8853h0Z"/>
        <path class="cls-1" d="M96.286,114.9134c-.9833,11.908-1.5651,23.7526-4.6747,35.3311-.9647,3.8503-2.091,7.6697-3.3685,11.4632-.6184,1.8692-2.6419,2.8801-4.5078,2.251-2.0433-.6687-3.0208-3.0798-2.0305-4.9844,1.6979-3.3236,3.1384-6.7918,4.3229-10.3499,2.3471-7.1275,3.7722-14.5965,4.1095-22.1005.1126-3.7568-.1074-7.5333-.9267-11.2172-.8805-5.4653,7.3327-5.9498,7.0757-.3934h0Z"/>
      </g>
      <path class="cls-1" d="M466.9939,74.3686c20.4764-3.5664,44.1709-6.7685,63.0018,4.7252,19.2286,12.3775,23.7605,38.0222,18.735,58.9233-1.3678,6.0732-3.3988,11.9774-6.0752,17.7364-.9097,1.9574-3.2339,2.8067-5.1914,1.897-2.121-.9675-2.9117-3.649-1.6673-5.6163,5.777-9.6301,9.2905-21.0953,9.412-32.491.1784-9.9838-2.716-19.8997-8.5575-27.9921-11.5489-15.665-33.1984-16.8171-50.9908-14.1467-5.7997.8518-11.4689,2.1394-17.2804,3.6435-1.8256.4725-3.6886-.6245-4.1611-2.4501-.5128-1.9369.7962-3.9261,2.775-4.2292h0Z"/>
      <path class="cls-1" d="M514.2225,35.587c-4.3904,40.9203-10.6131,85.2411-39.9094,116.5391-1.3361,1.4305-3.5789,1.507-5.0095.1708-1.4791-1.3736-1.5004-3.7323-.0489-5.1339,8.003-7.7628,14.4454-17.1944,19.5861-27.1696,2.1287-4.4046,4.3253-9.2533,5.9861-13.8468,4.7291-13.112,7.895-26.7268,9.8387-40.5659,1.402-10.0837,2.2118-20.2661,2.4859-30.4714.2799-4.816,7.4144-4.4292,7.0709.4775h0Z"/>
      <path class="cls-1" d="M566.9314,74.6285c7.0609,7.8259,14.1572,15.5087,21.6683,22.9084,3.5331,3.7004-2.168,8.6736-5.3518,4.645-6.1349-8.3226-13.3702-15.7917-21.2519-22.4682-3.7615-3.3823,1.4254-8.752,4.9354-5.0852h0Z"/>
      <path class="cls-1" d="M642.5646,37.9555c-1.4861,12.2493-2.5888,24.2552-6.4202,36.1724-2.0631,6.0222-5.0128,11.4859-8.265,16.7743-3.4202,5.3828-7.0887,10.381-11.9031,14.7725-3.5411,3.0336-8.1509-2.0367-4.7481-5.2696,6.6645-5.3172,11.8015-12.8436,15.7879-20.3855,5.584-10.3195,6.9161-22.1587,7.9769-33.6962.2138-2.9567.4115-5.9192.5044-8.8917.3167-4.8505,7.4559-4.3676,7.0673.5237h0Z"/>
      <path class="cls-1" d="M701.8786,49.0942c5.4142,3.1354,11.0154,5.6875,16.7532,8.1224,1.9367.7754,3.8968,1.5297,5.9944,2.0826,1.9691.5231,3.1414,2.5434,2.6183,4.5125-.6476,2.7445-4.3603,3.6664-6.2334,1.6006-2.8126-2.8789-6.2765-4.8835-9.9149-6.4841-3.6449-1.5626-7.4525-2.7585-11.4335-3.1027-2.0108-.1497-3.5194-1.9013-3.3696-3.9121.1306-2.6898,3.3609-4.2959,5.5855-2.8192h0Z"/>
      <path class="cls-1" d="M760.6985,55.1107c12.7968.1589,25.5992.0655,38.3922-.241,4.2637-.1077,8.524-.2975,12.7781-.5935,2.0159-.2435,3.8562,1.2482,3.9904,3.2832.1585,2.089-1.5817,3.8837-3.673,3.7963-4.2912-.1564-8.576-.2067-12.8576-.1746-12.8445.1122-25.6821.4378-38.5148,1.0153-4.8115.0655-4.9573-6.9835-.1152-7.0856h0Z"/>
      <path class="cls-1" d="M801.3686,31.3866c-7.0664,23.6107-14.9076,46.9856-26.422,68.8394-2.5441,4.8599-6.1503,11.4525-8.9445,16.1746,0,0-3.1752,5.2905-3.1752,5.2905-1.0078,1.6791-3.186,2.2233-4.8651,1.2155-1.7725-1.0525-2.2622-3.4373-1.0573-5.1074,0,0,3.399-4.9629,3.399-4.9629,1.657-2.5152,4.8565-7.6148,6.3985-10.1979,9.1418-15.5838,16.6413-32.2004,22.1929-49.3953,2.4255-7.6658,4.37-15.491,5.5662-23.4404.9472-4.9265,8.1895-3.3493,6.9074,1.5838h0Z"/>
      <path class="cls-1" d="M827.1918,86.5637c7.9539.0446,16.811-.224,24.7543-.463,2.7474-.1391,5.497-.2615,8.2717-.6024,1.9776-.2548,3.7877,1.1503,4.0302,3.1298.344,2.42-1.9959,4.5212-4.3591,3.9492-10.5245-2.0368-21.494-1.2716-31.9127,1.0293-5.2641,1.0226-6.1617-6.8736-.7844-7.0428h0Z"/>
      <path class="cls-1" d="M812.8354,140.2943c19.2171,13.0106,43.4543,19.1032,66.5394,16.7262,4.6552-.3723,5.4315,6.4027.7653,7.0569-12.4528.0415-24.8194-1.4241-36.7958-4.4373-11.8634-2.9589-23.2932-7.499-34.1797-13.2833-1.7311-.9196-2.389-3.0684-1.4694-4.7995.9737-1.8623,3.4148-2.4592,5.1401-1.2631h0Z"/>
      <path class="cls-1" d="M704.2796,85.4744c.0062,8.9208.8404,18.0265.104,26.9166-1.1357,13.5846-3.857,28.5211-14.7138,38.0224-5.222,4.4192-12.0589,6.3044-18.7599,6.3759-5.5103-.0172-11.1048-1.0421-15.8707-3.9987-15.8792-9.297-15.0443-34.699-.3211-44.7281,3.1118-2.1088,6.7329-3.5596,10.4553-4.0178,0,0,3.5136-.3783,3.5136-.3783,3.3304-.2547,7.0646-.0151,10.4017.2906,10.0892,1.3094,19.878,4.3315,29.1705,8.3251,3.6316,1.5411,8.7145,3.8773,12.3959,5.4187,4.2656,1.9898,1.5823,8.2935-2.827,6.5504-7.2104-4.9601-15.6381-8.2241-23.9576-10.8519-8.8895-2.7462-18.4472-4.4879-27.7315-3.1142-14.8664,1.8559-21.0483,22.372-11.806,33.3204,4.9415,6.0635,13.5901,7.4164,20.9938,6.387,17.5835-2.4905,22.0526-22.8006,23.2276-38.0214.4318-8.4332.8287-17.274-1.2924-25.512-1.2553-5.285,6.7399-6.4634,7.0177-.9847h0Z"/>
      <g>
        <path class="cls-1" d="M336.443,61.0398c-3.6558,28.0096-12.9254,56.0667-31.1683,78.0587-8.6438,10.54-19.4514,19.863-32.5089,24.5072-3.6039,1.1752-7.2669,2.0585-11.1883,2.2496-1.957.0943-3.6197-1.4158-3.714-3.3727-.1117-2.0771,1.6386-3.8238,3.714-3.7139,4.8626.2341,10.0272-1.1079,14.8684-3.0861,14.9317-6.456,26.1973-19.2025,34.7868-32.8599,8.573-13.9941,13.7799-29.8687,16.4969-46.0091.7888-5.2349,1.5507-10.999,1.6387-16.2248.2509-4.8435,7.4176-4.4631,7.0748.451h0Z"/>
        <path class="cls-1" d="M306.4491,52.9565c16.8091,1.8,33.7084,1.9417,50.5901,1.6962,5.6255-.1147,11.252-.3007,16.8819-.7249,1.8103-.1364,3.3884,1.2206,3.5248,3.0309.0531.4799-.0802,1.0122-.1659,1.4749,0-.0004-11.0309,35.5874-11.0312,35.5877.0024,0-2.5069-3.3067-2.4969-3.3027,0,0,29.8779-.9461,29.8779-.9461,1.8938-.06,3.4777,1.4266,3.5376,3.3204-.0239,2.6382-.2129,5.1207-.405,7.6512-1.553,17.2057-4.6513,34.4723-13.487,49.7168-5.1383,8.7929-13.5002,16.486-23.8175,18.4983-6.5032,1.3713-14.162,1.3559-19.4566-3.3972-4.9163-4.2638-4.7362-11.8634-.4136-16.4619,2.7962-3.0886,6.802-4.9435,10.7147-5.8014,23.542-4.1432,47.8664,13.3391,70.2569,17.335,9.0547,1.7301,18.3092.8432,27.0618-1.8227,4.6207-1.4353,6.8124,5.3065,2.1071,6.7788-6.2147,1.4015-12.6464,2.373-19.0184,2.1252-6.201-.2758-12.5885-1.3827-18.4937-3.2807-15.901-5.1253-30.9533-13.5502-47.4491-16.2869-7.3827-1.1533-15.9655-1.2828-21.4168,4.2952-2.0992,2.3001-2.7645,5.8441-.7965,8.393,3.743,4.3922,10.1848,4.1788,15.7912,3.0325,4.2922-.9313,8.2962-2.9384,11.6397-5.8398,16.2321-14.4451,19.9583-43.9528,20.1025-64.693-.0038-.0115,3.5428,3.5261,3.5429,3.5235-.0019-.0009-29.8785-.9457-29.8803-.9461-1.7146.076-3.0236-1.6806-2.4994-3.3029.0005-.0014,9.2095-36.1007,9.2102-36.1019,0,0,3.3588,4.5054,3.3588,4.5054-16.8185-1.6085-33.7073-1.9866-50.589-1.77-5.6253.1055-11.2522.3152-16.883.7991-1.9595.1684-3.6846-1.2836-3.853-3.2432-.2145-2.2118,1.7521-4.1189,3.955-3.8428h0Z"/>
      </g>
      <path class="cls-1" d="M611.9665,58.7072c14.4616,1.7042,29.2473,1.5976,43.5961-1.0026,4.6322-.7797,5.9896,5.9236,1.389,6.9882-3.9684.1508-7.9475.0575-11.9004.215-10.3669.3359-23.1031.5456-33.4183.8787-5.103-.0277-4.7763-7.5229.3336-7.0793h0Z"/>
    </g>
  </g>
</svg>