<?xml version="1.0" encoding="UTF-8"?>
<svg id="_レイヤー_1" xmlns="http://www.w3.org/2000/svg" version="1.1" viewBox="0 0 15.36 15.36">
  <!-- Generator: Adobe Illustrator 30.2.1, SVG Export Plug-In . SVG Version: 2.1.1 Build 1)  -->
  <path d="M15,7.21c-3.33-.9-5.96-3.52-6.85-6.85-.06-.21-.25-.36-.47-.36s-.41.15-.47.36C6.32,3.69,3.69,6.32.36,7.21c-.21.06-.36.25-.36.47s.15.41.36.47c3.33.9,5.96,3.52,6.85,6.85.06.21.25.36.47.36s.41-.15.47-.36c.9-3.33,3.52-5.96,6.85-6.85.21-.06.36-.25.36-.47s-.15-.41-.36-.47Z"/>
</svg>